<svg width="20" height="20" viewBox="0 0 20 20" fill="none" xmlns="http://www.w3.org/2000/svg">
<path fill-rule="evenodd" clip-rule="evenodd" d="M0 3.33333C0 2.44928 0.35119 1.60143 0.976311 0.976311C1.60143 0.35119 2.44928 0 3.33333 0H16.6667C17.5507 0 18.3986 0.35119 19.0237 0.976311C19.6488 1.60143 20 2.44928 20 3.33333V16.6667C20 17.5507 19.6488 18.3986 19.0237 19.0237C18.3986 19.6488 17.5507 20 16.6667 20H3.33333C2.44928 20 1.60143 19.6488 0.976311 19.0237C0.35119 18.3986 0 17.5507 0 16.6667V3.33333ZM11.1111 5.55556C11.1111 5.26087 10.994 4.97826 10.7857 4.76988C10.5773 4.56151 10.2947 4.44444 10 4.44444C9.70532 4.44444 9.4227 4.56151 9.21433 4.76988C9.00595 4.97826 8.88889 5.26087 8.88889 5.55556V14.4444C8.88889 14.7391 9.00595 15.0217 9.21433 15.2301C9.4227 15.4385 9.70532 15.5556 10 15.5556C10.2947 15.5556 10.5773 15.4385 10.7857 15.2301C10.994 15.0217 11.1111 14.7391 11.1111 14.4444V5.55556ZM6.66667 8.88889C6.66667 8.5942 6.5496 8.31159 6.34123 8.10322C6.13286 7.89484 5.85024 7.77778 5.55556 7.77778C5.26087 7.77778 4.97826 7.89484 4.76988 8.10322C4.56151 8.31159 4.44444 8.5942 4.44444 8.88889V14.4444C4.44444 14.7391 4.56151 15.0217 4.76988 15.2301C4.97826 15.4385 5.26087 15.5556 5.55556 15.5556C5.85024 15.5556 6.13286 15.4385 6.34123 15.2301C6.5496 15.0217 6.66667 14.7391 6.66667 14.4444V8.88889ZM15.5556 12.2222C15.5556 11.9275 15.4385 11.6449 15.2301 11.4365C15.0217 11.2282 14.7391 11.1111 14.4444 11.1111C14.1498 11.1111 13.8671 11.2282 13.6588 11.4365C13.4504 11.6449 13.3333 11.9275 13.3333 12.2222V14.4444C13.3333 14.7391 13.4504 15.0217 13.6588 15.2301C13.8671 15.4385 14.1498 15.5556 14.4444 15.5556C14.7391 15.5556 15.0217 15.4385 15.2301 15.2301C15.4385 15.0217 15.5556 14.7391 15.5556 14.4444V12.2222Z" fill="black"/>
</svg>
