<svg width="20" height="20" viewBox="0 0 20 20" fill="none" xmlns="http://www.w3.org/2000/svg">
<path d="M8.97436 2.49231V6.4718C8.97354 6.96742 8.82616 7.45174 8.55078 7.86382C8.27539 8.27589 7.88429 8.59733 7.42668 8.78769C7.12398 8.91283 6.79935 8.97629 6.47181 8.97436H2.49235C1.83041 8.97165 1.19651 8.70679 0.729404 8.23776C0.262301 7.76873 4.82252e-05 7.13374 5.37844e-05 6.4718V2.50256C4.82252e-05 1.84062 0.262301 1.20563 0.729404 0.7366C1.19651 0.267572 1.83041 0.0027129 2.49235 0H6.47181C7.13376 -5.55916e-06 7.76874 0.262248 8.23777 0.729354C8.70679 1.19646 8.97165 1.83037 8.97436 2.49231ZM19.9999 2.50256V6.4718C20.0021 6.79951 19.9388 7.12436 19.8138 7.42729C19.6887 7.73022 19.5044 8.00513 19.2717 8.2359C19.0425 8.47139 18.7682 8.65819 18.465 8.78508C18.1619 8.91197 17.8363 8.97635 17.5077 8.97436H13.5282C13.0337 8.97372 12.5504 8.82722 12.1389 8.55319C11.7273 8.27916 11.4057 7.8898 11.2144 7.43385C11.0876 7.12906 11.0234 6.80189 11.0256 6.4718V2.50256C11.0248 2.17412 11.0897 1.84884 11.2165 1.54587C11.3434 1.2429 11.5295 0.968371 11.7641 0.738462C11.9947 0.504829 12.2694 0.319262 12.5722 0.192504C12.875 0.0657462 13.1999 0.0003154 13.5282 0H17.5077C18.1696 0.0027129 18.8035 0.267572 19.2706 0.7366C19.7377 1.20563 20 1.84062 19.9999 2.50256ZM8.97436 13.5385V17.5077C8.97165 18.1696 8.70679 18.8035 8.23777 19.2706C7.76874 19.7378 7.13376 20 6.47181 20H2.49235C1.83143 19.9987 1.19764 19.7371 0.728255 19.2718C0.495554 19.041 0.311276 18.7661 0.18623 18.4632C0.0611836 18.1603 -0.00211255 17.8354 5.37844e-05 17.5077V13.5385C-0.00211255 13.2107 0.0611836 12.8859 0.18623 12.583C0.311276 12.28 0.495554 12.0051 0.728255 11.7744C1.19556 11.3034 1.82896 11.0346 2.49235 11.0256H6.47181C7.13564 11.031 7.77059 11.2978 8.23904 11.7682C8.70749 12.2386 8.97169 12.8746 8.97436 13.5385ZM19.9999 15.5179C19.9979 16.4035 19.7336 17.2687 19.2403 18.0042C18.747 18.7397 18.0469 19.3126 17.2284 19.6505C16.4098 19.9885 15.5095 20.0764 14.641 19.9031C13.7725 19.7298 12.9749 19.3032 12.3487 18.677C11.7225 18.0508 11.2958 17.2531 11.1225 16.3846C10.9493 15.5161 11.0372 14.6158 11.3751 13.7972C11.7131 12.9787 12.286 12.2785 13.0215 11.7853C13.7569 11.292 14.6221 11.0277 15.5077 11.0256C16.3963 11.0281 17.2645 11.2929 18.0033 11.7868C18.742 12.2807 19.3185 12.9818 19.6605 13.8021C19.8861 14.3456 20.001 14.9292 19.9999 15.5179Z" fill="black"/>
</svg>
