<svg width="20" height="20" viewBox="0 0 20 20" fill="none" xmlns="http://www.w3.org/2000/svg">
<path d="M10 0C12.6522 0 15.1957 1.05357 17.0711 2.92893C18.9464 4.8043 20 7.34784 20 10C20 12.6522 18.9464 15.1957 17.0711 17.0711C15.1957 18.9464 12.6522 20 10 20C7.34784 20 4.8043 18.9464 2.92893 17.0711C1.05357 15.1957 0 12.6522 0 10C0 7.34784 1.05357 4.8043 2.92893 2.92893C4.8043 1.05357 7.34784 0 10 0ZM10.53 4.27429C9.36714 4.27429 8.45571 4.60429 7.78 5.26429C7.08857 5.92429 6.75857 6.83571 6.75857 7.99857H8.55C8.55 7.33857 8.67571 6.82 8.94286 6.45857C9.24143 6.01857 9.72857 5.81429 10.42 5.81429C10.9543 5.81429 11.3786 5.95571 11.6771 6.25429C11.96 6.55286 12.1171 6.96143 12.1171 7.48C12.1171 7.87286 11.9757 8.25 11.6929 8.59571L11.5043 8.81571C10.4829 9.72714 9.87 10.3871 9.66571 10.8114C9.44571 11.2357 9.35143 11.7543 9.35143 12.3514V12.5714H11.1586V12.3514C11.1586 11.9743 11.2371 11.6443 11.3943 11.33C11.5357 11.0471 11.74 10.78 12.0229 10.5443C12.7771 9.88428 13.2329 9.46 13.3743 9.30286C13.7514 8.8 13.9557 8.15571 13.9557 7.37C13.9557 6.41143 13.6414 5.65714 13.0129 5.10714C12.3843 4.54143 11.5514 4.27429 10.53 4.27429ZM10.2471 13.3414C9.92674 13.3328 9.61595 13.4514 9.38286 13.6714C9.26777 13.7798 9.17733 13.9117 9.11769 14.0581C9.05804 14.2045 9.03057 14.362 9.03714 14.52C9.03714 14.8657 9.14714 15.1486 9.38286 15.3686C9.6142 15.5931 9.92477 15.7173 10.2471 15.7143C10.5929 15.7143 10.8757 15.6043 11.1114 15.3843C11.229 15.2737 11.3219 15.1395 11.3841 14.9906C11.4464 14.8417 11.4766 14.6814 11.4729 14.52C11.4759 14.3625 11.4468 14.206 11.3873 14.0601C11.3279 13.9142 11.2394 13.782 11.1271 13.6714C10.888 13.451 10.5723 13.3326 10.2471 13.3414Z" fill="black"/>
</svg>
