<svg width="23" height="20" viewBox="0 0 23 20" fill="none" xmlns="http://www.w3.org/2000/svg">
<path d="M13.1429 0C10.5286 0 8.02138 1.05357 6.1728 2.92893C4.32423 4.80429 3.28571 7.34783 3.28571 10H0L4.26048 14.3222L4.33714 14.4778L8.7619 10H5.47619C5.47619 5.7 8.90429 2.22222 13.1429 2.22222C17.3814 2.22222 20.8095 5.7 20.8095 10C20.8095 14.3 17.3814 17.7778 13.1429 17.7778C11.029 17.7778 9.11238 16.9 7.73238 15.4889L6.17714 17.0667C7.08978 17.998 8.17522 18.7367 9.37079 19.2402C10.5664 19.7436 11.8484 20.0019 13.1429 20C15.7571 20 18.2643 18.9464 20.1129 17.0711C21.9615 15.1957 23 12.6522 23 10C23 7.34783 21.9615 4.80429 20.1129 2.92893C18.2643 1.05357 15.7571 3.95203e-08 13.1429 0ZM12.0476 5.55555V11.1111L16.7024 13.9111L17.5457 12.4889L13.6905 10.1667V5.55555H12.0476Z" fill="black"/>
</svg>
