<svg width="19" height="20" viewBox="0 0 19 20" fill="none" xmlns="http://www.w3.org/2000/svg">
<path d="M9.50048 0C7.94301 0.0017016 6.44983 0.620467 5.34854 1.72053C4.24724 2.8206 3.62779 4.31213 3.62609 5.86786C3.64405 8.46931 4.71156 10.7097 6.05021 12.6536C6.97188 13.978 8.05389 15.1836 9.27165 16.2429C9.33584 16.2964 9.41683 16.3258 9.50048 16.3258C9.58413 16.3258 9.66512 16.2964 9.7293 16.2429C11.8471 14.5274 15.5123 9.95876 15.3748 5.86782C15.3731 4.3121 14.7537 2.82058 13.6524 1.72051C12.5511 0.620448 11.0579 0.00168936 9.50048 0ZM5.05625 5.86781C5.05625 4.69044 5.52449 3.56129 6.35795 2.72877C7.19141 1.89625 8.32182 1.42854 9.5005 1.42855C10.6792 1.42855 11.8096 1.89627 12.643 2.7288C13.4765 3.56133 13.9447 4.69049 13.9447 5.86786C13.6956 11.7579 5.30446 11.7562 5.05625 5.86781Z" fill="black"/>
<path d="M0.0113497 19.5571C-0.0023478 19.6098 -0.00366605 19.665 0.00749803 19.7182C0.0186621 19.7715 0.0420062 19.8215 0.0757069 19.8643C0.109468 19.9067 0.152422 19.941 0.201342 19.9645C0.250263 19.988 0.303879 20.0002 0.358164 20H18.6428C18.697 19.9999 18.7505 19.9875 18.7992 19.9638C18.8479 19.94 18.8906 19.9055 18.924 19.8628C18.9574 19.8202 18.9807 19.7705 18.9921 19.7175C19.0034 19.6646 19.0026 19.6097 18.9896 19.5571L17.1518 12.2107C17.133 12.1331 17.0885 12.0641 17.0256 12.0149C16.9626 11.9657 16.885 11.939 16.805 11.9393H14.2593C14.0411 12.317 13.7754 12.721 13.5371 13.0643C12.5788 14.4417 11.4522 15.6942 10.1834 16.7929C9.98698 16.9529 9.74063 17.0392 9.48717 17.0365C9.23371 17.0339 8.98918 16.9427 8.79614 16.7786C7.53699 15.6804 6.41783 14.4318 5.46384 13.0607C5.22525 12.7222 4.95899 12.3152 4.74161 11.9393H2.19592C2.11599 11.939 2.0383 11.9657 1.97538 12.0149C1.91246 12.0641 1.86797 12.1331 1.84911 12.2107L0.0113497 19.5571Z" fill="black"/>
<path d="M10.877 2.40714C11.3743 3.36646 11.6354 4.43042 11.6386 5.51071H13.2117C13.1446 4.82937 12.8913 4.17956 12.4796 3.63224C12.0679 3.08491 11.5135 2.66112 10.877 2.40714Z" fill="black"/>
<path d="M10.877 9.325C11.5133 9.07178 12.0677 8.64867 12.4794 8.10193C12.8912 7.55519 13.1445 6.90588 13.2117 6.225H11.6386C11.6359 7.30422 11.3748 8.36714 10.877 9.325Z" fill="black"/>
<path d="M5.7892 6.225C5.8564 6.90588 6.10974 7.55519 6.52152 8.10193C6.93329 8.64867 7.48764 9.07178 8.12394 9.325C7.62616 8.36714 7.36504 7.30422 7.36238 6.225H5.7892Z" fill="black"/>
<path d="M8.12394 2.40714C7.48746 2.66112 6.93308 3.08491 6.52134 3.63224C6.1096 4.17956 5.85634 4.82937 5.7892 5.51071H7.36238C7.36557 4.43042 7.62665 3.36646 8.12394 2.40714Z" fill="black"/>
<path d="M10.9235 5.51071C10.8448 3.56071 10.1369 2.14286 9.50047 2.14286C8.86405 2.14286 8.15612 3.56071 8.07746 5.51071H10.9235Z" fill="black"/>
<path d="M8.07746 6.225C8.15612 8.175 8.86405 9.59285 9.50047 9.59285C10.1369 9.59285 10.8448 8.175 10.9235 6.225H8.07746Z" fill="black"/>
</svg>
