<svg width="20" height="18" viewBox="0 0 20 18" fill="none" xmlns="http://www.w3.org/2000/svg">
<path d="M10 4.5H2C1.46957 4.5 0.960859 4.71071 0.585786 5.08579C0.210714 5.46086 0 5.96957 0 6.5V10.5C0 11.0304 0.210714 11.5391 0.585786 11.9142C0.960859 12.2893 1.46957 12.5 2 12.5H3V16.5C3 16.7652 3.10536 17.0196 3.29289 17.2071C3.48043 17.3946 3.73478 17.5 4 17.5H6C6.26522 17.5 6.51957 17.3946 6.70711 17.2071C6.89464 17.0196 7 16.7652 7 16.5V12.5H10L15 16.5V0.5L10 4.5ZM19.5 8.5C19.5 10.21 18.54 11.76 17 12.5V4.5C18.53 5.25 19.5 6.8 19.5 8.5Z" fill="black"/>
</svg>
