<svg width="21" height="20" viewBox="0 0 21 20" fill="none" xmlns="http://www.w3.org/2000/svg">
<path d="M10.016 19.0323C10.016 18.7756 10.1182 18.5294 10.2999 18.348C10.4817 18.1665 10.7282 18.0645 10.9852 18.0645H18.7386C18.8243 18.0645 18.9064 18.0305 18.967 17.97C19.0276 17.9095 19.0617 17.8275 19.0617 17.7419V2.25806C19.0617 2.17251 19.0276 2.09046 18.967 2.02997C18.9064 1.96947 18.8243 1.93548 18.7386 1.93548H10.9852C10.7282 1.93548 10.4817 1.83353 10.2999 1.65204C10.1182 1.47055 10.016 1.2244 10.016 0.967742C10.016 0.711081 10.1182 0.464932 10.2999 0.283445C10.4817 0.101958 10.7282 0 10.9852 0H18.7386C19.9869 0 21 1.01161 21 2.25806V17.7419C21 18.3408 20.7617 18.9152 20.3377 19.3386C19.9136 19.7621 19.3384 20 18.7386 20H10.9852C10.7282 20 10.4817 19.898 10.2999 19.7166C10.1182 19.5351 10.016 19.2889 10.016 19.0323Z" fill="#EF4444"/>
<path d="M15.6527 11.4387C15.6527 11.7809 15.5166 12.1091 15.2742 12.3511C15.0319 12.5931 14.7032 12.7291 14.3605 12.7291H8.08543C8.05528 13.1875 8.01824 13.646 7.9743 14.1045L7.93554 14.4981C7.9211 14.6464 7.87105 14.7891 7.78962 14.9139C7.70819 15.0388 7.5978 15.1423 7.4678 15.2155C7.33781 15.2887 7.19205 15.3295 7.04289 15.3344C6.89373 15.3394 6.74558 15.3083 6.611 15.2439C4.24814 14.1145 2.10949 12.5674 0.298458 10.6774L0.259691 10.6374C0.0930664 10.4644 0 10.2336 0 9.99357C0 9.7535 0.0930664 9.52276 0.259691 9.3497L0.298458 9.3097C2.10949 7.41972 4.24814 5.87263 6.611 4.74325C6.74558 4.67883 6.89373 4.64778 7.04289 4.65273C7.19205 4.65768 7.33781 4.69848 7.4678 4.77168C7.5978 4.84488 7.70819 4.94831 7.78962 5.07319C7.87105 5.19808 7.9211 5.34073 7.93554 5.48905L7.9743 5.8826C8.01824 6.34023 8.05528 6.79873 8.08543 7.25808H14.3605C14.7032 7.25808 15.0319 7.39403 15.2742 7.63601C15.5166 7.87799 15.6527 8.20619 15.6527 8.54841V11.4387Z" fill="#EF4444"/>
</svg>
