<svg width="22" height="20" viewBox="0 0 22 20" fill="none" xmlns="http://www.w3.org/2000/svg">
<path fill-rule="evenodd" clip-rule="evenodd" d="M2.2 0C1.61652 0 1.05694 0.234126 0.644365 0.650874C0.231785 1.06762 0 1.63285 0 2.22222V17.7778C0 18.3671 0.231785 18.9324 0.644365 19.3491C1.05694 19.7659 1.61652 20 2.2 20H19.8C20.3835 20 20.9431 19.7659 21.3556 19.3491C21.7682 18.9324 22 18.3671 22 17.7778V2.22222C22 1.63285 21.7682 1.06762 21.3556 0.650874C20.9431 0.234126 20.3835 0 19.8 0H2.2ZM7.2875 6.25556C7.31191 6.04313 7.38513 5.83941 7.50133 5.66064C7.61753 5.48188 7.77348 5.33302 7.95674 5.22595C8.14001 5.11887 8.34551 5.05654 8.55685 5.04394C8.7682 5.03133 8.97953 5.06879 9.174 5.15333C9.7284 5.39333 10.8988 5.93333 12.3816 6.79778C13.4237 7.39937 14.4301 8.06199 15.3956 8.78222C15.5654 8.90982 15.7032 9.07573 15.7982 9.26672C15.8932 9.45771 15.9427 9.66849 15.9427 9.88222C15.9427 10.096 15.8932 10.3067 15.7982 10.4977C15.7032 10.6887 15.5654 10.8546 15.3956 10.9822C14.43 11.7017 13.4236 12.3636 12.3816 12.9644C11.3451 13.576 10.2741 14.1258 9.174 14.6111C8.97955 14.6959 8.76816 14.7336 8.55673 14.7211C8.3453 14.7086 8.1397 14.6463 7.95637 14.5391C7.77304 14.432 7.61706 14.2831 7.50092 14.1042C7.38478 13.9253 7.31169 13.7214 7.2875 13.5089C7.15552 12.3046 7.09088 11.0938 7.0939 9.88222C7.0939 8.15889 7.2171 6.86111 7.2875 6.25556Z" fill="black"/>
</svg>
