<svg width="70" height="70" viewBox="0 0 70 70" fill="none" xmlns="http://www.w3.org/2000/svg">
<path d="M56.6426 1.15664C42.2554 -0.385547 27.7446 -0.385547 13.3574 1.15664C7.47852 1.84024 1.83887 7.47715 1.15664 13.3574C-0.385547 27.7446 -0.385547 42.2554 1.15664 56.6426C1.84024 62.5215 7.47715 68.1611 13.3574 68.8434C27.7446 70.3856 42.2554 70.3856 56.6426 68.8434C62.5215 68.1598 68.1611 62.5229 68.8434 56.6426C70.3856 42.2554 70.3856 27.7446 68.8434 13.3574C68.1611 7.47715 62.5229 1.83887 56.6426 1.15664Z" fill="#F9973E"/>
<path d="M16.4828 54.7996C37.4869 54.7996 54.5139 37.7727 54.5139 16.7699C54.5206 11.1899 53.2946 5.67737 50.9236 0.626176C38.4121 -0.358579 25.8362 -0.180998 13.3574 1.15664C7.47852 1.84024 1.83887 7.47715 1.15664 13.3574C-0.196782 25.9833 -0.362487 38.7084 0.661715 51.3652C5.62621 53.6371 11.0232 54.8086 16.4828 54.7996Z" fill="#FCA84C"/>
<path d="M40.0463 57.9031C39.9184 58.5204 39.6126 59.0867 39.1665 59.532C38.7204 59.9774 38.1536 60.2823 37.5361 60.4092C35.7213 60.69 33.874 60.69 32.0592 60.4092C31.4419 60.2811 30.8756 59.9751 30.4301 59.5291C29.9845 59.0831 29.6792 58.5164 29.5518 57.899C29.2701 56.0838 29.2701 54.236 29.5518 52.4207C29.6796 51.8035 29.9855 51.2372 30.4316 50.7918C30.8777 50.3464 31.4445 50.0415 32.0619 49.9147C32.966 49.7688 33.8806 49.6984 34.7963 49.7041C35.712 49.6988 36.6266 49.7692 37.5307 49.9147C38.1479 50.0428 38.7143 50.3487 39.1598 50.7947C39.6053 51.2407 39.9106 51.8074 40.0381 52.4248C40.3197 54.2401 40.3197 56.0879 40.0381 57.9031H40.0463ZM50.4041 30.0125C49.0492 31.9266 47.0299 33.6725 44.048 35.4963C40.2924 37.8123 39.9383 38.6299 39.9383 40.2158V40.9445C39.9383 42.309 39.3963 43.6176 38.4314 44.5824C37.4666 45.5472 36.158 46.0893 34.7936 46.0893C33.4291 46.0893 32.1205 45.5472 31.1557 44.5824C30.1909 43.6176 29.6488 42.309 29.6488 40.9445V39.2602C29.6488 37.0016 30.2148 35.0834 31.3811 33.3949C32.4981 31.7762 34.1619 30.342 36.6201 28.8832C41.2932 26.1352 41.665 24.7488 41.665 23.2203C41.6748 22.7164 41.5635 22.2176 41.3406 21.7656C41.1177 21.3136 40.7897 20.9217 40.384 20.6227C39.5117 19.9609 38.2635 19.6109 36.7746 19.6109C35.1053 19.6109 33.7162 19.9897 32.6484 20.7348C31.5807 21.4799 30.8096 22.6051 30.3393 24.0912C29.9888 25.192 29.2957 26.1518 28.361 26.8307C27.4263 27.5096 26.2991 27.8719 25.1439 27.8647C25.0072 27.8647 24.8705 27.8647 24.7447 27.851C23.9158 27.7933 23.111 27.5468 22.3918 27.1305C21.6727 26.7142 21.0582 26.139 20.5953 25.4488C20.1329 24.7695 19.8317 23.9936 19.7146 23.1802C19.5976 22.3668 19.6678 21.5374 19.9199 20.7553C21.026 17.3031 23.1506 14.4293 26.0627 12.4455C29.0022 10.4439 32.7072 9.38575 36.776 9.38575C41.0143 9.38575 44.9477 10.7406 47.8584 13.2002C50.8662 15.7473 52.5315 19.2609 52.5315 23.0945C52.5301 25.7264 51.8342 27.9918 50.4041 30.0152V30.0125Z" fill="white"/>
</svg>
