<svg width="71" height="70" viewBox="0 0 71 70" fill="none" xmlns="http://www.w3.org/2000/svg">
<path d="M22.2022 57.2931C22.2879 57.3788 22.3559 57.4806 22.4023 57.5926C22.4487 57.7045 22.4725 57.8246 22.4725 57.9458C22.4725 58.067 22.4487 58.187 22.4023 58.299C22.3559 58.411 22.2879 58.5127 22.2022 58.5984L20.9877 59.8129C20.902 59.8986 20.8002 59.9666 20.6883 60.013C20.5763 60.0594 20.4563 60.0833 20.335 60.0833C20.2138 60.0833 20.0938 60.0594 19.9818 60.013C19.8698 59.9666 19.7681 59.8986 19.6824 59.8129L10.687 50.8177C10.5139 50.6445 10.4167 50.4098 10.4167 50.165C10.4167 49.9202 10.5139 49.6854 10.687 49.5123L11.9016 48.2978C11.9873 48.2121 12.089 48.1441 12.201 48.0977C12.313 48.0513 12.433 48.0274 12.5542 48.0274C12.6754 48.0274 12.7955 48.0513 12.9075 48.0977C13.0194 48.1441 13.1212 48.2121 13.2069 48.2978L22.2022 57.2931ZM38.629 41.8856C38.2776 42.2353 37.8443 42.4919 37.3687 42.6319C36.893 42.7719 36.3899 42.791 35.905 42.6874C35.4201 42.5838 34.9687 42.3609 34.5918 42.0387C34.2148 41.7166 33.9242 41.3054 33.7464 40.8426C33.1291 41.2327 32.3898 41.3818 31.6695 41.2614C30.9493 41.1409 30.2987 40.7594 29.842 40.1896C29.3853 39.6199 29.1545 38.9018 29.1936 38.1726C29.2328 37.4435 29.5392 36.7543 30.0543 36.2367C29.3325 35.9356 28.7588 35.3618 28.4576 34.64L23.0396 40.058C22.8649 40.2262 22.631 40.319 22.3885 40.3163C22.146 40.3135 21.9143 40.2156 21.7435 40.0435C21.5726 39.8714 21.4762 39.639 21.4752 39.3965C21.4742 39.154 21.5686 38.9208 21.738 38.7473L25.5407 34.9538C25.6537 34.8543 25.7457 34.7331 25.8113 34.5975C25.8768 34.4619 25.9146 34.3146 25.9225 34.1642C25.9303 34.0138 25.908 33.8633 25.8568 33.7217C25.8057 33.58 25.7267 33.45 25.6246 33.3393C25.5225 33.2286 25.3993 33.1394 25.2623 33.0769C25.1252 33.0145 24.977 32.9801 24.8265 32.9757C24.676 32.9713 24.5261 32.9971 24.3856 33.0514C24.2451 33.1058 24.117 33.1877 24.0086 33.2923L18.203 39.0981C17.4569 39.8479 16.9008 40.7652 16.5813 41.7735C16.2618 42.7818 16.188 43.852 16.3662 44.8946C16.4275 45.2522 16.4016 45.6193 16.2908 45.9648C16.1799 46.3102 15.9873 46.6239 15.7293 46.879L15.0648 47.5436L22.9564 55.4261C23.8745 54.5779 24.1555 53.7543 25.6147 54.1245C26.6573 54.3058 27.7283 54.2335 28.7371 53.9138C29.746 53.5941 30.6632 53.0364 31.4112 52.2878L40.2166 43.4824C39.8552 43.3417 39.5273 43.1269 39.2539 42.8519C38.9805 42.5769 38.7676 42.2477 38.629 41.8856ZM54.6246 25.0962C54.5635 24.7378 54.5904 24.3699 54.7029 24.0243C54.8155 23.6786 55.0104 23.3654 55.2707 23.1117L55.926 22.4563L48.0437 14.5647L47.379 15.2292C47.1239 15.4872 46.8102 15.6798 46.4648 15.7906C46.1193 15.9015 45.7522 15.9274 45.3946 15.8661C44.352 15.688 43.2818 15.7617 42.2735 16.0813C41.2652 16.4008 40.3479 16.9568 39.5982 17.703L33.7925 23.5086C33.6835 23.6185 33.5981 23.7496 33.5415 23.8937C33.485 24.0378 33.4585 24.1919 33.4636 24.3467C33.4688 24.5014 33.5056 24.6534 33.5716 24.7934C33.6377 24.9334 33.7317 25.0584 33.8478 25.1608C34.0836 25.3415 34.3775 25.4292 34.6737 25.4071C34.9699 25.3849 35.2476 25.2546 35.4539 25.0408L39.2473 21.238C39.4211 21.0697 39.6539 20.9762 39.8957 20.9777C40.1376 20.9792 40.3693 21.0755 40.5409 21.2459C40.7125 21.4163 40.8105 21.6473 40.8137 21.8892C40.8169 22.131 40.7251 22.3645 40.558 22.5394C39.307 23.8001 31.8413 31.2585 30.405 32.6924C30.1988 32.9053 30.0845 33.1907 30.0868 33.4871C30.0891 33.7835 30.2079 34.0671 30.4175 34.2767C30.6271 34.4863 30.9107 34.6051 31.2071 34.6074C31.5035 34.6098 31.7889 34.4955 32.0018 34.2892L39.7365 26.5545C39.9115 26.3866 40.1454 26.294 40.3879 26.2965C40.6304 26.299 40.8622 26.3964 41.0337 26.5679C41.2052 26.7394 41.3027 26.9712 41.3052 27.2137C41.3077 27.4562 41.2151 27.6901 41.0472 27.8651C39.6687 29.2415 32.5894 36.3127 31.3743 37.5289C31.168 37.7418 31.0538 38.0272 31.0561 38.3236C31.0585 38.62 31.1773 38.9035 31.3868 39.1131C31.5964 39.3227 31.8799 39.4414 32.1763 39.4438C32.4727 39.4462 32.7581 39.3319 32.971 39.1257C33.7473 38.3503 41.6358 30.4536 42.6347 29.4527C42.8096 29.2843 43.0436 29.1912 43.2864 29.1935C43.5292 29.1958 43.7614 29.2933 43.9331 29.465C44.1048 29.6366 44.2023 29.8688 44.2046 30.1116C44.2069 30.3544 44.1139 30.5884 43.9455 30.7633L35.7215 38.9873C35.6161 39.0909 35.5324 39.2144 35.4753 39.3507C35.4183 39.487 35.389 39.6333 35.3893 39.7811C35.3943 40.0023 35.4634 40.2173 35.5882 40.4C35.7131 40.5826 35.8882 40.7251 36.0925 40.8102C36.2968 40.8952 36.5213 40.9191 36.7389 40.879C36.9565 40.8389 37.1578 40.7365 37.3183 40.5842C37.3183 40.5842 45.5099 32.3739 45.5423 32.3511C45.7162 32.1792 45.9512 32.0834 46.1957 32.0846C46.4402 32.0858 46.6743 32.1839 46.8465 32.3574C47.0188 32.5309 47.1153 32.7656 47.1147 33.0101C47.1142 33.2546 47.0167 33.4889 46.8437 33.6616L40.6319 39.8826C40.4171 40.0878 40.2852 40.3649 40.2614 40.661C40.2375 40.9571 40.3234 41.2517 40.5026 41.4887C40.6053 41.6043 40.7304 41.6979 40.8704 41.7636C41.0104 41.8294 41.1623 41.866 41.3168 41.8711C41.4714 41.8763 41.6254 41.85 41.7695 41.7938C41.9136 41.7375 42.0447 41.6526 42.1549 41.544L52.7971 30.9018C53.5445 30.1513 54.1007 29.2322 54.4187 28.2218C54.7368 27.2115 54.8074 26.1395 54.6246 25.0962ZM60.313 19.1824L51.3176 10.187C51.1445 10.0139 50.9097 9.91669 50.6649 9.91669C50.4201 9.91669 50.1854 10.0139 50.0123 10.187L48.7978 11.4015C48.7121 11.4872 48.6441 11.5889 48.5977 11.7009C48.5513 11.8129 48.5274 11.9329 48.5274 12.0541C48.5274 12.1753 48.5513 12.2954 48.5977 12.4073C48.6441 12.5193 48.7121 12.6211 48.7978 12.7068L57.7931 21.7022C57.8788 21.7879 57.9805 21.8559 58.0925 21.9022C58.2045 21.9486 58.3245 21.9725 58.4457 21.9725C58.5669 21.9725 58.687 21.9486 58.799 21.9022C58.9109 21.8559 59.0127 21.7879 59.0984 21.7022L60.313 20.4877C60.486 20.3146 60.5833 20.0798 60.5833 19.8351C60.5833 19.5903 60.4861 19.3555 60.313 19.1824ZM48.9559 47.1891C48.8727 47.1059 48.774 47.0399 48.6653 46.9949C48.5566 46.9499 48.4401 46.9267 48.3225 46.9267C48.2049 46.9267 48.0884 46.9499 47.9797 46.9949C47.871 47.0399 47.7723 47.1059 47.6891 47.1891C47.6059 47.2723 47.54 47.371 47.4949 47.4797C47.4499 47.5884 47.4268 47.7049 47.4268 47.8225C47.4268 47.9401 47.4499 48.0566 47.4949 48.1653C47.54 48.274 47.6059 48.3727 47.6891 48.4559L50.223 50.9898C50.3911 51.1575 50.6188 51.2516 50.8562 51.2514C51.0936 51.2513 51.3212 51.157 51.4891 50.9891C51.6569 50.8213 51.7513 50.5936 51.7514 50.3563C51.7516 50.1189 51.6575 49.8912 51.4898 49.7231L48.9559 47.1891ZM57.0001 37.6875H53.4166C53.1791 37.6875 52.9512 37.7819 52.7832 37.9499C52.6152 38.1179 52.5208 38.3458 52.5208 38.5833C52.5208 38.8209 52.6152 39.0488 52.7832 39.2168C52.9512 39.3848 53.1791 39.4792 53.4166 39.4792H57C57.2376 39.4792 57.4655 39.3848 57.6335 39.2168C57.8015 39.0488 57.8959 38.8209 57.8959 38.5833C57.8959 38.3458 57.8015 38.1179 57.6335 37.9499C57.4655 37.7819 57.2377 37.6875 57.0001 37.6875ZM31.9167 17.9792C32.1543 17.9791 32.3822 17.8848 32.5501 17.7168C32.7181 17.5488 32.8125 17.3209 32.8125 17.0834V13.5C32.8125 13.2624 32.7182 13.0345 32.5502 12.8665C32.3822 12.6985 32.1543 12.6042 31.9167 12.6042C31.6791 12.6042 31.4513 12.6985 31.2833 12.8665C31.1153 13.0345 31.0209 13.2624 31.0209 13.5V17.0834C31.0209 17.3209 31.1153 17.5488 31.2833 17.7168C31.4513 17.8848 31.6792 17.9791 31.9167 17.9792ZM22.0442 22.8109C22.2122 22.9785 22.4399 23.0726 22.6773 23.0725C22.9147 23.0724 23.1423 22.978 23.3102 22.8102C23.478 22.6423 23.5724 22.4147 23.5725 22.1773C23.5727 21.9399 23.4786 21.7122 23.3109 21.5442L20.777 19.0102C20.6938 18.927 20.5951 18.861 20.4864 18.816C20.3777 18.771 20.2613 18.7478 20.1436 18.7478C20.026 18.7478 19.9095 18.771 19.8008 18.816C19.6922 18.861 19.5934 18.927 19.5102 19.0102C19.427 19.0933 19.3611 19.1921 19.3161 19.3008C19.271 19.4094 19.2479 19.5259 19.2479 19.6436C19.2479 19.7612 19.271 19.8777 19.3161 19.9863C19.3611 20.095 19.427 20.1938 19.5102 20.277L22.0442 22.8109ZM14 32.3125H17.5834C17.821 32.3125 18.0488 32.2181 18.2168 32.0501C18.3848 31.8821 18.4792 31.6542 18.4792 31.4166C18.4792 31.1791 18.3848 30.9512 18.2168 30.7832C18.0488 30.6152 17.821 30.5208 17.5834 30.5208H14C13.7624 30.5208 13.5345 30.6152 13.3665 30.7832C13.1985 30.9512 13.1042 31.1791 13.1042 31.4166C13.1042 31.6542 13.1985 31.8821 13.3665 32.0501C13.5345 32.2181 13.7624 32.3125 14 32.3125ZM39.0833 52.0208C38.8457 52.0209 38.6179 52.1152 38.4499 52.2833C38.2819 52.4513 38.1875 52.6791 38.1875 52.9167V56.5C38.1875 56.7376 38.2819 56.9655 38.4499 57.1335C38.6179 57.3015 38.8458 57.3958 39.0834 57.3958C39.3209 57.3958 39.5488 57.3015 39.7168 57.1335C39.8848 56.9655 39.9792 56.7376 39.9792 56.5V52.9167C39.9792 52.6791 39.8848 52.4512 39.7168 52.2832C39.5488 52.1152 39.3209 52.0208 39.0833 52.0208ZM70.5 35C70.5 41.9223 68.4473 48.6892 64.6014 54.4449C60.7556 60.2007 55.2893 64.6867 48.8939 67.3358C42.4985 69.9848 35.4612 70.6779 28.6718 69.3275C21.8825 67.977 15.6461 64.6436 10.7513 59.7487C5.85644 54.8539 2.52301 48.6175 1.17253 41.8282C-0.177952 35.0388 0.515165 28.0015 3.16423 21.6061C5.8133 15.2107 10.2993 9.74441 16.0551 5.89856C21.8108 2.05271 28.5777 0 35.5 0C44.7794 0.010471 53.6757 3.70132 60.2372 10.2628C66.7987 16.8243 70.4895 25.7206 70.5 35ZM68.5065 35C68.5065 28.4719 66.5707 22.0905 62.9439 16.6626C59.3171 11.2347 54.1622 7.00418 48.131 4.506C42.0999 2.00782 35.4634 1.35418 29.0608 2.62774C22.6581 3.9013 16.777 7.04486 12.1609 11.6609C7.54488 16.2769 4.40132 22.1581 3.12776 28.5607C1.85419 34.9634 2.50783 41.5999 5.00601 47.631C7.50419 53.6622 11.7347 58.8171 17.1626 62.4439C22.5905 66.0707 28.9719 68.0065 35.5 68.0065C44.2508 67.9966 52.6404 64.516 58.8282 58.3282C65.016 52.1404 68.4966 43.7508 68.5065 35Z" fill="url(#paint0_linear_528_5408)"/>
<defs>
<linearGradient id="paint0_linear_528_5408" x1="0.500016" y1="35" x2="70.5" y2="35" gradientUnits="userSpaceOnUse">
<stop stop-color="#00C0FF"/>
<stop offset="1" stop-color="#5558FF"/>
</linearGradient>
</defs>
</svg>
