<svg width="79" height="70" viewBox="0 0 79 70" fill="none" xmlns="http://www.w3.org/2000/svg">
<path d="M34.4972 67.7943C53.5496 67.7943 68.9945 52.618 68.9945 33.8971C68.9945 15.1763 53.5496 0 34.4972 0C15.4449 0 0 15.1763 0 33.8971C0 52.618 15.4449 67.7943 34.4972 67.7943Z" fill="#CBE9FF"/>
<path d="M21.8005 69.9754L18.8472 69.4959C18.238 69.3969 17.879 69.0266 18.0492 68.6727L30.2922 43.2309C30.4625 42.877 31.1003 42.6685 31.7093 42.7674L34.6627 43.247C35.2718 43.3459 35.6308 43.7162 35.4606 44.0701L23.2176 69.5119C23.0474 69.8658 22.4097 70.0743 21.8005 69.9754Z" fill="#124460"/>
<path d="M48.5867 69.9754L51.5401 69.4959C52.1492 69.3969 52.5083 69.0266 52.3381 68.6727L40.095 43.2309C39.9248 42.877 39.287 42.6685 38.678 42.7674L35.7246 43.247C35.1155 43.3459 34.7564 43.7162 34.9267 44.0701L47.1697 69.5119C47.3399 69.8658 47.9776 70.0743 48.5867 69.9754Z" fill="#124460"/>
<path d="M34.7395 57.3456C48.7217 57.3456 60.0564 46.208 60.0564 32.4692C60.0564 18.7303 48.7217 7.59275 34.7395 7.59275C20.7574 7.59275 9.42267 18.7303 9.42267 32.4692C9.42267 46.208 20.7574 57.3456 34.7395 57.3456Z" fill="#CB5840"/>
<path d="M34.7395 48.8871C43.9675 48.8871 51.4482 41.5366 51.4482 32.4692C51.4482 23.4018 43.9675 16.0512 34.7395 16.0512C25.5116 16.0512 18.0309 23.4018 18.0309 32.4692C18.0309 41.5366 25.5116 48.8871 34.7395 48.8871Z" fill="#FFAA22"/>
<path d="M34.7395 41.5999C39.8716 41.5999 44.032 37.5119 44.032 32.4692C44.032 27.4264 39.8716 23.3384 34.7395 23.3384C29.6075 23.3384 25.4471 27.4264 25.4471 32.4692C25.4471 37.5119 29.6075 41.5999 34.7395 41.5999Z" fill="white"/>
<path d="M34.7395 37.471C37.5509 37.471 39.83 35.2316 39.83 32.4692C39.83 29.7067 37.5509 27.4673 34.7395 27.4673C31.9282 27.4673 29.6491 29.7067 29.6491 32.4692C29.6491 35.2316 31.9282 37.471 34.7395 37.471Z" fill="#CB5840"/>
<path d="M64.0453 19.0164L64.6931 20.2957L79 13.2958L74.3578 13.0619L76.967 9.2802L62.66 16.2801L63.3104 17.565L40.2242 28.8711L39.5728 27.5868L34.4973 32.5813L41.6116 31.6061L40.9601 30.3218L64.0453 19.0164Z" fill="#103947"/>
</svg>
