<svg width="68" height="70" viewBox="0 0 68 70" fill="none" xmlns="http://www.w3.org/2000/svg">
<path d="M60.1867 0H32.8183L28.2789 31.5991L32.8183 66.9281L46.3932 70C46.3932 70 48.0962 69.9899 48.1248 69.9706C51.4228 69.9706 54.1375 67.0691 54.1375 63.915L54.1353 9.61464L60.1867 0Z" fill="#FFC157"/>
<path d="M19.4727 0C15.1794 0 11.686 3.52371 11.686 7.85492L11.6823 62.1451L32.8183 66.9281V0H19.4727Z" fill="#FFD27B"/>
<path d="M22.4965 44.3423H26.5622V48.4438H22.4965V44.3423Z" fill="#EB8D00"/>
<path d="M60.1671 0C56.841 0 54.1353 2.72957 54.1353 6.08505V9.61411H66.1988V6.08505C66.1988 2.72957 63.4932 0 60.1671 0Z" fill="#EB9D2D"/>
<path d="M45.6251 17.8188V13.7173H32.8412L31.1699 16.0415L32.8412 17.8188H45.6251Z" fill="#BD6800"/>
<path d="M35.5066 28.0273V23.9258H32.8412L31.1699 26.25L32.8412 28.0273H35.5066Z" fill="#BD6800"/>
<path d="M45.6251 38.2353V34.1338H32.8412L31.1699 36.4126L32.8412 38.2353H45.6251Z" fill="#BD6800"/>
<path d="M22.4965 13.7173H32.8412V17.8188H22.4965V13.7173Z" fill="#EB8D00"/>
<path d="M22.4965 23.9258L32.8412 23.9258V28.0273L22.4965 28.0273V23.9258Z" fill="#EB8D00"/>
<path d="M22.4965 34.1338L32.8412 34.1338V38.2353L22.4965 38.2353V34.1338Z" fill="#EB8D00"/>
<path d="M48.0804 70V69.9995C44.7659 69.985 42.0741 67.2614 42.0741 63.915V60.3843H32.8867L31.1699 64.7139L32.8862 70H48.0804Z" fill="#FFDC82"/>
<path d="M0 63.8797C0 67.2598 2.71624 70 6.06668 70H32.886V60.3843H0V63.8797Z" fill="#FFE899"/>
<path d="M67.9797 25.8195L67.7849 21.9551L51.4075 36.4585L38.6755 51.3219H50.0751L57.7352 43.5941L58.6351 40.8335L60.6097 40.6941L63.3678 37.9117C66.5255 34.726 68.2063 30.319 67.9797 25.8195Z" fill="#189EDB"/>
<path d="M63.9543 21.7586L67.7849 21.9551L38.6755 51.3219V39.822L46.3356 32.0942L49.9618 32.0835L49.2101 29.1937L51.9681 26.4113C55.1259 23.2256 59.4948 21.53 63.9543 21.7586Z" fill="#4BBAED"/>
<path d="M49.209 29.1932L51.8728 31.8806L48.9977 34.7805L46.3344 32.0937L49.209 29.1932Z" fill="#87D0ED"/>
<path d="M57.7341 43.5951L55.0708 40.9077L57.9453 38.0073L60.6091 40.6947L57.7341 43.5951Z" fill="#4BBAED"/>
<path d="M44.8665 42.1751L47.7416 45.0755L35.703 57.2205L32.8279 54.3201L44.8665 42.1751Z" fill="#CCE4ED"/>
</svg>
