<svg width="70" height="70" viewBox="0 0 70 70" fill="none" xmlns="http://www.w3.org/2000/svg">
<path d="M0.462725 40.7056C0.174385 38.9472 0.0171589 37.1446 0.0012995 35.3084C-0.165224 16.0033 15.6943 0 35.0002 0C54.33 0 70 15.67 70 35C70 37.2483 69.7879 39.4471 69.383 41.5774C68.7004 45.1672 65.5278 47.7444 61.8737 47.7444H8.80283C4.67899 47.7444 1.13005 44.7753 0.462725 40.7056Z" fill="#2CB3CD"/>
<path d="M7.08605 37.4775C6.85308 36.0563 6.72593 34.5994 6.71308 33.1153C6.57841 17.5123 19.3965 4.57803 35 4.57803C50.623 4.57803 63.2879 17.243 63.2879 32.866C63.2879 34.6831 63.1166 36.4602 62.7892 38.182C62.2375 41.0834 59.6734 43.1663 56.72 43.1663H13.8268C10.4936 43.1663 7.6254 40.7667 7.08605 37.4775Z" fill="#44BFD7"/>
<path d="M11.1058 38.1942C8.8577 41.0379 6.17747 43.5244 3.16433 45.5544C2.52558 45.9847 1.64689 45.6686 1.42882 44.9299C0.981751 43.4163 0.634349 41.86 0.394134 40.2686C1.75407 38.9826 3.58911 38.1942 5.60845 38.1942H11.1058Z" fill="#3D4EC6"/>
<path d="M32.7179 45.7849V55.6115C32.7179 63.1243 25.1671 68.3613 18.1716 65.6215C17.8747 65.5051 17.6252 65.3905 17.4327 65.2786C9.71258 60.7898 3.86621 53.4333 1.35223 44.6678C1.89241 41.0051 5.04856 38.194 8.86137 38.194H25.1272C29.3195 38.1942 32.7179 41.5927 32.7179 45.7849Z" fill="#5766CE"/>
<path d="M23.3704 37.462L18.5357 45.7466C18.4302 45.9275 18.1689 45.9275 18.0634 45.7466L15.6052 41.5342C15.4996 41.3533 15.2384 41.3533 15.1328 41.5342L12.6746 45.7466C12.5691 45.9275 12.3078 45.9275 12.2023 45.7466L7.36761 37.462C7.26124 37.2798 7.39276 37.0508 7.60372 37.0508H23.1341C23.3452 37.0508 23.4768 37.2798 23.3704 37.462Z" fill="#FCF2B6"/>
<path d="M29.0311 15.5542V26.2659H1.70444V14.742C1.70444 14.5049 1.86728 14.2987 2.09792 14.2439L21.5183 9.62008C25.3513 8.70734 29.0311 11.6138 29.0311 15.5542Z" fill="#FF9F22"/>
<path d="M6.15057 24.6393V25.7238C6.15057 27.221 4.93678 28.4348 3.43958 28.4348C1.94237 28.4348 0.728721 27.2208 0.728721 25.7236V24.6392C0.728721 23.142 1.94251 21.9282 3.43971 21.9282C4.93692 21.9282 6.15057 23.1421 6.15057 24.6393Z" fill="#FFBEAA"/>
<path d="M2.35526 24.0971V26.2659C2.35526 27.1528 2.78114 27.94 3.43944 28.4346C1.94237 28.4345 0.728721 27.2208 0.728721 25.7236V24.6392C0.728721 23.142 1.94237 21.9285 3.43944 21.9283C2.78114 22.423 2.35526 23.2102 2.35526 24.0971ZM15.368 7.83125C8.78022 7.83125 3.43971 13.1718 3.43971 19.7596V24.0971C3.43971 29.5571 7.10815 34.1603 12.1148 35.5764V39.2786C12.1148 41.0752 13.5712 42.5318 15.368 42.5318C17.1646 42.5318 18.6212 41.0754 18.6212 39.2786V35.5764C23.6279 34.1604 27.2963 29.5572 27.2963 24.0971V19.7596C27.2963 13.1718 21.9558 7.83125 15.368 7.83125Z" fill="#FAA68E"/>
<path d="M27.2963 19.7596V24.0971C27.2963 29.6049 23.5633 34.2408 18.4893 35.6128C17.5108 35.8773 16.4783 35.8773 15.4998 35.6128C10.4259 34.2408 6.6928 29.6049 6.6928 24.0971V19.7596C6.6928 13.7234 11.1762 8.73455 16.9946 7.94131C22.8129 8.73455 27.2963 13.7234 27.2963 19.7596Z" fill="#FFBEAA"/>
<path d="M13.7955 24.827C13.4779 24.5093 13.4779 23.9944 13.7955 23.6768C14.1131 23.3594 14.6281 23.3594 14.9457 23.6768C15.0586 23.7897 15.2086 23.8521 15.3679 23.8521C15.5272 23.8521 15.677 23.7899 15.7901 23.6768C16.1077 23.3594 16.6227 23.3594 16.9403 23.6768C17.2579 23.9946 17.2579 24.5094 16.9403 24.827C16.5201 25.2472 15.9617 25.4786 15.368 25.4786C14.7741 25.4786 14.2158 25.2472 13.7955 24.827ZM18.6539 27.8201C18.3363 27.5026 17.8213 27.5026 17.5037 27.8201C16.3259 28.9979 14.4098 28.9979 13.2319 27.8201C12.9143 27.5026 12.3993 27.5026 12.0817 27.8201C11.7641 28.1378 11.7641 28.6527 12.0817 28.9703C12.9876 29.8762 14.1777 30.3291 15.3677 30.3291C16.5577 30.3291 17.7479 29.8762 18.6538 28.9703C18.9715 28.6526 18.9715 28.1377 18.6539 27.8201Z" fill="#E09380"/>
<path d="M11.8437 20.5728C11.8437 21.4711 11.1154 22.1993 10.2171 22.1993C9.31874 22.1993 8.59058 21.471 8.59058 20.5728C8.59058 19.6744 9.31888 18.9462 10.2171 18.9462C11.1154 18.9462 11.8437 19.6745 11.8437 20.5728ZM20.5187 18.9462C19.6203 18.9462 18.8922 19.6745 18.8922 20.5728C18.8922 21.4711 19.6205 22.1993 20.5187 22.1993C21.4171 22.1993 22.1453 21.471 22.1453 20.5728C22.1454 19.6745 21.4171 18.9462 20.5187 18.9462Z" fill="#4C2C21"/>
<path d="M12.1148 19.7596C12.1148 20.2087 11.7507 20.5729 11.3014 20.5729C10.8523 20.5729 10.4881 20.2088 10.4881 19.7596C10.4881 19.3103 10.8522 18.9462 11.3014 18.9462C11.7507 18.9462 12.1148 19.3103 12.1148 19.7596ZM21.6032 18.9462C21.154 18.9462 20.7898 19.3103 20.7898 19.7596C20.7898 20.2088 21.1539 20.5729 21.6032 20.5729C22.0524 20.5729 22.4165 20.2088 22.4165 19.7596C22.4165 19.3103 22.0523 18.9462 21.6032 18.9462Z" fill="#FFF5F5"/>
<path d="M19.0547 10.5423C19.0547 13.8362 16.3845 16.5065 13.0906 16.5065H3.33098C2.43261 16.5065 1.70444 15.7782 1.70444 14.8799C1.70444 9.19051 6.31665 4.57817 12.0062 4.57817H13.0906C16.3845 4.57803 19.0547 7.24829 19.0547 10.5423Z" fill="#FF9F22"/>
<path d="M7.12646 10.5422C7.12646 7.24828 9.79671 4.57803 13.0905 4.57803H28.4889C28.7883 4.57803 29.0311 4.82084 29.0311 5.12025C29.0311 11.4086 23.9334 16.5063 17.645 16.5063H13.0905C9.79671 16.5063 7.12646 13.8361 7.12646 10.5422Z" fill="#FFB52D"/>
<path d="M68.1587 15.7403V34.7241H55.406V15.205H67.6236C67.9191 15.205 68.1587 15.4447 68.1587 15.7403Z" fill="#2B3894"/>
<path d="M47.3542 15.205V34.7241H40.8321V15.5556C40.8321 15.362 40.9891 15.205 41.1827 15.205H47.3542Z" fill="#232E7A"/>
<path d="M51.2423 39.0616V36.4439C46.2357 35.0279 42.5672 30.4247 42.5672 24.9646V20.627C42.5672 14.0392 47.9078 8.69873 54.4955 8.69873C61.0833 8.69873 66.4238 14.0392 66.4238 20.627V22.7958C67.921 22.7958 69.1348 24.0096 69.1348 25.5068V26.5267C69.1348 28.0138 67.9646 29.2727 66.478 29.3017C66.191 29.3073 65.914 29.2683 65.6534 29.1911C64.3247 32.6973 61.3908 35.4139 57.7488 36.4439V39.0616H64.2551C64.5356 39.0616 64.8126 39.0768 65.0852 39.1065C66.2204 39.2299 66.8745 40.4678 66.3516 41.4831C61.2954 51.2995 51.733 58.4157 40.3985 60.0977V46.6524C40.3985 42.4602 43.797 39.0616 47.9892 39.0616H51.2423Z" fill="#D47F6C"/>
<path d="M66.4238 20.627L66.4237 24.9646C66.4237 30.4724 62.6908 35.1083 57.6167 36.4803C56.6382 36.7448 55.6057 36.7448 54.6272 36.4803C49.5533 35.1083 45.8202 30.4724 45.8202 24.9646V20.627C45.8202 14.5909 50.3036 9.60203 56.122 8.80879C61.9403 9.60203 66.4238 14.5909 66.4238 20.627Z" fill="#E09380"/>
<path d="M52.923 25.6945C52.6054 25.3768 52.6054 24.8619 52.923 24.5443C53.2406 24.2268 53.7557 24.2268 54.0733 24.5443C54.1862 24.6572 54.3362 24.7196 54.4954 24.7196C54.6547 24.7196 54.8046 24.6574 54.9176 24.5443C55.2352 24.2268 55.7502 24.2268 56.0678 24.5443C56.3854 24.862 56.3854 25.3769 56.0678 25.6945C55.6477 26.1146 55.0892 26.3461 54.4956 26.3461C53.9017 26.3461 53.3432 26.1148 52.923 25.6945ZM57.7813 28.6876C57.4637 28.3701 56.9487 28.3701 56.6311 28.6876C55.4533 29.8654 53.5372 29.8654 52.3594 28.6876C52.0418 28.3701 51.5267 28.3701 51.2091 28.6876C50.8915 29.0053 50.8915 29.5202 51.2091 29.8378C52.115 30.7437 53.3052 31.1966 54.4952 31.1966C55.6852 31.1966 56.8753 30.7437 57.7812 29.8378C58.0991 29.52 58.0991 29.0052 57.7813 28.6876Z" fill="#B2705B"/>
<path d="M50.9714 21.4404C50.9714 22.3387 50.243 23.0669 49.3448 23.0669C48.4464 23.0669 47.7183 22.3386 47.7183 21.4404C47.7183 20.542 48.4466 19.8138 49.3448 19.8138C50.243 19.8137 50.9714 20.542 50.9714 21.4404ZM59.6464 19.8137C58.748 19.8137 58.0199 20.542 58.0199 21.4402C58.0199 22.3386 58.7482 23.0668 59.6464 23.0668C60.5448 23.0668 61.273 22.3385 61.273 21.4402C61.273 20.542 60.5448 19.8137 59.6464 19.8137Z" fill="#232E7A"/>
<path d="M51.2424 20.627C51.2424 21.0761 50.8784 21.4404 50.4291 21.4404C49.98 21.4404 49.6158 21.0763 49.6158 20.627C49.6158 20.1779 49.9799 19.8137 50.4291 19.8137C50.8782 19.8137 51.2424 20.1779 51.2424 20.627ZM60.7309 19.8137C60.2817 19.8137 59.9175 20.1778 59.9175 20.627C59.9175 21.0761 60.2816 21.4404 60.7309 21.4404C61.1801 21.4404 61.5442 21.0763 61.5442 20.627C61.5441 20.1779 61.18 19.8137 60.7309 19.8137Z" fill="#FFF5F5"/>
<path d="M57.098 8.69873C57.098 13.4899 53.2139 17.3738 48.4229 17.3738H42.4587C41.5603 17.3738 40.8321 16.6455 40.8321 15.7473C40.8321 10.0579 45.4443 5.44551 51.1339 5.44551H53.8449C55.6415 5.44551 57.098 6.90211 57.098 8.69873Z" fill="#232E7A"/>
<path d="M68.1587 14.3V17.3738H62.0126C58.1006 17.3738 54.9291 14.2023 54.9291 10.2903V9.82065C54.9291 7.40428 56.8879 5.44551 59.3042 5.44551C64.1944 5.44551 68.1587 9.40981 68.1587 14.3Z" fill="#2B3894"/>
<path d="M57.2408 62.0262C57.2293 62.0356 57.2178 62.045 57.2063 62.0545C55.6253 63.3537 53.9282 64.517 52.1332 65.5267C51.9614 65.6234 51.7505 65.6817 51.518 65.7118C49.9269 65.9175 48.5311 64.6338 48.5311 63.0294V48.8212H60.4594V55.1439C60.4595 57.8016 59.292 60.3362 57.2408 62.0262Z" fill="#FFC14F"/>
<path d="M69.4647 41.1317C67.9835 49.5143 63.5187 56.8674 57.2065 62.0545V43.3166C59.9009 42.7157 62.4049 41.233 64.5857 39.0688C66.472 39.1496 68.18 39.9189 69.4647 41.1317ZM37.1453 46.6524V61.5769C40.5222 64.2839 51.7846 61.0043 51.7846 61.0043V43.3166C49.0902 42.7157 46.5862 41.233 44.4054 39.0688C40.3666 39.2418 37.1453 42.5709 37.1453 46.6524Z" fill="#FFDE91"/>
<path d="M45.0287 39.6607C42.3074 40.8144 40.3985 43.5105 40.3985 46.6524L40.3985 63.8248C39.2593 63.152 38.1724 62.4002 37.1453 61.5769V46.6524C37.1453 42.5709 40.3666 39.2418 44.4054 39.0688C44.6105 39.2722 44.8182 39.4695 45.0287 39.6607Z" fill="#FFCD71"/>
<path d="M20.6862 66.9486C19.5695 66.4475 18.4839 65.8897 17.433 65.2786V61.1168C17.433 56.9246 20.8315 53.5261 25.0237 53.5261H29.8757C25.6835 53.5261 22.285 56.9246 22.285 61.1168V66.4646C22.285 66.4647 21.2123 67.1847 20.6862 66.9486Z" fill="#D3D3D8"/>
<path d="M52.1334 61.117L52.1332 65.5267C47.0689 68.3752 41.2243 70 35.0001 70C29.9005 70 25.0557 68.9093 20.6862 66.9486L20.6862 61.117C20.6862 56.9248 24.0846 53.5262 28.2769 53.5262H44.5427C48.7349 53.5262 52.1334 56.9248 52.1334 61.117Z" fill="#ECECF1"/>
<path d="M36.5785 62.7368V69.9651C36.0553 69.9882 35.529 70 35.0001 70C34.2388 70 33.4832 69.9757 32.734 69.9278V62.7368C32.734 62.3122 33.0782 61.9679 33.5029 61.9679H35.8096C36.2342 61.9678 36.5785 62.3122 36.5785 62.7368Z" fill="#232E7A"/>
<path d="M35.8096 62.2378H33.5029C33.0782 62.2378 32.734 61.8935 32.734 61.4689V56.9863C32.734 56.5616 33.0782 56.2174 33.5029 56.2174H35.8096C36.2342 56.2174 36.5785 56.5616 36.5785 56.9863V61.4689C36.5785 61.8935 36.2342 62.2378 35.8096 62.2378Z" fill="#3342AE"/>
<path d="M42.5446 53.2643L38.1862 60.7329C37.9751 61.0946 37.4526 61.0946 37.2416 60.7329L34.7834 56.5205L32.3252 60.7329C32.1141 61.0946 31.5916 61.0946 31.3805 60.7329L27.022 53.2643C26.8093 52.8996 27.0722 52.4418 27.4944 52.4418H42.0724C42.4943 52.4418 42.7574 52.8998 42.5446 53.2643Z" fill="#D3D3D8"/>
<path d="M37.3856 30.3749V41.5979H21.1198V30.0973C21.1198 29.861 21.2338 29.6696 21.3744 29.6696H36.9658C37.1977 29.6696 37.3856 29.9854 37.3856 30.3749Z" fill="#7C3F2C"/>
<path d="M48.4465 30.7007V41.5979H27.8973V29.6696H47.4154C47.9848 29.6696 48.4465 30.1313 48.4465 30.7007Z" fill="#954C35"/>
<path d="M22.8548 43.7667C21.3576 43.7667 20.1438 42.5529 20.1438 41.0557V39.9712C20.1438 38.474 21.3576 37.2602 22.8548 37.2602C24.352 37.2602 25.5658 38.474 25.5658 39.9712V41.0557C25.5657 42.5529 24.352 43.7667 22.8548 43.7667Z" fill="#FFBEAA"/>
<path d="M21.7704 39.4291V41.5979C21.7704 42.4848 22.1963 43.2722 22.8546 43.7667C21.3575 43.7665 20.1438 42.5529 20.1438 41.0557V39.9712C20.1438 38.474 21.3575 37.2604 22.8546 37.2602C22.1963 37.7549 21.7704 38.5422 21.7704 39.4291ZM46.7114 37.2604V35.0916C46.7114 28.5038 41.3709 23.1633 34.7831 23.1633C28.1953 23.1633 22.8548 28.5038 22.8548 35.0916V39.4291C22.8548 44.8891 26.5233 49.4923 31.5299 50.9085V54.6107C31.5299 56.4073 32.9864 57.8639 34.7831 57.8639C36.5797 57.8639 38.0363 56.4074 38.0363 54.6107V50.9085C41.6784 49.8784 44.6122 47.1618 45.941 43.6557C46.1852 43.728 46.4438 43.7668 46.7114 43.7668C48.2086 43.7668 49.4224 42.553 49.4224 41.0558V39.9714C49.4224 38.474 48.2086 37.2604 46.7114 37.2604Z" fill="#FAA68E"/>
<path d="M46.7114 35.0916L46.7114 39.4291C46.7114 44.937 42.9784 49.5729 37.9044 50.9448C36.926 51.2094 35.8934 51.2094 34.9149 50.9448C29.841 49.5729 26.1079 44.937 26.1079 39.4291V35.0916C26.1079 29.0555 30.5913 24.0666 36.4097 23.2734C42.228 24.0666 46.7114 29.0555 46.7114 35.0916Z" fill="#FFBEAA"/>
<path d="M33.2109 40.1591C32.8933 39.8414 32.8933 39.3265 33.2109 39.0089C33.5285 38.6914 34.0435 38.6914 34.3611 39.0089C34.474 39.1218 34.624 39.1841 34.7833 39.1841C34.9425 39.1841 35.0924 39.1218 35.2055 39.0089C35.523 38.6914 36.0381 38.6914 36.3557 39.0089C36.6733 39.3266 36.6733 39.8415 36.3557 40.1591C35.9355 40.5792 35.377 40.8107 34.7834 40.8107C34.1895 40.8107 33.6311 40.5792 33.2109 40.1591ZM38.0693 43.152C37.7517 42.8345 37.2367 42.8345 36.9191 43.152C35.7412 44.3298 33.8251 44.3298 32.6473 43.152C32.3297 42.8345 31.8147 42.8345 31.4971 43.152C31.1795 43.4697 31.1795 43.9846 31.4971 44.3022C32.403 45.2081 33.5931 45.6611 34.7831 45.6611C35.9731 45.6611 37.1633 45.2081 38.0692 44.3022C38.3869 43.9846 38.3869 43.4697 38.0693 43.152Z" fill="#E09380"/>
<path d="M31.2588 35.9048C31.2588 36.8032 30.5305 37.5314 29.6322 37.5314C28.7339 37.5314 28.0057 36.8031 28.0057 35.9048C28.0057 35.0064 28.734 34.2783 29.6322 34.2783C30.5305 34.2783 31.2588 35.0066 31.2588 35.9048ZM39.9338 34.2783C39.0355 34.2783 38.3073 35.0066 38.3073 35.9048C38.3073 36.8032 39.0356 37.5314 39.9338 37.5314C40.8322 37.5314 41.5604 36.8031 41.5604 35.9048C41.5605 35.0066 40.8322 34.2783 39.9338 34.2783Z" fill="#232E7A"/>
<path d="M31.5299 35.0916C31.5299 35.5407 31.1658 35.9049 30.7165 35.9049C30.2674 35.9049 29.9032 35.5409 29.9032 35.0916C29.9032 34.6425 30.2673 34.2783 30.7165 34.2783C31.1658 34.2783 31.5299 34.6424 31.5299 35.0916ZM41.0183 34.2783C40.5692 34.2783 40.2049 34.6424 40.2049 35.0916C40.2049 35.5407 40.569 35.9049 41.0183 35.9049C41.4674 35.9049 41.8316 35.5409 41.8316 35.0916C41.8316 34.6424 41.4674 34.2783 41.0183 34.2783Z" fill="#FFF5F5"/>
<path d="M37.3856 23.1633C37.3856 27.9545 33.5016 31.8384 28.7106 31.8384H22.7464C21.848 31.8384 21.1198 31.1101 21.1198 30.2118C21.1198 24.5224 25.732 19.9101 31.4216 19.9101H34.1326C35.9292 19.9101 37.3856 21.3665 37.3856 23.1633Z" fill="#7C3F2C"/>
<path d="M48.4464 28.7645V31.8384H42.3003C38.3883 31.8384 35.2168 28.6669 35.2168 24.7548V24.2852C35.2168 21.8688 37.1756 19.9101 39.5919 19.9101C44.4821 19.9101 48.4464 23.8744 48.4464 28.7645Z" fill="#954C35"/>
<path d="M22.3808 49.733H20.778C20.4005 49.733 20.0944 49.4268 20.0944 49.0494V48.3658C20.0944 47.9883 20.4005 47.6822 20.778 47.6822H22.3808C22.7583 47.6822 23.0644 47.9883 23.0644 48.3658V49.0494C23.0644 49.427 22.7584 49.733 22.3808 49.733ZM43.2134 62.9932H41.6107C41.2332 62.9932 40.9271 62.6871 40.9271 62.3096V61.626C40.9271 61.2485 41.2332 60.9424 41.6107 60.9424H43.2134C43.5909 60.9424 43.897 61.2485 43.897 61.626V62.3096C43.897 62.6872 43.5909 62.9932 43.2134 62.9932ZM63.2397 47.6822H61.6368C61.2593 47.6822 60.9532 47.3761 60.9532 46.9986V46.315C60.9532 45.9375 61.2593 45.6314 61.6368 45.6314H63.2395C63.617 45.6314 63.9231 45.9375 63.9231 46.315V46.9986C63.9233 47.3762 63.6172 47.6822 63.2397 47.6822Z" fill="#FF9F22"/>
<path d="M23.6833 49.733H22.1452C21.5789 49.733 21.1198 49.2738 21.1198 48.7076C21.1198 48.1413 21.5789 47.6822 22.1452 47.6822H23.6833C23.9664 47.6822 24.196 47.9117 24.196 48.1949V49.2203C24.196 49.5034 23.9664 49.733 23.6833 49.733ZM44.5158 62.9932H42.9777C42.4114 62.9932 41.9523 62.5341 41.9523 61.9678C41.9523 61.4015 42.4114 60.9424 42.9777 60.9424H44.5158C44.7989 60.9424 45.0285 61.1719 45.0285 61.4551V62.4805C45.0285 62.7638 44.7989 62.9932 44.5158 62.9932ZM64.5421 47.6822H63.004C62.4377 47.6822 61.9786 47.2231 61.9786 46.6568C61.9786 46.0905 62.4377 45.6314 63.004 45.6314H64.5421C64.8252 45.6314 65.0548 45.8609 65.0548 46.1441V47.1695C65.0548 47.4526 64.8252 47.6822 64.5421 47.6822Z" fill="#FFC14F"/>
</svg>
