<svg width="40" height="40" viewBox="0 0 40 40" fill="none" xmlns="http://www.w3.org/2000/svg">
<g clip-path="url(#clip0_4595_3371)">
<path d="M29.9997 20C29.9997 22.6522 28.9462 25.1957 27.0708 27.0711C25.1954 28.9464 22.6519 30 19.9997 30C10.5164 30 6.39974 18.0083 13.8081 12.1417C15.2829 10.9788 17.0554 10.2547 18.9227 10.0524C20.7899 9.85015 22.6763 10.1778 24.366 10.9978C26.0557 11.8179 27.4802 13.0972 28.4766 14.6893C29.473 16.2814 30.0008 18.1219 29.9997 20Z" fill="#EF4444"/>
<path d="M29.9976 20C29.9992 22.2458 29.2448 24.4268 27.8559 26.1917C25.9336 27.7184 23.5168 28.4846 21.066 28.3445C18.6152 28.2044 16.3015 27.1677 14.5657 25.4319C12.8298 23.6961 11.7931 21.3824 11.653 18.9316C11.5129 16.4808 12.2792 14.064 13.8059 12.1417C15.2807 10.9788 17.0532 10.2547 18.9205 10.0524C20.7877 9.85015 22.6741 10.1778 24.3638 10.9978C26.0535 11.8179 27.4781 13.0972 28.4744 14.6893C29.4708 16.2814 29.9986 18.1219 29.9976 20Z" fill="#EF4444"/>
<path d="M19.9987 4.16665C20.9192 4.16665 21.6654 3.42045 21.6654 2.49998C21.6654 1.57951 20.9192 0.833313 19.9987 0.833313C19.0782 0.833313 18.332 1.57951 18.332 2.49998C18.332 3.42045 19.0782 4.16665 19.9987 4.16665Z" fill="#6FABE6"/>
<path d="M21.6654 37.5C21.666 37.7998 21.5857 38.0943 21.433 38.3524C21.2802 38.6104 21.0607 38.8225 20.7976 38.9662C20.5344 39.1099 20.2373 39.18 19.9377 39.169C19.638 39.158 19.3469 39.0664 19.0949 38.9038C18.843 38.7412 18.6396 38.5136 18.5061 38.2451C18.3727 37.9766 18.3142 37.677 18.3368 37.378C18.3593 37.079 18.4621 36.7916 18.6344 36.5462C18.8066 36.3007 19.0419 36.1063 19.3154 35.9833C19.5689 35.8693 19.8469 35.8206 20.1241 35.8415C20.4013 35.8624 20.6689 35.9524 20.9025 36.1031C21.136 36.2539 21.3282 36.4606 21.4614 36.7046C21.5947 36.9486 21.6648 37.222 21.6654 37.5Z" fill="#6FABE6"/>
<path d="M21.5156 38.1833C21.2077 38.3202 20.8656 38.3605 20.5344 38.299C20.2031 38.2375 19.8983 38.0771 19.66 37.8389C19.4218 37.6006 19.2614 37.2958 19.1999 36.9645C19.1384 36.6333 19.1787 36.2912 19.3156 35.9833C19.6235 35.8465 19.9656 35.8061 20.2968 35.8676C20.6281 35.9291 20.9329 36.0895 21.1711 36.3278C21.4094 36.566 21.5698 36.8708 21.6313 37.2021C21.6928 37.5333 21.6525 37.8755 21.5156 38.1833Z" fill="#82BCF4"/>
<path d="M21.5156 3.18331C21.2077 3.32018 20.8656 3.36053 20.5344 3.29904C20.2031 3.23755 19.8983 3.07711 19.66 2.83887C19.4218 2.60064 19.2614 2.2958 19.1999 1.96454C19.1384 1.63329 19.1787 1.29118 19.3156 0.983315C19.6235 0.846451 19.9656 0.806104 20.2968 0.867594C20.6281 0.929083 20.9329 1.08952 21.1711 1.32776C21.4094 1.56599 21.5698 1.87083 21.6313 2.20209C21.6928 2.53334 21.6525 2.87545 21.5156 3.18331Z" fill="#82BCF4"/>
<path d="M5.83203 20C5.83148 20.4169 5.7267 20.827 5.52721 21.193C5.32772 21.5591 5.03986 21.8694 4.68983 22.0958C4.3398 22.3223 3.9387 22.4575 3.52304 22.4894C3.10738 22.5212 2.69036 22.4487 2.30992 22.2782C1.92947 22.1078 1.59769 21.8449 1.34476 21.5135C1.09183 21.1821 0.925778 20.7928 0.861722 20.3809C0.797665 19.9689 0.837634 19.5475 0.977992 19.155C1.11835 18.7624 1.35464 18.4112 1.66536 18.1333C2.02528 17.8114 2.47073 17.6006 2.94789 17.5264C3.42504 17.4522 3.91347 17.5178 4.35415 17.7152C4.79483 17.9126 5.16891 18.2334 5.43117 18.6389C5.69344 19.0444 5.83266 19.5171 5.83203 20Z" fill="#6FABE6"/>
<path d="M5.83284 20C5.84087 20.0664 5.84087 20.1336 5.83284 20.2C5.47292 20.5219 5.02747 20.7327 4.55032 20.8069C4.07317 20.8811 3.58474 20.8155 3.14406 20.6181C2.70338 20.4207 2.3293 20.0999 2.06704 19.6944C1.80477 19.2889 1.66554 18.8162 1.66618 18.3333C1.65815 18.2669 1.65815 18.1997 1.66618 18.1333C2.0261 17.8114 2.47155 17.6006 2.9487 17.5264C3.42585 17.4522 3.91428 17.5178 4.35496 17.7152C4.79565 17.9126 5.16972 18.2334 5.43199 18.6389C5.69425 19.0444 5.83348 19.5171 5.83284 20Z" fill="#82BCF4"/>
<path d="M36.6641 22.5C38.0448 22.5 39.1641 21.3807 39.1641 20C39.1641 18.6193 38.0448 17.5 36.6641 17.5C35.2834 17.5 34.1641 18.6193 34.1641 20C34.1641 21.3807 35.2834 22.5 36.6641 22.5Z" fill="#6FABE6"/>
<path d="M5.83203 36.6667C7.21274 36.6667 8.33203 35.5474 8.33203 34.1667C8.33203 32.786 7.21274 31.6667 5.83203 31.6667C4.45132 31.6667 3.33203 32.786 3.33203 34.1667C3.33203 35.5474 4.45132 36.6667 5.83203 36.6667Z" fill="#6FABE6"/>
<path d="M32.5 10C33.8807 10 35 8.88071 35 7.5C35 6.11929 33.8807 5 32.5 5C31.1193 5 30 6.11929 30 7.5C30 8.88071 31.1193 10 32.5 10Z" fill="#6FABE6"/>
<path d="M36.6667 33.3333C36.6679 33.9331 36.5073 34.522 36.2019 35.0381C35.8964 35.5542 35.4574 35.9783 34.9311 36.2658C34.4047 36.5532 33.8106 36.6934 33.2113 36.6714C32.612 36.6494 32.0297 36.4662 31.5258 36.141C31.0219 35.8158 30.6151 35.3607 30.3482 34.8236C30.0814 34.2865 29.9643 33.6874 30.0095 33.0894C30.0546 32.4914 30.2602 31.9166 30.6047 31.4257C30.9491 30.9348 31.4197 30.5459 31.9667 30.3C32.4738 30.0721 33.0298 29.9746 33.5842 30.0164C34.1386 30.0583 34.6737 30.2381 35.1409 30.5396C35.608 30.8411 35.9923 31.2546 36.2588 31.7426C36.5253 32.2305 36.6655 32.7774 36.6667 33.3333Z" fill="#6FABE6"/>
<path d="M36.3671 34.7C35.7514 34.9737 35.0672 35.0544 34.4047 34.9314C33.7422 34.8085 33.1325 34.4876 32.656 34.0111C32.1795 33.5347 31.8587 32.925 31.7357 32.2625C31.6127 31.6 31.6934 30.9157 31.9671 30.3C32.5828 30.0263 33.2671 29.9456 33.9296 30.0686C34.5921 30.1915 35.2018 30.5124 35.6782 30.9889C36.1547 31.4654 36.4756 32.075 36.5986 32.7375C36.7215 33.4001 36.6408 34.0843 36.3671 34.7Z" fill="#82BCF4"/>
<path d="M10.8333 6.66669C10.8336 7.40262 10.6389 8.12548 10.2692 8.76176C9.89941 9.39804 9.36772 9.92503 8.72818 10.2891C8.08865 10.6532 7.36409 10.8415 6.62819 10.8347C5.8923 10.8279 5.17134 10.6263 4.53864 10.2505C3.90593 9.8746 3.38406 9.33788 3.02611 8.69488C2.66815 8.05188 2.48688 7.32554 2.50074 6.58975C2.51459 5.85396 2.72308 5.13497 3.10498 4.5059C3.48689 3.87683 4.0286 3.36013 4.675 3.00836C5.3095 2.66307 6.02287 2.48867 6.74511 2.50226C7.46735 2.51586 8.17365 2.717 8.7947 3.08593C9.41575 3.45486 9.93021 3.97892 10.2876 4.60668C10.645 5.23443 10.8331 5.94433 10.8333 6.66669Z" fill="#6FABE6"/>
<path d="M10.323 8.65835C9.53334 9.08717 8.62619 9.24921 7.73688 9.1203C6.84757 8.99138 6.02377 8.57842 5.38836 7.94301C4.75295 7.3076 4.33999 6.4838 4.21108 5.59449C4.08216 4.70519 4.2442 3.79803 4.67302 3.00835C5.4627 2.57953 6.36986 2.41749 7.25917 2.5464C8.14847 2.67532 8.97227 3.08828 9.60768 3.72369C10.2431 4.3591 10.6561 5.1829 10.785 6.07221C10.9139 6.96151 10.7518 7.86867 10.323 8.65835Z" fill="#82BCF4"/>
<path d="M24.2654 21.3333C24.0737 21.4916 24.4737 21.3333 18.157 24.0083C17.9053 24.1166 17.6307 24.1611 17.3576 24.1379C17.0845 24.1148 16.8214 24.0246 16.5915 23.8755C16.3615 23.7263 16.172 23.5227 16.0395 23.2828C15.907 23.0429 15.8358 22.774 15.832 22.5V17.5C15.8318 17.2381 15.8932 16.9799 16.0113 16.7463C16.1294 16.5126 16.301 16.31 16.512 16.155C16.723 16 16.9676 15.8969 17.2259 15.854C17.4842 15.8112 17.7489 15.8298 17.9987 15.9083L23.932 18.45C24.2041 18.5647 24.4408 18.7496 24.618 18.9858C24.7951 19.222 24.9063 19.501 24.9402 19.7944C24.9742 20.0877 24.9295 20.3847 24.811 20.6551C24.6924 20.9255 24.5041 21.1596 24.2654 21.3333Z" fill="#DAD7E5"/>
<path d="M24.2674 21.3333C23.4215 21.5766 22.5355 21.6485 21.6614 21.5446C20.7873 21.4408 19.9427 21.1634 19.1773 20.7287C18.4119 20.294 17.7411 19.7107 17.2042 19.0132C16.6673 18.3156 16.2751 17.5178 16.0508 16.6667C16.2391 16.3351 16.5354 16.0781 16.8902 15.9386C17.2451 15.7991 17.6371 15.7854 18.0008 15.9L23.9341 18.4417C24.2081 18.5556 24.4466 18.7406 24.6251 18.9776C24.8037 19.2146 24.9157 19.4949 24.9497 19.7896C24.9837 20.0844 24.9383 20.3828 24.8184 20.6542C24.6985 20.9256 24.5083 21.16 24.2674 21.3333Z" fill="#EDEBF2"/>
<path d="M39.1649 20C39.1729 20.0664 39.1729 20.1336 39.1649 20.2C38.805 20.5219 38.3595 20.7327 37.8824 20.8069C37.4052 20.8811 36.9168 20.8155 36.4761 20.6181C36.0354 20.4207 35.6613 20.0999 35.3991 19.6944C35.1368 19.2889 34.9976 18.8162 34.9982 18.3333C34.9902 18.2669 34.9902 18.1997 34.9982 18.1333C35.3581 17.8114 35.8036 17.6006 36.2807 17.5264C36.7579 17.4522 37.2463 17.5178 37.687 17.7152C38.1277 17.9126 38.5018 18.2334 38.764 18.6389C39.0263 19.0444 39.1655 19.5171 39.1649 20Z" fill="#82BCF4"/>
<path d="M35.0008 7.49998C35.0088 7.56641 35.0088 7.63356 35.0008 7.69998C34.6409 8.02191 34.1954 8.23271 33.7183 8.30691C33.2411 8.38111 32.7527 8.31553 32.312 8.1181C31.8713 7.92068 31.4973 7.59985 31.235 7.19439C30.9727 6.78894 30.8335 6.3162 30.8341 5.83332C30.8261 5.76689 30.8261 5.69974 30.8341 5.63332C31.1941 5.31139 31.6395 5.10059 32.1167 5.0264C32.5938 4.9522 33.0822 5.01777 33.5229 5.2152C33.9636 5.41262 34.3377 5.73345 34.6 6.13891C34.8622 6.54436 35.0014 7.0171 35.0008 7.49998Z" fill="#82BCF4"/>
<path d="M8.33284 34.1667C8.34087 34.2331 8.34087 34.3002 8.33284 34.3667C7.97292 34.6886 7.52747 34.8994 7.05032 34.9736C6.57317 35.0478 6.08474 34.9822 5.64406 34.7848C5.20338 34.5874 4.8293 34.2665 4.56704 33.8611C4.30477 33.4556 4.16554 32.9829 4.16618 32.5C4.15815 32.4336 4.15815 32.3664 4.16618 32.3C4.5261 31.9781 4.97155 31.7673 5.4487 31.6931C5.92585 31.6189 6.41428 31.6845 6.85496 31.8819C7.29565 32.0793 7.66972 32.4001 7.93199 32.8056C8.19425 33.2111 8.33348 33.6838 8.33284 34.1667Z" fill="#82BCF4"/>
<path d="M30.8324 20.8333H33.4908C33.6936 21.6189 34.176 22.3035 34.8474 22.7588C35.5189 23.2142 36.3334 23.409 37.1383 23.3068C37.9431 23.2045 38.683 22.8123 39.2194 22.2035C39.7557 21.5948 40.0516 20.8113 40.0516 20C40.0516 19.1887 39.7557 18.4052 39.2194 17.7965C38.683 17.1877 37.9431 16.7955 37.1383 16.6932C36.3334 16.591 35.5189 16.7858 34.8474 17.2412C34.176 17.6965 33.6936 18.3811 33.4908 19.1667H30.8324C30.654 16.8766 29.7523 14.7025 28.2574 12.9583L30.8324 10.3583C31.5318 10.7679 32.3564 10.9087 33.1521 10.7543C33.9477 10.5999 34.6598 10.1609 35.1552 9.51947C35.6506 8.87802 35.8954 8.07804 35.8436 7.26921C35.7919 6.46038 35.4472 5.69811 34.8741 5.12501C34.301 4.55191 33.5387 4.20725 32.7299 4.1555C31.9211 4.10375 31.1211 4.34847 30.4796 4.84386C29.8382 5.33926 29.3992 6.05139 29.2448 6.84703C29.0904 7.64267 29.2312 8.46731 29.6408 9.16667L27.0408 11.7667C25.2945 10.2779 23.1206 9.38206 20.8324 9.20834V4.85C21.3884 4.65342 21.8571 4.26661 22.1555 3.75794C22.4539 3.24926 22.5628 2.65147 22.4631 2.07023C22.3634 1.48898 22.0614 0.961701 21.6105 0.581583C21.1596 0.201464 20.5888 -0.00701904 19.9991 -0.00701904C19.4094 -0.00701904 18.8386 0.201464 18.3877 0.581583C17.9368 0.961701 17.6348 1.48898 17.5351 2.07023C17.4354 2.65147 17.5443 3.24926 17.8427 3.75794C18.1411 4.26661 18.6098 4.65342 19.1658 4.85V9.20834C16.8757 9.38677 14.7015 10.2885 12.9574 11.7833L10.7408 9.55834C11.4662 8.53623 11.7814 7.27892 11.6237 6.03547C11.4661 4.79203 10.8472 3.65314 9.88959 2.8444C8.93201 2.03566 7.70561 1.61607 6.45331 1.66875C5.20102 1.72142 4.01418 2.24251 3.12789 3.12879C2.2416 4.01508 1.72051 5.20192 1.66784 6.45422C1.61517 7.70651 2.03476 8.93291 2.8435 9.89049C3.65223 10.8481 4.79112 11.467 6.03457 11.6246C7.27802 11.7823 8.53533 11.4671 9.55744 10.7417L11.7824 12.9583C10.2876 14.7025 9.38587 16.8766 9.20743 19.1667H6.5491C6.34627 18.3811 5.86391 17.6965 5.19243 17.2412C4.52095 16.7858 3.70645 16.591 2.9016 16.6932C2.09676 16.7955 1.35682 17.1877 0.820499 17.7965C0.284175 18.4052 -0.0117187 19.1887 -0.0117188 20C-0.0117187 20.8113 0.284175 21.5948 0.820499 22.2035C1.35682 22.8123 2.09676 23.2045 2.9016 23.3068C3.70645 23.409 4.52095 23.2142 5.19243 22.7588C5.86391 22.3035 6.34627 21.6189 6.5491 20.8333H9.20743C9.38587 23.1234 10.2876 25.2976 11.7824 27.0417L7.4991 31.3083C6.79974 30.8987 5.9751 30.758 5.17946 30.9123C4.38382 31.0667 3.67169 31.5057 3.17629 32.1472C2.6809 32.7887 2.43619 33.5886 2.48793 34.3975C2.53968 35.2063 2.88434 35.9686 3.45744 36.5417C4.03054 37.1148 4.79281 37.4594 5.60164 37.5112C6.41047 37.5629 7.21045 37.3182 7.85191 36.8228C8.49336 36.3274 8.93236 35.6153 9.08676 34.8196C9.24115 34.024 9.10038 33.1994 8.69077 32.5L12.9574 28.2333C14.6983 29.7372 16.8728 30.6478 19.1658 30.8333V35.1917C18.6098 35.3883 18.1411 35.7751 17.8427 36.2837C17.5443 36.7924 17.4354 37.3902 17.5351 37.9715C17.6348 38.5527 17.9368 39.08 18.3877 39.4601C18.8386 39.8402 19.4094 40.0487 19.9991 40.0487C20.5888 40.0487 21.1596 39.8402 21.6105 39.4601C22.0614 39.08 22.3634 38.5527 22.4631 37.9715C22.5628 37.3902 22.4539 36.7924 22.1555 36.2837C21.8571 35.7751 21.3884 35.3883 20.8324 35.1917V30.8333C23.1225 30.6549 25.2967 29.7532 27.0408 28.2583L29.8574 31.0833C29.289 31.945 29.0606 32.9869 29.2165 34.0074C29.3724 35.0278 29.9016 35.954 30.7015 36.6065C31.5013 37.259 32.5149 37.5914 33.5459 37.5393C34.5768 37.4871 35.5517 37.0541 36.2816 36.3242C37.0116 35.5943 37.4445 34.6194 37.4967 33.5885C37.5489 32.5575 37.2165 31.5439 36.5639 30.744C35.9114 29.9442 34.9852 29.415 33.9648 29.2591C32.9444 29.1031 31.9024 29.3315 31.0408 29.9L28.2158 27.0833C29.7338 25.3334 30.6509 23.1429 30.8324 20.8333ZM36.6658 18.3333C36.9954 18.3333 37.3176 18.4311 37.5917 18.6142C37.8658 18.7974 38.0794 19.0577 38.2056 19.3622C38.3317 19.6667 38.3647 20.0019 38.3004 20.3252C38.2361 20.6485 38.0774 20.9454 37.8443 21.1785C37.6112 21.4116 37.3142 21.5703 36.9909 21.6346C36.6676 21.699 36.3325 21.6659 36.028 21.5398C35.7234 21.4137 35.4631 21.2 35.28 20.926C35.0969 20.6519 34.9991 20.3296 34.9991 20C34.9991 19.558 35.1747 19.1341 35.4873 18.8215C35.7998 18.5089 36.2237 18.3333 36.6658 18.3333ZM32.4991 5.83334C32.8287 5.83334 33.151 5.93109 33.4251 6.11422C33.6991 6.29736 33.9128 6.55765 34.0389 6.8622C34.1651 7.16674 34.1981 7.50185 34.1337 7.82515C34.0694 8.14846 33.9107 8.44543 33.6776 8.67851C33.4445 8.9116 33.1476 9.07034 32.8243 9.13465C32.501 9.19895 32.1658 9.16595 31.8613 9.0398C31.5568 8.91366 31.2965 8.70004 31.1133 8.42595C30.9302 8.15187 30.8324 7.82964 30.8324 7.5C30.8324 7.05798 31.008 6.63405 31.3206 6.32149C31.6332 6.00893 32.0571 5.83334 32.4991 5.83334ZM19.9991 1.66667C20.2201 1.66667 20.4321 1.75447 20.5884 1.91075C20.7446 2.06703 20.8324 2.27899 20.8324 2.5C20.8324 2.72102 20.7446 2.93298 20.5884 3.08926C20.4321 3.24554 20.2201 3.33334 19.9991 3.33334C19.7781 3.33334 19.5661 3.24554 19.4098 3.08926C19.2536 2.93298 19.1658 2.72102 19.1658 2.5C19.1658 2.27899 19.2536 2.06703 19.4098 1.91075C19.5661 1.75447 19.7781 1.66667 19.9991 1.66667ZM3.33243 6.66667C3.33243 6.0074 3.52793 5.36293 3.8942 4.81477C4.26047 4.26661 4.78107 3.83936 5.39016 3.58707C5.99924 3.33478 6.66947 3.26877 7.31607 3.39739C7.96267 3.526 8.55662 3.84347 9.02279 4.30965C9.48897 4.77582 9.80643 5.36977 9.93505 6.01637C10.0637 6.66297 9.99766 7.33319 9.74537 7.94228C9.49307 8.55137 9.06583 9.07196 8.51767 9.43824C7.9695 9.80451 7.32504 10 6.66577 10C5.78171 10 4.93387 9.64881 4.30874 9.02369C3.68362 8.39857 3.33243 7.55072 3.33243 6.66667ZM3.33243 21.6667C2.89041 21.6667 2.46648 21.4911 2.15392 21.1785C1.84136 20.866 1.66577 20.442 1.66577 20C1.66577 19.558 1.84136 19.1341 2.15392 18.8215C2.46648 18.5089 2.89041 18.3333 3.33243 18.3333C3.77446 18.3333 4.19838 18.5089 4.51095 18.8215C4.82351 19.1341 4.9991 19.558 4.9991 20C4.9991 20.442 4.82351 20.866 4.51095 21.1785C4.19838 21.4911 3.77446 21.6667 3.33243 21.6667ZM19.9991 10.8333C21.8121 10.8333 23.5844 11.371 25.0918 12.3782C26.5993 13.3854 27.7742 14.8171 28.468 16.4921C29.1618 18.1671 29.3433 20.0102 28.9896 21.7883C28.6359 23.5665 27.7629 25.1998 26.4809 26.4818C25.1989 27.7638 23.5656 28.6368 21.7874 28.9905C20.0093 29.3442 18.1662 29.1627 16.4912 28.4689C14.8162 27.7751 13.3845 26.6002 12.3773 25.0927C11.3701 23.5853 10.8324 21.813 10.8324 20C10.8324 17.5689 11.7982 15.2373 13.5173 13.5182C15.2364 11.7991 17.568 10.8333 19.9991 10.8333ZM5.83243 35.8333C5.5028 35.8333 5.18057 35.7356 4.90648 35.5525C4.6324 35.3693 4.41878 35.109 4.29263 34.8045C4.16649 34.4999 4.13348 34.1648 4.19779 33.8415C4.2621 33.5182 4.42084 33.2212 4.65392 32.9882C4.88701 32.7551 5.18398 32.5963 5.50728 32.532C5.83059 32.4677 6.1657 32.5007 6.47024 32.6269C6.77478 32.753 7.03508 32.9666 7.21822 33.2407C7.40135 33.5148 7.4991 33.837 7.4991 34.1667C7.4991 34.6087 7.32351 35.0326 7.01095 35.3452C6.69838 35.6577 6.27446 35.8333 5.83243 35.8333ZM19.9991 38.3333C19.7781 38.3333 19.5661 38.2455 19.4098 38.0893C19.2536 37.933 19.1658 37.721 19.1658 37.5C19.1658 37.279 19.2536 37.067 19.4098 36.9107C19.5661 36.7545 19.7781 36.6667 19.9991 36.6667C20.2201 36.6667 20.4321 36.7545 20.5884 36.9107C20.7446 37.067 20.8324 37.279 20.8324 37.5C20.8324 37.721 20.7446 37.933 20.5884 38.0893C20.4321 38.2455 20.2201 38.3333 19.9991 38.3333ZM35.8324 33.3333C35.8324 33.8278 35.6858 34.3111 35.4111 34.7223C35.1364 35.1334 34.746 35.4538 34.2891 35.643C33.8323 35.8323 33.3297 35.8818 32.8447 35.7853C32.3598 35.6888 31.9143 35.4507 31.5647 35.1011C31.215 34.7515 30.9769 34.306 30.8805 33.8211C30.784 33.3361 30.8335 32.8334 31.0227 32.3766C31.212 31.9198 31.5324 31.5294 31.9435 31.2547C32.3546 30.98 32.838 30.8333 33.3324 30.8333C33.9955 30.8333 34.6314 31.0967 35.1002 31.5656C35.569 32.0344 35.8324 32.6703 35.8324 33.3333Z" fill="black"/>
<path d="M18.4836 24.7666L24.2502 22.2666C24.7012 22.0745 25.0858 21.7541 25.3561 21.3451C25.6263 20.9362 25.7704 20.4568 25.7704 19.9666C25.7704 19.4765 25.6263 18.9971 25.3561 18.5881C25.0858 18.1792 24.7012 17.8588 24.2502 17.6666L18.4836 15.1666C18.1006 15.0028 17.6828 14.9372 17.268 14.9758C16.8533 15.0145 16.4547 15.1561 16.1087 15.388C15.7626 15.6198 15.4799 15.9344 15.2863 16.3033C15.0928 16.6721 14.9944 17.0835 15.0002 17.5V22.5C15.0055 22.9108 15.1119 23.3141 15.3101 23.674C15.5083 24.034 15.7921 24.3395 16.1365 24.5637C16.4809 24.7878 16.8753 24.9235 17.2846 24.9589C17.694 24.9943 18.1058 24.9283 18.4836 24.7666ZM16.6669 17.5C16.6669 17.279 16.7547 17.067 16.911 16.9107C17.0673 16.7544 17.2792 16.6666 17.5002 16.6666C17.7419 16.6666 17.3086 16.5166 23.6002 19.1666C23.7506 19.2307 23.8788 19.3375 23.9688 19.4738C24.0589 19.6101 24.107 19.7699 24.107 19.9333C24.107 20.0967 24.0589 20.2565 23.9688 20.3928C23.8788 20.5291 23.7506 20.6359 23.6002 20.7C17.4002 23.3583 17.5502 23.4416 17.0419 23.1C16.5336 22.7583 16.6669 22.925 16.6669 17.5Z" fill="black"/>
</g>
<defs>
<clipPath id="clip0_4595_3371">
<rect width="40" height="40" fill="white"/>
</clipPath>
</defs>
</svg>
