<svg width="332" height="400" viewBox="0 0 332 400" fill="none" xmlns="http://www.w3.org/2000/svg">
<path d="M292.489 125.151H286.715V387.635H292.489V125.151Z" fill="#706865"/>
<path d="M158.755 125.151H152.98V387.635H158.755V125.151Z" fill="#706865"/>
<path d="M300.405 344.313H145.059C135.487 344.313 127.727 336.552 127.727 326.98V32.8267C127.727 23.2542 135.487 15.4938 145.059 15.4938H300.405C309.978 15.4938 317.738 23.2542 317.738 32.8267V326.98C317.738 336.552 309.978 344.313 300.405 344.313Z" fill="#BDAFAA"/>
<path d="M295.399 331.465H150.067C140.609 331.465 132.941 323.797 132.941 314.339V37.9145C132.941 28.456 140.609 20.7885 150.067 20.7885H295.399C304.858 20.7885 312.525 28.456 312.525 37.9145V314.339C312.525 323.797 304.858 331.465 295.399 331.465Z" fill="white"/>
<path d="M251.043 13.0006H194.422V25.7865H251.043V13.0006Z" fill="#706865"/>
<path d="M152.587 120.056H169.782C172.909 120.056 175.443 117.521 175.443 114.394V97.1999C175.443 94.0729 172.909 91.5381 169.782 91.5381H152.587C149.46 91.5381 146.926 94.0729 146.926 97.1999V114.394C146.926 117.521 149.46 120.056 152.587 120.056Z" fill="#73B6F0"/>
<path opacity="0.72" d="M281.841 62.6248H189.054C187.428 62.6248 186.109 61.3064 186.109 59.6804V56.7123C186.109 55.0863 187.428 53.7678 189.054 53.7678H281.841C283.467 53.7678 284.786 55.0863 284.786 56.7123V59.6804C284.786 61.3064 283.467 62.6248 281.841 62.6248Z" fill="#D9D9D9"/>
<path opacity="0.72" d="M295.598 76.9442H189.054C187.428 76.9442 186.109 75.6257 186.109 73.9997V71.0317C186.109 69.4053 187.428 68.0872 189.054 68.0872H295.598C297.225 68.0872 298.543 69.4053 298.543 71.0317V73.9997C298.543 75.6257 297.225 76.9442 295.598 76.9442Z" fill="#D9D9D9"/>
<path d="M152.587 79.615H169.782C172.909 79.615 175.443 77.0802 175.443 73.9535V56.7587C175.443 53.632 172.909 51.0972 169.782 51.0972H152.587C149.46 51.0972 146.926 53.632 146.926 56.7587V73.9535C146.926 77.0802 149.46 79.615 152.587 79.615Z" fill="#EB4646"/>
<path opacity="0.72" d="M257.723 103.066H188.662C187.252 103.066 186.109 101.923 186.109 100.513V96.7619C186.109 95.3523 187.252 94.2092 188.662 94.2092H257.723C259.133 94.2092 260.276 95.3523 260.276 96.7619V100.513C260.276 101.923 259.133 103.066 257.723 103.066Z" fill="#D9D9D9"/>
<path opacity="0.72" d="M274.681 117.385H188.761C187.297 117.385 186.109 116.198 186.109 114.733V111.18C186.109 109.716 187.297 108.528 188.761 108.528H274.681C276.146 108.528 277.334 109.716 277.334 111.18V114.733C277.334 116.198 276.146 117.385 274.681 117.385Z" fill="#D9D9D9"/>
<path opacity="0.72" d="M290.641 143.507H189.184C187.486 143.507 186.109 142.13 186.109 140.432V137.725C186.109 136.027 187.486 134.65 189.184 134.65H290.641C292.339 134.65 293.716 136.027 293.716 137.725V140.432C293.716 142.13 292.34 143.507 290.641 143.507Z" fill="#D9D9D9"/>
<path opacity="0.72" d="M282.027 157.827H188.868C187.344 157.827 186.109 156.591 186.109 155.068V151.728C186.109 150.205 187.344 148.969 188.868 148.969H282.027C283.55 148.969 284.786 150.204 284.786 151.728V155.068C284.786 156.591 283.55 157.827 282.027 157.827Z" fill="#D9D9D9"/>
<path d="M152.587 160.497H169.782C172.909 160.497 175.443 157.962 175.443 154.835V137.641C175.443 134.514 172.909 131.979 169.782 131.979H152.587C149.46 131.979 146.926 134.514 146.926 137.641V154.835C146.926 157.963 149.46 160.497 152.587 160.497Z" fill="#73B6F0"/>
<path d="M152.587 243.43H169.782C172.909 243.43 175.443 240.895 175.443 237.768V220.574C175.443 217.447 172.909 214.912 169.782 214.912H152.587C149.46 214.912 146.926 217.447 146.926 220.574V237.768C146.926 240.895 149.46 243.43 152.587 243.43Z" fill="#73B6F0"/>
<path opacity="0.72" d="M281.841 185.998H189.054C187.428 185.998 186.109 184.68 186.109 183.054V180.086C186.109 178.46 187.428 177.142 189.054 177.142H281.841C283.467 177.142 284.786 178.46 284.786 180.086V183.054C284.786 184.68 283.467 185.998 281.841 185.998Z" fill="#D9D9D9"/>
<path opacity="0.72" d="M295.598 200.318H189.054C187.428 200.318 186.109 199 186.109 197.373V194.405C186.109 192.779 187.428 191.461 189.054 191.461H295.598C297.225 191.461 298.543 192.779 298.543 194.405V197.373C298.543 199 297.225 200.318 295.598 200.318Z" fill="#D9D9D9"/>
<path d="M152.587 202.989H169.782C172.909 202.989 175.443 200.454 175.443 197.327V180.132C175.443 177.006 172.909 174.471 169.782 174.471H152.587C149.46 174.471 146.926 177.006 146.926 180.132V197.327C146.926 200.454 149.46 202.989 152.587 202.989Z" fill="#73B6F0"/>
<path opacity="0.72" d="M257.723 226.44H188.662C187.252 226.44 186.109 225.297 186.109 223.887V220.136C186.109 218.726 187.252 217.583 188.662 217.583H257.723C259.133 217.583 260.276 218.726 260.276 220.136V223.887C260.276 225.297 259.133 226.44 257.723 226.44Z" fill="#D9D9D9"/>
<path opacity="0.72" d="M274.681 240.759H188.761C187.297 240.759 186.109 239.572 186.109 238.107V234.554C186.109 233.089 187.297 231.902 188.761 231.902H274.681C276.146 231.902 277.334 233.089 277.334 234.554V238.107C277.334 239.572 276.146 240.759 274.681 240.759Z" fill="#D9D9D9"/>
<path opacity="0.72" d="M290.641 266.881H189.184C187.486 266.881 186.109 265.504 186.109 263.806V261.099C186.109 259.401 187.486 258.024 189.184 258.024H290.641C292.339 258.024 293.716 259.401 293.716 261.099V263.806C293.716 265.504 292.34 266.881 290.641 266.881Z" fill="#D9D9D9"/>
<path opacity="0.72" d="M282.027 281.2H188.868C187.344 281.2 186.109 279.965 186.109 278.442V275.102C186.109 273.578 187.344 272.343 188.868 272.343H282.027C283.55 272.343 284.786 273.578 284.786 275.102V278.442C284.786 279.965 283.55 281.2 282.027 281.2Z" fill="#D9D9D9"/>
<path d="M152.587 283.871H169.782C172.909 283.871 175.443 281.336 175.443 278.209V261.015C175.443 257.888 172.909 255.353 169.782 255.353H152.587C149.46 255.353 146.926 257.888 146.926 261.015V278.209C146.926 281.336 149.46 283.871 152.587 283.871Z" fill="#73B6F0"/>
<path d="M331.316 62.6251H329.513V1.80291H299.254V0H331.316V62.6251Z" fill="#BDAFAA"/>
<path d="M162.026 190.121C162.026 190.121 164.362 195.449 166.599 194.781C168.836 194.113 172.158 194.309 173.199 194.424C174.592 194.577 179.126 193.513 178.859 195.208C178.592 196.902 171.457 197.302 169.964 197.672C168.471 198.041 173.836 201.834 174.21 203.293C174.584 204.752 167.095 213.204 163.748 210.179C160.401 207.153 159.016 201.71 158.312 201.295C157.608 200.879 154.535 196.543 154.535 196.543L162.026 190.121Z" fill="#EEA886"/>
<path d="M173.609 202.403C173.609 202.403 183.181 212.346 183.214 213.547C183.246 214.747 182.628 215.237 181.691 214.345C180.754 213.453 172.14 205.007 172.14 205.007C172.14 205.007 181.312 218.693 181.563 219.66C181.711 220.227 180.57 221.242 180.019 220.811C179.469 220.38 169.543 207.349 169.543 207.349C169.543 207.349 178.082 220.144 178.037 221.025C177.998 221.795 176.719 222.486 176.015 221.582C175.312 220.678 166.664 209.263 166.664 209.263C166.664 209.263 172.248 218.977 171.752 219.722C171.449 220.177 170.503 221.096 169.146 218.542C167.788 215.989 163.91 210.317 163.91 210.317L173.609 202.403Z" fill="#EEA886"/>
<path d="M0 25.7865H47.7534V60.3988V67.689L40.4632 60.3988H0V25.7865Z" fill="#FFC655"/>
<path d="M42.031 378.595C42.031 378.595 38.3617 381.214 36.3286 383.049C34.2956 384.883 31.5297 386.879 29.8358 391.561C28.1216 396.299 30.8225 399.703 35.4107 399.984C39.9982 400.264 47.0297 396.801 47.7148 392.6C48.3931 388.441 53.7822 388.931 54.4846 385.971C55.1873 383.012 54.2482 379.371 54.2482 379.371L42.031 378.595Z" fill="#C4C6D1"/>
<path d="M42.6383 375.155L42.0273 378.595C42.0273 378.595 43.9169 382.092 54.2445 379.371L53.7122 375.982L42.6383 375.155Z" fill="#EEA886"/>
<path d="M54.2445 379.371C54.2445 379.371 51.9182 379.677 50.2612 379.937C48.6042 380.198 45.322 378.081 42.0273 378.595L43.0409 382.778C43.0409 382.778 54.0138 380.723 54.2445 379.371Z" fill="#C4C6D1"/>
<path d="M107.937 378.595C107.937 378.595 111.607 381.214 113.64 383.049C115.673 384.883 118.439 386.879 120.133 391.561C121.847 396.299 119.145 399.703 114.558 399.984C109.97 400.264 102.939 396.801 102.253 392.6C101.575 388.441 96.1861 388.931 95.4834 385.971C94.781 383.012 95.7201 379.371 95.7201 379.371L107.937 378.595Z" fill="#C4C6D1"/>
<path d="M107.325 375.155L107.936 378.595C107.936 378.595 106.046 382.092 95.7188 379.371L96.2511 375.982L107.325 375.155Z" fill="#EEA886"/>
<path d="M111.73 294.973C111.73 302.533 108.738 374.429 108.738 374.429C107.982 376.949 97.7431 376.818 95.2232 375.558C92.7033 374.298 93.144 303.572 92.6786 295.951C92.2132 288.327 86.0869 232.249 83.8778 232.501C81.6688 232.752 69.177 285.579 67.4131 291.375C65.6489 297.171 55.4815 375.516 55.4815 375.516C46.8644 378.514 41.2773 375.516 41.2773 375.516C41.2773 375.516 44.5717 296.535 44.5747 287.157C44.5759 283.677 45.6025 281.043 46.5884 262.538C47.3396 248.433 51.265 219.529 53.8924 199.642C53.9864 198.935 54.0755 198.255 54.1627 197.604C54.6769 193.734 55.0631 190.89 55.2483 189.525C55.329 188.935 55.3725 188.622 55.3725 188.622C56.0797 188.295 56.8205 187.995 57.5917 187.718C76.0471 181.087 111.643 188.106 111.643 188.106C111.643 188.106 111.663 188.281 111.704 188.61C111.751 189.01 111.825 189.636 111.921 190.448C112.126 192.202 112.431 194.812 112.782 197.843C112.784 197.864 112.788 197.886 112.789 197.909C112.799 197.999 112.811 198.093 112.821 198.186C114.062 208.971 114.678 214.895 115.653 226.405C115.867 228.928 111.73 287.413 111.73 294.973Z" fill="#292C47"/>
<path d="M95.0411 86.4714C95.0411 86.4714 125.266 92.8884 127.786 101.288C130.306 109.688 135.198 129.415 142.004 150.871C146.076 163.706 166.764 192.94 166.764 192.94C166.764 192.94 154.927 201.665 154.927 200.489C154.927 199.313 127.05 162.114 126.714 157.578C126.378 153.043 117.93 129.847 117.93 129.847C117.93 129.847 113.929 174.443 113.929 181.33C113.929 188.218 114.383 202.166 114.383 202.166C114.383 202.166 103.184 206.457 81.4358 205.323C81.4358 205.323 46.8223 204.134 52.7301 193.584C57.1973 185.607 54.4594 131.941 53.7874 131.605C53.1154 131.269 41.0485 146.383 42.2247 149.292C43.4005 152.202 74.6294 162.638 74.6294 162.638C74.6294 162.638 75.5426 166.001 70.6907 173.621C70.6907 173.621 24.0443 159.991 23.8761 157.134C23.7081 154.279 43.2781 98.8158 49.6691 95.9127C58.8707 91.7328 82.932 85.161 82.932 85.161L95.0411 86.4714Z" fill="#D44040"/>
<path d="M95.7188 379.371C95.7188 379.371 98.0451 379.677 99.7021 379.937C101.359 380.198 104.641 378.081 107.936 378.595L106.922 382.778C106.922 382.778 95.9492 380.723 95.7188 379.371Z" fill="#C4C6D1"/>
<path d="M94.5533 75.9595C94.5533 75.9595 93.3078 82.7844 95.4502 87.446C95.4502 87.446 97.6306 98.3093 86.5095 98.7965C75.3883 99.2836 75.1328 89.3189 75.1328 89.3189C75.1328 89.3189 77.7936 85.7467 76.0177 76.0265C74.2413 66.306 94.5533 75.9595 94.5533 75.9595Z" fill="#EEA886"/>
<path d="M87.7905 36.4875C87.7905 36.4875 102.021 38.7832 99.8544 61.5839C97.6876 84.3848 85.1277 82.5158 84.2883 82.4928C83.449 82.4699 71.6799 82.9085 70.7625 55.0702C70.7625 55.0702 70.3617 34.4848 87.7905 36.4875Z" fill="#EEA886"/>
<path d="M100.073 55.1434C100.073 55.1434 101.631 53.4387 102.203 55.1645C102.775 56.89 100.173 64.3223 99.9808 64.9464C99.9808 64.9464 99.6961 65.6157 99.3221 65.2474C98.9485 64.8788 100.073 55.1434 100.073 55.1434Z" fill="#EEA886"/>
<path d="M71.11 54.8552C71.11 54.8552 69.5839 53.1199 68.9801 54.8341C68.3763 56.5482 70.8938 64.3667 71.0173 64.6579C71.0173 64.6579 71.2892 65.3329 71.67 64.9717C72.0509 64.6109 71.11 54.8552 71.11 54.8552Z" fill="#EEA886"/>
<path d="M100.068 58.6405L98.0304 61.4296C98.0304 61.4296 98.0878 55.3149 97.7612 54.3561C97.4343 53.397 98.1474 50.058 97.8741 49.3675C97.6007 48.677 88.141 51.2472 72.6265 49.6667C72.6265 49.6667 74.352 55.1755 73.3405 55.5668C72.329 55.9583 72.8248 62.7281 72.8248 62.7281L71.1496 60.7927C71.1496 60.7927 69.2583 49.2273 69.4423 47.2966C69.687 44.7273 68.8155 32.7274 90.6464 34.787C93.1454 35.0228 95.5453 35.9393 97.5415 37.4972C99.7845 39.2483 102.091 41.9811 101.88 45.7346C101.601 50.6967 100.068 58.6405 100.068 58.6405Z" fill="#434343"/>
<path d="M77.8047 79.4718C77.8047 79.4718 83.6758 86.3267 92.9959 79.4718C92.9959 79.4718 90.3834 84.6718 84.9038 84.7936C79.4242 84.9157 77.8047 79.4718 77.8047 79.4718Z" fill="#A77860"/>
<path d="M94.9085 125.95L50.9375 113.184L31.7133 179.4L75.6843 192.166L94.9085 125.95Z" fill="#6E6760"/>
<path d="M82.8242 162.166C82.8242 162.166 85.6946 162.086 86.5739 161.96C87.4528 161.832 86.8722 163.702 85.8518 164.054C84.8314 164.407 82.8242 162.166 82.8242 162.166Z" fill="#C98462"/>
<path d="M84.5008 175.875C84.5008 175.875 83.2475 176.179 82.6348 176.045C82.6348 176.045 81.5381 175.715 80.7449 175.527C80.4927 175.469 80.2718 175.423 80.1262 175.409C79.5173 175.348 78.1628 175.397 76.7416 174.841C75.3216 174.285 70.5039 171.815 70.5039 171.815L71.8816 167.336L72.9196 163.787C72.9196 163.787 81.0626 161.62 82.4457 161.985C82.5809 162.021 82.7128 162.062 82.8337 162.11C83.975 162.532 84.6467 163.326 85.2205 163.616C85.4304 163.724 87.4465 164.935 87.5516 165.63C87.6987 166.594 87.409 167.323 86.9126 167.77C86.9126 167.77 87.1175 169.671 86.4124 170.748C86.4124 170.748 86.6574 172.496 85.3994 173.586C85.3997 173.585 85.4497 175.386 84.5008 175.875Z" fill="#EEA886"/>
<path d="M74.6307 162.638C74.6307 162.638 75.0398 168.356 70.692 173.621C70.692 173.621 36.4376 162.933 32.358 161.328C28.2779 159.724 47.1827 109.489 47.1827 109.489L61.0917 114.223L53.6192 128.355C53.6192 128.355 49.9199 136.271 42.2256 149.292C42.2256 149.292 46.9605 153.789 74.6307 162.638Z" fill="#D44040"/>
<path d="M67.5263 150.032C67.5263 153.791 64.9423 156.838 61.7555 156.838C58.5683 156.838 55.9844 153.791 55.9844 150.032C55.9844 146.273 58.5683 143.225 61.7555 143.225C64.9426 143.225 67.5263 146.273 67.5263 150.032Z" fill="#807066"/>
<path d="M98.7484 94.3956L95.5868 84.4351C95.5868 84.4351 90.5006 86.801 75.7584 85.1607L72.4102 94.6918C72.4102 94.6918 85.0615 105.715 98.7484 94.3956Z" fill="#D44040"/>
</svg>
