<svg width="40" height="40" viewBox="0 0 40 40" fill="none" xmlns="http://www.w3.org/2000/svg">
<g clip-path="url(#clip0_4595_3443)">
<path d="M31.439 12.2696L31.8424 11.0255C32.2221 9.85097 31.6933 8.57378 30.5941 8.01277L29.4297 7.41785L28.8348 6.25345C28.2729 5.15346 26.9967 4.62465 25.8221 5.00516L24.578 5.4077L23.334 5.00516C22.1594 4.62465 20.8832 5.15346 20.3213 6.25345L19.7264 7.41785L18.562 8.01277C17.4628 8.57378 16.934 9.85089 17.3137 11.0255L17.7171 12.2696L17.3137 13.5137C16.934 14.6874 17.4628 15.9645 18.562 16.5264L19.7264 17.1214L20.3213 18.2857C20.8832 19.3849 22.1594 19.9137 23.334 19.5332L24.578 19.1307L25.8221 19.5332C26.9967 19.9137 28.2729 19.3849 28.8348 18.2857L29.4297 17.1214L30.5941 16.5264C31.6933 15.9645 32.2221 14.6874 31.8424 13.5137L31.439 12.2696Z" fill="#FF6D7A"/>
<path d="M28.8348 6.25342C28.9867 6.55062 28.7325 6.89299 28.404 6.83435C26.7219 6.53435 25.3686 6.3624 24.5586 7.94832L24.1009 8.84399C24.0117 9.01865 23.8696 9.16077 23.6949 9.25001L22.7992 9.70763C21.7001 10.2686 21.1713 11.5458 21.5509 12.7203L21.8611 13.6769C21.9217 13.8638 21.9217 14.0651 21.8611 14.252L21.5509 15.2085C21.0945 16.6195 21.9865 17.9994 23.4139 18.8621C23.6859 19.0265 23.6364 19.4353 23.334 19.5331C22.1592 19.9132 20.8832 19.3848 20.3213 18.2855L19.7264 17.1212L18.562 16.5262C17.4628 15.9644 16.934 14.6873 17.3137 13.5135L17.7171 12.2695L17.3137 11.0253C16.934 9.85085 17.4628 8.57366 18.562 8.01264L19.7264 7.41773L20.3213 6.25333C20.8832 5.15334 22.1594 4.62453 23.334 5.00504L24.578 5.40758L25.8221 5.00504C26.9967 4.62461 28.2729 5.15351 28.8348 6.25342Z" fill="#FF8C95"/>
<path d="M26.3568 15.5932C26.9184 15.5932 27.3737 15.1379 27.3737 14.5763C27.3737 14.0146 26.9184 13.5593 26.3568 13.5593C25.7951 13.5593 25.3398 14.0146 25.3398 14.5763C25.3398 15.1379 25.7951 15.5932 26.3568 15.5932Z" fill="#E84857"/>
<path d="M26.5938 9.79661C26.2942 9.57195 25.8693 9.63255 25.6446 9.93229L22.5938 14.0001C22.2555 14.4511 22.5858 15.0848 23.1357 15.0848C23.3418 15.0848 23.5454 14.9912 23.6785 14.8136L26.7294 10.7458C26.954 10.4463 26.8934 10.0213 26.5938 9.79661Z" fill="#E84857"/>
<path d="M22.7982 11.017C23.3598 11.017 23.8151 10.5617 23.8151 10C23.8151 9.43839 23.3598 8.98309 22.7982 8.98309C22.2366 8.98309 21.7812 9.43839 21.7812 10C21.7812 10.5617 22.2366 11.017 22.7982 11.017Z" fill="#E84857"/>
<path d="M31.1043 23.2203C30.5678 23.2203 30.2337 22.6123 30.5464 22.158C31.9508 20.1173 34.6989 19.7636 36.5842 21.2231C36.8803 21.4523 36.9345 21.8781 36.7053 22.1742C36.4762 22.4704 36.0503 22.5247 35.7542 22.2954C34.4889 21.3162 32.6293 21.5234 31.6633 22.9267C31.5319 23.1177 31.32 23.2203 31.1043 23.2203Z" fill="#FFF0A6"/>
<path d="M32.3735 18.8135C31.7373 18.8135 31.4534 18.0123 31.9437 17.611C33.7528 16.1301 35.964 15.0896 38.3384 14.602C38.7049 14.5263 39.0636 14.7629 39.1389 15.1297C39.2143 15.4965 38.978 15.8549 38.6112 15.9301C36.4511 16.3739 34.4424 17.3179 32.8026 18.6602C32.6766 18.7633 32.5246 18.8135 32.3735 18.8135Z" fill="#FFF0A6"/>
<path d="M18.7102 5.14918C18.1469 5.14918 17.8201 4.48859 18.1859 4.04182C19.0629 2.97055 19.7652 1.757 20.2734 0.434806C20.4078 0.0852324 20.8001 -0.088919 21.1495 0.0451479C21.4989 0.179554 21.6734 0.571755 21.539 0.921244C20.979 2.37852 20.2038 3.71741 19.235 4.90063C19.1011 5.06444 18.9064 5.14918 18.7102 5.14918Z" fill="#FFF0A6"/>
<path d="M14.3038 6.42044C13.6411 6.42044 13.3708 5.56103 13.9188 5.18392C15.3189 4.22037 15.532 2.36156 14.55 1.09301C14.3209 0.796913 14.3751 0.371068 14.6712 0.141917C14.9674 -0.0874036 15.3932 -0.0329972 15.6223 0.263103C17.0791 2.14529 16.7315 4.89409 14.6875 6.30086C14.5701 6.38162 14.4362 6.42044 14.3038 6.42044Z" fill="#FFF0A6"/>
<path d="M27.7619 24.1711L12.673 9.08225C10.9366 7.34582 8.13744 10.1711 9.86116 11.8949L10.6984 12.7322C10.1113 18.7545 7.40007 24.1776 3.32137 28.2559L1.42986 30.1474C0.65359 30.9227 0.65359 32.1813 1.42986 32.9567L3.82899 35.3567C4.60526 36.1321 5.86288 36.1321 6.6383 35.3567C8.29329 33.7017 8.27049 33.7168 8.27896 33.7168C10.3637 35.166 12.8128 37.4447 14.6213 39.5058C16.1679 41.2685 18.6603 37.8405 16.984 36.6456C14.8094 35.0956 13.1213 32.9779 12.1959 30.4177C15.6823 28.0262 19.7399 26.5084 24.0543 26.0881L24.9492 26.983C26.6805 28.7143 29.4907 25.9 27.7619 24.1711Z" fill="#CBE3FA"/>
<path d="M15.9294 38.3022C16.8809 38.8724 16.1285 40.3559 15.1205 39.8927C14.9473 39.8132 14.7785 39.6868 14.6197 39.5058C12.8112 37.4448 10.3621 35.166 8.27734 33.7168C8.67531 33.3188 9.0231 32.9669 9.59089 32.4625C11.5875 33.9151 13.8527 36.0439 15.5519 37.9803C15.6728 38.1183 15.7994 38.2244 15.9294 38.3022Z" fill="#EEF7FF"/>
<path d="M12.2878 32.0151C11.4243 32.6531 10.5896 33.3597 9.79377 34.1252C9.5553 34.3545 9.18564 34.3803 8.9209 34.182C8.70344 34.0191 8.48861 33.8637 8.27734 33.7169C9.50666 32.4577 10.958 31.2582 12.1943 30.4177C12.2894 30.6805 12.3924 30.9388 12.5033 31.1922C12.6313 31.4846 12.5446 31.8255 12.2878 32.0151Z" fill="#B5D5F5"/>
<path d="M14.0974 16.1307C14.4294 16.4627 14.5685 16.9437 14.4589 17.4003C13.3006 22.2249 10.0307 25.7847 6.53365 29.2812L4.38281 27.1295C7.86838 23.2033 10.1641 18.2153 10.6989 12.7322L14.0974 16.1307Z" fill="#EEF7FF"/>
<path d="M9.65598 32.4041C9.66496 32.4131 9.39505 32.6005 8.27887 33.7168C8.27039 33.7167 8.29853 33.6963 6.6382 35.3566C5.86278 36.1321 4.60516 36.1321 3.8289 35.3566L1.42976 32.9567C0.653494 32.1812 0.653749 30.923 1.42976 30.1474C3.37331 28.2049 3.72568 27.8709 4.38228 27.1296L9.65598 32.4041Z" fill="#FF6D7A"/>
<path d="M4.81808 33.8041L5.12468 34.1109C5.9379 34.9245 4.76426 36.1998 3.90732 35.4323C3.84774 35.3789 4.04834 35.5758 1.42827 32.9567C0.652256 32.181 0.655985 30.9267 1.42827 30.1474C2.64936 28.9152 3.49512 28.1314 4.38079 27.1296L5.89612 28.6455C6.24714 28.9966 6.24705 29.5658 5.89604 29.9169L4.81808 30.9949C4.04181 31.7702 4.04181 33.0288 4.81808 33.8041Z" fill="#FF8C95"/>
<path d="M27.7615 24.1711C29.4903 25.8999 26.6801 28.7143 24.9488 26.983L9.86073 11.8949C8.13701 10.1712 10.9361 7.34581 12.6726 9.08224L27.7615 24.1711Z" fill="#585966"/>
<path d="M26.2491 25.74C27.0664 26.5574 25.8813 27.833 25.0255 27.056C24.9654 27.0014 26.0461 28.0805 9.86085 11.8949C8.63061 10.6647 9.70373 8.87359 11.0504 8.57961C11.7679 8.423 12.3674 9.17418 12.0536 9.83816C11.7473 10.4863 11.7728 11.2645 12.4032 11.8949L26.2491 25.74Z" fill="#6E6F80"/>
</g>
<defs>
<clipPath id="clip0_4595_3443">
<rect width="40" height="40" fill="white"/>
</clipPath>
</defs>
</svg>
