<svg width="40" height="40" viewBox="0 0 40 40" fill="none" xmlns="http://www.w3.org/2000/svg">
<path d="M28.4531 27.3091V34.794C28.4531 36.8061 30.0834 38.4364 32.0955 38.4364C34.1077 38.4364 35.738 36.8061 35.738 34.794V27.3091H28.4531Z" fill="#AAB2BD"/>
<path d="M28.4534 1.87274L26.1806 3.09092L23.9079 1.87274L21.6352 3.09092L19.3625 1.87274L17.0958 3.09092L14.8231 1.87274L12.5564 3.09092L10.2837 1.87274L8.017 3.09092L5.75033 1.87274L3.4776 3.09092L1.21094 1.87274V34.7818C1.21094 36.8 2.8473 38.4364 4.86548 38.4364H17.4655H28.4534H32.0958C30.0837 38.4364 28.4534 36.8061 28.4534 34.794V1.87274Z" fill="#E6E9EE"/>
<path d="M3.64844 7.29095H26.0181V14.8122H3.64844V7.29095Z" fill="#E1533B"/>
<path d="M32.8059 18.8061C30.012 15.891 23.9453 15.0788 23.9453 15.0788V7.26066C23.9453 7.26066 30.012 6.4546 32.8059 3.53339V18.8061Z" fill="#5D5B68"/>
<path d="M30.7007 5.10913V6.44246C30.7007 9.93943 27.4038 12.4788 24.0098 11.6364L23.9492 11.6243V15.0849C23.9492 15.0849 30.0159 15.8909 32.8098 18.8122V3.53943C32.2159 4.15155 31.4886 4.67276 30.7007 5.10913Z" fill="#474754"/>
<path d="M20.6239 7.26666C18.4664 7.26666 16.7148 9.01818 16.7148 11.1758C16.7148 13.3333 18.4664 15.0848 20.6239 15.0848H23.9512V7.26666H20.6239Z" fill="#F4B601"/>
<path d="M34.4411 1.56366C33.538 1.56366 32.8047 2.29699 32.8047 3.20002V19.1455C32.8047 20.0485 33.538 20.7818 34.4411 20.7818C35.3441 20.7818 36.0774 20.0485 36.0774 19.1455V3.20002C36.0774 2.29699 35.3441 1.56366 34.4411 1.56366Z" fill="#F4B601"/>
<path d="M34.8152 1.61212C34.8455 1.73333 34.8637 1.86061 34.8637 1.98788V17.9333C34.8637 18.8364 34.1304 19.5697 33.2273 19.5697C33.1 19.5697 32.9728 19.5515 32.8516 19.5212C33.0213 20.2424 33.6637 20.7818 34.4394 20.7818C35.3425 20.7818 36.0758 20.0485 36.0758 19.1455V3.2C36.0758 2.42424 35.5364 1.78182 34.8152 1.61212Z" fill="#F09D00"/>
<path d="M20.624 15.0788C20.1392 15.0788 19.6725 14.9879 19.2422 14.8243V19.8485C19.2422 20.6667 19.8846 21.3273 20.6725 21.3273C21.4604 21.3273 22.1028 20.6667 22.1028 19.8485V15.0788H20.624Z" fill="#5D5B68"/>
<path d="M21.1323 15.0788V18.7031C21.1323 19.5212 20.4899 20.1818 19.702 20.1818C19.5505 20.1818 19.405 20.1515 19.2656 20.1031C19.3808 20.794 19.9687 21.3212 20.6717 21.3212C21.4596 21.3212 22.102 20.6606 22.102 19.8425V15.0728H21.1323V15.0788Z" fill="#474754"/>
<path d="M23.1622 16.9333H22.1016V19.2243H23.1622C23.4349 19.2243 23.6531 19.0061 23.6531 18.7333V17.4303C23.6531 17.1515 23.4349 16.9333 23.1622 16.9333Z" fill="#E1533B"/>
<path d="M36.0781 7.97577V14.3636C37.6115 14.1091 38.7872 12.7758 38.7872 11.1697C38.7872 9.56365 37.6175 8.23638 36.0781 7.97577Z" fill="#5D5B68"/>
<path d="M26.0185 25.2545H19.2428C18.9094 25.2545 18.6367 24.9818 18.6367 24.6485C18.6367 24.3151 18.9094 24.0424 19.2428 24.0424H26.0185C26.3519 24.0424 26.6246 24.3151 26.6246 24.6485C26.6246 24.9818 26.3519 25.2545 26.0185 25.2545Z" fill="#AAB2BD"/>
<path d="M26.0185 27.9151H19.2428C18.9094 27.9151 18.6367 27.6424 18.6367 27.3091C18.6367 26.9757 18.9094 26.703 19.2428 26.703H26.0185C26.3519 26.703 26.6246 26.9757 26.6246 27.3091C26.6246 27.6424 26.3519 27.9151 26.0185 27.9151Z" fill="#AAB2BD"/>
<path d="M26.0185 30.5818H19.2428C18.9094 30.5818 18.6367 30.3091 18.6367 29.9758C18.6367 29.6424 18.9094 29.3697 19.2428 29.3697H26.0185C26.3519 29.3697 26.6246 29.6424 26.6246 29.9758C26.6246 30.3091 26.3519 30.5818 26.0185 30.5818Z" fill="#AAB2BD"/>
<path d="M26.0187 33.2424H3.64903C3.3157 33.2424 3.04297 32.9697 3.04297 32.6363C3.04297 32.303 3.3157 32.0303 3.64903 32.0303H26.0187C26.3521 32.0303 26.6248 32.303 26.6248 32.6363C26.6248 32.9697 26.3521 33.2424 26.0187 33.2424Z" fill="#AAB2BD"/>
<path d="M26.0187 35.9091H3.64903C3.3157 35.9091 3.04297 35.6364 3.04297 35.303C3.04297 34.9697 3.3157 34.697 3.64903 34.697H26.0187C26.3521 34.697 26.6248 34.9697 26.6248 35.303C26.6248 35.6364 26.3521 35.9091 26.0187 35.9091Z" fill="#AAB2BD"/>
<path d="M9.67053 29.9031C12.9943 29.9031 15.6887 27.2086 15.6887 23.8849C15.6887 20.5611 12.9943 17.8667 9.67053 17.8667C6.34678 17.8667 3.65234 20.5611 3.65234 23.8849C3.65234 27.2086 6.34678 29.9031 9.67053 29.9031Z" fill="#6E7FED"/>
<path d="M12.9124 18.8243C13.5124 19.7637 13.87 20.8728 13.87 22.0667C13.87 25.394 11.173 28.0849 7.8518 28.0849C6.65786 28.0849 5.54271 27.7334 4.60938 27.1273C5.6821 28.794 7.54877 29.9031 9.67604 29.9031C13.0033 29.9031 15.6942 27.2061 15.6942 23.8849C15.6882 21.7576 14.5791 19.8909 12.9124 18.8243Z" fill="#505FE1"/>
<path d="M15.6606 24.491C15.6787 24.291 15.6909 24.091 15.6909 23.8849C15.6909 23.6788 15.6787 23.4788 15.6606 23.2788H13.4909C13.4424 22.3213 13.2787 21.4243 13.0303 20.6364C13.406 20.4122 13.7636 20.1576 14.0969 19.8607C14.109 19.8546 14.109 19.8425 14.1151 19.8304C13.8424 19.5273 13.5393 19.2607 13.206 19.0182C13 19.194 12.7878 19.3516 12.5636 19.497C12.309 18.994 12.006 18.5637 11.6727 18.2122C11.0424 17.9879 10.3696 17.8607 9.66662 17.8607C8.96359 17.8607 8.29086 17.9879 7.66056 18.2122C7.32723 18.5637 7.02419 18.994 6.76965 19.497C6.54541 19.3516 6.33329 19.194 6.12722 19.0182C5.79995 19.2607 5.49692 19.5273 5.21813 19.8304C5.22419 19.8364 5.23026 19.8485 5.23632 19.8607C5.56965 20.1576 5.92723 20.4122 6.30298 20.6364C6.04844 21.4243 5.89086 22.3213 5.84238 23.2788H3.67874C3.66056 23.4788 3.64844 23.6788 3.64844 23.8849C3.64844 24.091 3.66056 24.291 3.67874 24.491H5.84844C5.90298 25.4546 6.06056 26.3455 6.3151 27.1334C5.93935 27.3576 5.58177 27.6122 5.24844 27.9091C5.23632 27.9152 5.23632 27.9273 5.22419 27.9394C5.49692 28.2425 5.79995 28.5091 6.13329 28.7516C6.33935 28.5758 6.55147 28.4122 6.77571 28.2728C7.03026 28.7758 7.33329 29.2122 7.66662 29.5576C8.29692 29.7819 8.96359 29.9091 9.67268 29.9091C10.3757 29.9091 11.0484 29.7819 11.6787 29.5576C12.0121 29.2061 12.3151 28.7758 12.5696 28.2728C12.7939 28.4182 13.006 28.5758 13.2121 28.7516C13.5393 28.5091 13.8424 28.2425 14.1212 27.9394C14.1151 27.9334 14.109 27.9213 14.0969 27.9091C13.7636 27.6122 13.406 27.3576 13.0303 27.1334C13.2848 26.3455 13.4424 25.4485 13.4909 24.491H15.6606ZM9.06662 29.1273C8.63632 28.891 8.21813 28.4122 7.87268 27.7394C8.26056 27.6001 8.66056 27.5091 9.06662 27.4607V29.1273ZM9.06662 26.2425C8.50298 26.297 7.95147 26.4243 7.42419 26.6122C7.23632 25.9879 7.10904 25.2728 7.06662 24.491H9.06662V26.2425ZM9.06662 23.2788H7.06662C7.10904 22.497 7.24238 21.7819 7.42419 21.1576C7.95147 21.3516 8.50298 21.4788 9.06662 21.5273V23.2788ZM9.06662 20.3091C8.66056 20.2607 8.2545 20.1697 7.87268 20.0304C8.21813 19.3576 8.63632 18.8849 9.06662 18.6425V20.3091ZM10.2787 18.6485C10.709 18.8849 11.1272 19.3637 11.4727 20.0364C11.0848 20.1758 10.6848 20.2667 10.2787 20.3152V18.6485ZM10.2787 29.1273V27.4667C10.6848 27.5152 11.0848 27.6061 11.4727 27.7455C11.1272 28.4122 10.709 28.8849 10.2787 29.1273ZM11.9151 26.6122C11.3878 26.4182 10.8363 26.291 10.2727 26.2425V24.497H12.2727C12.2303 25.2728 12.103 25.9879 11.9151 26.6122ZM10.2787 23.2788V21.5334C10.8424 21.4788 11.3939 21.3516 11.9212 21.1637C12.109 21.7879 12.2363 22.5031 12.2787 23.2849H10.2787V23.2788Z" fill="#505FE1"/>
<path d="M20.7428 13.4243C20.4094 13.4243 20.1367 13.1516 20.1367 12.8182V9.52733C20.1367 9.19399 20.4094 8.92126 20.7428 8.92126C21.0761 8.92126 21.3488 9.19399 21.3488 9.52733V12.8182C21.3488 13.1576 21.0822 13.4243 20.7428 13.4243Z" fill="#F09D00"/>
</svg>
