<svg width="231" height="400" viewBox="0 0 231 400" fill="none" xmlns="http://www.w3.org/2000/svg">
<path d="M123.009 75.4146C123.009 75.4146 126.979 86.5135 119.439 95.8525L112.617 73.1903L123.009 75.4146Z" fill="#3E1E69"/>
<path d="M222.516 395.173C222.516 397.839 166.749 400 107.421 400C48.0937 400 0 397.839 0 395.173C0 392.507 48.0945 390.344 107.421 390.344C166.749 390.345 222.516 392.507 222.516 395.173Z" fill="#3E1E69"/>
<path d="M46.9232 373.469L51.3532 362.546L85.108 362.662L79.643 394.747L25.5415 394.545C25.5415 394.545 23.8077 373.858 46.9232 373.469Z" fill="#9666FF"/>
<path d="M43.3495 386.669C43.0141 386.669 42.6927 386.481 42.5378 386.158C39.3626 379.532 31.9563 375.882 31.8819 375.846C31.4353 375.629 31.2488 375.092 31.4651 374.646C31.6814 374.199 32.2173 374.013 32.6656 374.228C32.9922 374.386 40.7076 378.178 44.1595 385.382C44.374 385.829 44.1849 386.365 43.7365 386.581C43.6122 386.641 43.48 386.669 43.3495 386.669Z" fill="white"/>
<path d="M168.573 395.173H111.258V364.889H144.234V375.198C168.759 375.649 168.573 395.173 168.573 395.173Z" fill="#9666FF"/>
<path d="M149.007 387.723C148.884 387.723 148.757 387.698 148.637 387.643C148.185 387.438 147.984 386.906 148.19 386.454C151.294 379.623 159.191 376.06 159.526 375.912C159.982 375.708 160.51 375.916 160.711 376.368C160.914 376.821 160.709 377.352 160.255 377.554C160.18 377.587 152.644 380.997 149.827 387.196C149.676 387.527 149.35 387.723 149.007 387.723Z" fill="white"/>
<path d="M65.9168 205.398C65.9168 205.398 57.5753 235.091 34.0938 367.59L92.0525 370.739C92.0525 370.739 91.2329 371.265 100.498 316.507L99.8669 370.739L154.655 368.104C154.655 368.104 142.003 242.15 135.164 203.747L65.9168 205.398Z" fill="#3E1E69"/>
<path d="M121.106 89.5696C120.202 97.8057 114.656 105.182 106.284 108.078C96.3684 111.487 85.6968 107.49 80.329 98.9917C79.4358 97.5861 78.7012 96.0537 78.1232 94.4066C78.1127 94.3856 78.1127 94.3751 78.1127 94.3751C77.0094 91.1957 76.6845 87.9436 77.0304 84.7956C77.9236 76.5491 83.4691 69.1414 91.8518 66.2558C103.427 62.269 116.043 68.3962 120.023 79.9376C121.127 83.1381 121.452 86.4225 121.106 89.5696Z" fill="#FF814B"/>
<path d="M112.492 92.2672C112.303 92.2672 112.115 92.2514 111.929 92.2208C110.383 91.968 109.579 90.7671 109.492 90.6315C109.226 90.2126 109.349 89.658 109.768 89.3921C110.185 89.1279 110.737 89.2487 111.004 89.6606C111.024 89.6886 111.474 90.335 112.235 90.4513C112.872 90.5484 113.606 90.2659 114.415 89.6125C114.8 89.3003 115.366 89.3597 115.68 89.7455C115.992 90.1312 115.932 90.6971 115.547 91.0085C114.511 91.8456 113.487 92.2672 112.492 92.2672Z" fill="white"/>
<path d="M103.053 298.365C103.037 298.365 103.021 298.365 103.004 298.364C102.507 298.337 102.127 297.915 102.154 297.419C102.167 297.176 103.456 272.839 103.419 251.086C103.418 250.589 103.82 250.187 104.316 250.186H104.317C104.814 250.186 105.216 250.587 105.217 251.083C105.253 272.888 103.962 297.272 103.949 297.516C103.924 297.995 103.528 298.365 103.053 298.365Z" fill="white"/>
<path d="M159.469 117.416C166.393 130.035 174.055 142.267 182.252 154.137C195.306 143.534 204.265 133.359 209.215 127.358C215.913 120.786 221.049 115.43 222.54 113.727C224.859 111.074 226.463 108.726 224.642 105.577C223.047 102.818 222.254 104.611 219.389 102.922C220.733 101.227 220.569 98.6155 219.013 96.937C217.457 95.2594 214.662 94.6795 212.608 95.6075C213.344 93.8284 211.522 91.87 209.6 90.9848C204.465 88.6153 198.439 90.2483 193.545 92.5759C191.502 93.5485 189.477 94.7022 188.027 96.302C188.97 94.7118 189.855 91.7414 185.994 89.127C176.428 82.6499 176.113 101.004 176.113 101.004C175.988 101.191 170.464 108.445 159.469 117.416ZM185.763 105.212C185.763 105.224 185.764 105.233 185.765 105.243C185.783 105.481 185.763 105.754 185.742 106.026L185.635 105.971L185.763 105.212Z" fill="#FF814B"/>
<path d="M206.459 109.889C206.194 109.889 205.932 109.774 205.755 109.551C205.445 109.163 205.508 108.598 205.896 108.289C212.327 103.164 218.816 101.672 219.089 101.61C219.576 101.502 220.054 101.805 220.163 102.289C220.271 102.773 219.966 103.254 219.482 103.362C219.42 103.377 213.109 104.839 207.019 109.693C206.853 109.825 206.656 109.889 206.459 109.889Z" fill="white"/>
<path d="M197.275 103.88C197.013 103.88 196.755 103.767 196.577 103.55C196.264 103.166 196.321 102.6 196.706 102.286C203.778 96.525 211.235 95.0311 211.548 94.9698C212.042 94.8763 212.507 95.1938 212.602 95.6801C212.696 96.1673 212.377 96.6379 211.891 96.7332C211.819 96.7481 204.55 98.2149 197.842 103.677C197.676 103.814 197.475 103.88 197.275 103.88Z" fill="white"/>
<path d="M188.297 118.909C187.981 118.909 187.673 118.742 187.509 118.445C187.269 118.011 187.427 117.465 187.861 117.224C187.904 117.201 192.186 114.788 192.443 111.002C192.628 108.291 190.742 105.438 186.837 102.524C186.561 102.317 186.427 101.973 186.493 101.634L187.067 98.6663C187.16 98.18 187.627 97.8642 188.119 97.9543C188.607 98.0479 188.926 98.5194 188.831 99.0065L188.364 101.428C192.488 104.626 194.462 107.89 194.236 111.136C193.905 115.901 188.94 118.682 188.729 118.798C188.592 118.874 188.443 118.909 188.297 118.909Z" fill="white"/>
<path d="M142.899 123.243C148.192 121.131 153.304 118.667 157.932 115.381C165.539 127.597 176.21 143.935 183.817 156.15C173.71 164.391 162.738 171.869 150.384 176.21C141.671 179.271 132.182 180.652 123.023 179.588C124.822 162.299 122.868 140.864 123.016 123.656C129.238 125.185 136.536 125.783 142.899 123.243Z" fill="#FFB81E"/>
<path d="M140.329 221.119H58.0703V135.022C58.0703 123.886 67.1071 114.859 78.2551 114.859H120.146C131.294 114.859 140.33 123.886 140.33 135.022V221.119H140.329Z" fill="#FFB81E"/>
<path d="M61.4579 171.55C60.9614 171.55 60.5586 171.148 60.5586 170.652C60.5586 141.199 72.1996 131.626 72.6952 131.233C73.084 130.924 73.6479 130.988 73.9588 131.378C74.267 131.766 74.2031 132.329 73.816 132.638C73.7013 132.73 62.3572 142.168 62.3572 170.653C62.3572 171.148 61.9544 171.55 61.4579 171.55Z" fill="white"/>
<path d="M128.125 131.604L72.3051 180.423L39.4242 209.192C38.6817 208.477 37.9522 207.749 37.2272 207.006C35.7876 205.143 34.5074 203.21 33.3874 201.204C22.4531 181.758 28.5932 159.019 46.0538 143.743L65.7342 126.528C83.9408 110.596 120.011 113.511 135.952 131.694L128.125 131.604Z" fill="#FFB81E"/>
<path d="M134.434 198.76C117.871 188.44 111.009 165.453 110.119 162.242L110.253 162.073C110.253 162.073 110.188 162.067 110.067 162.053C110.034 161.93 110.016 161.862 110.016 161.862L109.881 162.031C106.725 161.651 84.052 158.431 71.5835 142.991C71.5835 142.991 27.9277 189.415 47.2377 240.335L47.1273 240.473C47.1851 240.486 47.2429 240.496 47.3007 240.509C47.3226 240.567 47.3419 240.626 47.3647 240.683L47.475 240.546C98.4014 251.949 134.434 198.76 134.434 198.76Z" fill="white"/>
<path d="M61.6918 243.029C57.1813 243.029 52.5097 242.562 47.7015 241.518C47.5544 241.577 47.3924 241.597 47.2277 241.572C47.0001 241.537 46.7978 241.416 46.6594 241.241C46.4843 241.135 46.3494 240.97 46.2794 240.771C46.2216 240.607 46.2137 240.433 46.2522 240.269C36.3801 213.811 43.564 188.658 51.3565 172.184C59.8188 154.292 70.817 142.493 70.9274 142.376C71.106 142.186 71.3573 142.087 71.6165 142.094C71.8766 142.104 72.1191 142.225 72.2829 142.428C84.0955 157.056 105.546 160.549 109.565 161.086C109.755 160.975 109.982 160.937 110.204 160.985C110.412 161.03 110.594 161.146 110.721 161.307C110.879 161.403 111.006 161.548 111.081 161.725C111.172 161.94 111.173 162.178 111.094 162.39C112.243 166.364 119.152 188.181 134.908 197.998C135.116 198.128 135.261 198.336 135.312 198.574C135.362 198.812 135.313 199.062 135.177 199.264C135.087 199.398 125.912 212.817 110.6 224.639C99.0596 233.553 82.007 243.029 61.6918 243.029ZM47.9729 239.738C73.7864 245.387 95.648 233.906 109.461 223.25C122.491 213.197 131.01 201.977 133.156 199.008C117.4 188.616 110.514 166.861 109.362 162.871C105.359 162.339 83.9396 158.869 71.5561 144.366C69.0429 147.22 60.0894 157.91 52.9598 173.001C45.3197 189.17 38.2733 213.85 47.9729 239.738Z" fill="#3E1E69"/>
<path d="M71.0185 172.894L81.4309 178.153L75.8827 195.377C75.8827 195.377 95.275 196.101 115.315 207.453C116.06 207.875 115.614 209.079 114.798 208.846C105.284 206.12 85.5955 202.157 63.8398 207.596C63.8398 207.596 75.6227 178.231 71.0185 172.894Z" fill="#A6C4FF"/>
<path d="M218.69 6.37754C203.478 13.4791 186.941 1.75221 184.326 1.06033L184.279 0.900269C184.279 0.900269 184.242 0.942251 184.172 1.01922C184.072 0.992108 184.018 0.976364 184.018 0.976364L184.065 1.13643C182.24 3.13071 166.374 24.3645 149.734 26.609C149.734 26.609 159.45 75.0962 203.492 82.5415L203.53 82.6718C203.568 82.6377 203.604 82.6027 203.641 82.5686C203.692 82.5773 203.74 82.587 203.791 82.5957L203.753 82.4654C236.768 52.4104 218.69 6.37754 218.69 6.37754Z" fill="white"/>
<path d="M203.53 83.5693C203.447 83.5693 203.363 83.557 203.28 83.5334C203.158 83.4976 203.046 83.4381 202.952 83.3585C159.137 75.6779 148.953 27.2738 148.854 26.784C148.805 26.5408 148.859 26.288 149.002 26.086C149.147 25.8839 149.368 25.7501 149.615 25.7168C159.325 24.4074 170.363 16.3245 182.422 1.69366C182.71 1.34466 182.947 1.05776 183.129 0.840841C183.157 0.654534 183.244 0.47872 183.382 0.34052C183.523 0.198822 183.706 0.110479 183.899 0.0842387C184.076 0.00201845 184.276 -0.0215963 184.472 0.0203885C184.676 0.0649974 184.853 0.176955 184.98 0.333523C185.522 0.54957 186.27 0.937932 187.287 1.46537C192.93 4.39031 206.143 11.24 218.309 5.56239C218.537 5.45655 218.794 5.4513 219.023 5.54139C219.254 5.63323 219.436 5.81604 219.527 6.04783C219.71 6.51229 237.347 52.7314 204.65 82.8599C204.614 82.9798 204.551 83.0926 204.465 83.1897C204.319 83.3541 204.122 83.4565 203.91 83.4844C203.792 83.5404 203.663 83.5693 203.53 83.5693ZM150.829 27.3473C152.458 34.0045 164 74.7673 203.36 81.6074C232.765 54.5928 220.405 14.0696 218.171 7.5899C205.469 12.9202 192.201 6.03908 186.46 3.06166C185.645 2.64006 184.916 2.26133 184.454 2.0619C184.285 2.2622 184.071 2.52286 183.812 2.83687C171.847 17.3531 160.756 25.5926 150.829 27.3473Z" fill="#3E1E69"/>
<path d="M104.038 234.377C104.262 234.184 104.476 233.982 104.68 233.774C106.922 231.482 107.306 227.919 105.703 225.143C105.697 225.132 105.691 225.122 105.684 225.111C104.641 223.31 103.467 221.519 101.897 220.288C103.426 221.052 105.877 221.735 106.62 217.535C107.409 213.017 96.8123 209.681 96.8123 209.681L93.4043 208.669C93.2878 208.598 90.6573 206.302 85.8981 201.846L86.012 201.712L85.4156 201.037L81.7808 196.889C73.6197 206.666 65.8964 217.853 57.5312 227.724L57.913 228.001L58.3999 228.349C64.9279 234.26 70.6538 238.579 74.5566 241.369C76.1591 242.787 77.223 243.735 78.1127 244.517C80.4673 246.588 84.1197 246.551 86.2344 244.236C87.1915 243.189 87.6223 241.915 86.9025 240.227C89.3176 241.851 92.2387 241.697 94.7528 239.52C95.8981 238.253 95.9445 236.397 95.8202 234.722C95.5277 234.613 95.2344 234.503 94.9402 234.373C95.2353 234.503 95.5277 234.613 95.8202 234.722C95.7931 234.358 95.7606 234 95.7265 233.661C95.8946 233.748 96.0776 233.871 96.272 234.022C97.5268 234.996 99.0785 235.56 100.657 235.379C101.754 235.257 102.873 234.933 104.038 234.377Z" fill="#FF814B"/>
<path d="M93.5001 218.724C93.2821 218.756 93.0317 218.753 92.7812 218.751L92.8198 218.649L93.5334 218.719L93.5001 218.724Z" fill="#FF814B"/>
<path d="M85.932 239.456C85.6781 239.456 85.425 239.349 85.2473 239.141L82.5003 235.925C82.1781 235.547 82.2227 234.98 82.601 234.659C82.9776 234.335 83.545 234.382 83.8681 234.758L86.615 237.974C86.9373 238.352 86.8926 238.919 86.5143 239.241C86.3462 239.386 86.1387 239.456 85.932 239.456Z" fill="white"/>
<path d="M94.816 232.719C94.5621 232.719 94.309 232.612 94.1312 232.404L90.6488 228.327C90.3265 227.949 90.3712 227.382 90.7495 227.06C91.126 226.737 91.6943 226.783 92.0174 227.16L95.4999 231.237C95.8222 231.615 95.7775 232.181 95.3992 232.503C95.2302 232.649 95.0227 232.719 94.816 232.719Z" fill="white"/>
<path d="M99.8493 219.697C99.6671 219.697 99.4833 219.642 99.3239 219.527L93.8108 215.553C93.408 215.263 93.3169 214.701 93.6076 214.299C93.8975 213.897 94.4614 213.806 94.8624 214.097L100.376 218.07C100.778 218.36 100.869 218.922 100.579 219.324C100.404 219.568 100.129 219.697 99.8493 219.697Z" fill="white"/>
<path d="M83.9661 210.234L83.9258 210.324C84.1718 210.333 84.4161 210.331 84.6289 210.305L83.9661 210.234Z" fill="#FF814B"/>
<path d="M86.1147 200.32C85.8774 200.56 85.6515 200.799 85.4142 201.038C76.535 210.076 66.866 219.115 57.9387 227.993C57.9326 227.987 57.9274 227.994 57.9116 228.001C57.7531 228.101 57.0447 228.842 57.0132 228.818C45.6253 221.15 38.8363 212.42 33.6831 202.315C33.2155 201.396 32.7645 200.47 32.3232 199.53C31.5727 197.301 30.9957 195.055 30.5938 192.794C43.3048 186.846 46.2873 158.528 58.3547 151.201C61.4922 167.989 71.4335 181.628 74.176 185.871C77.1568 190.48 81.0149 195.185 86.1147 200.32Z" fill="#FFB81E"/>
<path d="M162.359 37.3082L174.843 26.7778L197.018 42.0096C197.018 42.0096 204.426 19.6938 229.012 0.290681C230.144 -0.602371 231.624 0.853978 230.722 1.97795C221.678 13.257 206.438 35.8396 200.721 65.6514C200.721 65.6514 171.57 34.3089 162.359 37.3082Z" fill="#A6C4FF"/>
<path d="M128.354 74.5662C119.385 84.521 93.7636 79.3262 93.7636 79.3262L91.528 89.5714C91.528 89.5714 88.1847 85.3852 84.507 84.381C76.7951 82.2731 80.6926 99.3338 80.6926 99.3338C78.8152 95.7327 75.6524 89.7201 75.4851 85.8969C75.0271 75.8817 80.19 66.0346 89.5131 61.0838C102.386 54.2438 121.237 58.4598 128.354 74.5662Z" fill="#3E1E69"/>
<path d="M104.321 251.983C104.128 251.983 103.934 251.921 103.77 251.794C103.378 251.49 103.306 250.925 103.611 250.533L110.548 241.598C110.852 241.207 111.417 241.136 111.809 241.44C112.201 241.744 112.273 242.309 111.968 242.701L105.031 251.635C104.855 251.863 104.59 251.983 104.321 251.983Z" fill="white"/>
<path d="M140.328 171.55C139.831 171.55 139.429 171.148 139.429 170.652C139.429 142.058 128.088 132.73 127.973 132.639C127.584 132.33 127.519 131.765 127.827 131.377C128.136 130.988 128.703 130.924 129.091 131.232C129.587 131.625 141.227 141.198 141.227 170.651C141.227 171.148 140.825 171.55 140.328 171.55Z" fill="white"/>
</svg>
