<svg width="40" height="40" viewBox="0 0 40 40" fill="none" xmlns="http://www.w3.org/2000/svg">
<g clip-path="url(#clip0_4595_3244)">
<path d="M39.8453 12.7189V27.3372C39.8453 28.4274 38.9616 29.3111 37.8718 29.3111L37.7906 29.2653L28.375 23.9764V16.0798L37.7906 10.7908L37.8718 10.7451C38.9616 10.7451 39.8453 11.6287 39.8453 12.7189Z" fill="#F23636"/>
<path d="M27.7864 27.4174C27.7864 29.303 26.2579 30.8314 24.3724 30.8314H3.83199C1.94652 30.8314 0.417969 29.3029 0.417969 27.4174V12.6389C0.417969 10.7533 1.94652 9.22479 3.83199 9.22479H24.3723C26.2579 9.22479 27.7864 10.7533 27.7864 12.6389L27.7864 27.4174Z" fill="#F72323"/>
<path d="M39.8437 12.7189V27.3372C39.8437 28.4274 38.96 29.311 37.8702 29.311L37.7891 29.2653V10.7908L37.8702 10.7451C38.96 10.7451 39.8437 11.6287 39.8437 12.7189Z" fill="#C61818"/>
<path d="M11.25 23.8331V16.2231L16.9576 20.0281L11.25 23.8331Z" fill="white"/>
<path d="M12.0703 23.8331C12.0703 21.9009 12.0703 19.9686 12.0703 18.0364C12.0703 17.4319 12.0703 16.8275 12.0703 16.223C11.6589 16.4591 11.2474 16.6952 10.836 16.9313C12.4573 18.0122 14.0786 19.0931 15.6999 20.174C15.9811 20.3614 16.2623 20.5489 16.5436 20.7364C16.5436 20.2642 16.5436 19.7919 16.5436 19.3197C14.9223 20.4006 13.301 21.4815 11.6796 22.5623C11.3984 22.7498 11.1172 22.9373 10.836 23.1247C10.4647 23.3722 10.3056 23.8441 10.5417 24.2471C10.7575 24.6156 11.2915 24.7897 11.664 24.5413C13.2853 23.4605 14.9066 22.3796 16.5279 21.2988C16.8091 21.1113 17.0904 20.9238 17.3716 20.7363C17.8991 20.3846 17.8991 19.6714 17.3716 19.3197C15.7503 18.2388 14.129 17.158 12.5077 16.0771C12.2265 15.8896 11.9453 15.7021 11.664 15.5147C11.1368 15.1632 10.4297 15.6291 10.4297 16.223V22.0197V23.8331C10.4297 24.2802 10.8028 24.6534 11.25 24.6534C11.6972 24.6534 12.0703 24.2803 12.0703 23.8331Z" fill="white"/>
</g>
<defs>
<clipPath id="clip0_4595_3244">
<rect width="40" height="40" fill="white"/>
</clipPath>
</defs>
</svg>
