<svg width="36" height="37" viewBox="0 0 36 37" fill="none" xmlns="http://www.w3.org/2000/svg">
<path d="M18 0.5C22.7739 0.5 27.3523 2.39642 30.7279 5.77208C34.1036 9.14773 36 13.7261 36 18.5C36 23.2739 34.1036 27.8523 30.7279 31.2279C27.3523 34.6036 22.7739 36.5 18 36.5C13.2261 36.5 8.64773 34.6036 5.27208 31.2279C1.89642 27.8523 0 23.2739 0 18.5C0 13.7261 1.89642 9.14773 5.27208 5.77208C8.64773 2.39642 13.2261 0.5 18 0.5ZM18 8.21429C17.6735 8.21399 17.3506 8.2818 17.0518 8.41337C16.753 8.54494 16.4849 8.73738 16.2647 8.9784C16.0445 9.21943 15.877 9.50373 15.7729 9.81315C15.6688 10.1226 15.6303 10.4503 15.66 10.7754L16.5986 21.0766C16.635 21.4229 16.7983 21.7435 17.0571 21.9765C17.3159 22.2095 17.6518 22.3385 18 22.3385C18.3482 22.3385 18.6841 22.2095 18.9429 21.9765C19.2017 21.7435 19.365 21.4229 19.4014 21.0766L20.3374 10.7754C20.3671 10.4505 20.3287 10.123 20.2248 9.81376C20.1208 9.50451 19.9535 9.22034 19.7336 8.97935C19.5136 8.73837 19.2459 8.54588 18.9474 8.41415C18.6489 8.28242 18.3263 8.21435 18 8.21429ZM18 28.7857C18.5456 28.7857 19.0688 28.569 19.4546 28.1832C19.8404 27.7974 20.0571 27.2742 20.0571 26.7286C20.0571 26.183 19.8404 25.6597 19.4546 25.274C19.0688 24.8882 18.5456 24.6714 18 24.6714C17.4544 24.6714 16.9312 24.8882 16.5454 25.274C16.1596 25.6597 15.9429 26.183 15.9429 26.7286C15.9429 27.2742 16.1596 27.7974 16.5454 28.1832C16.9312 28.569 17.4544 28.7857 18 28.7857Z" fill="#FF4D4D"/>
</svg>
