<svg width="58" height="60" viewBox="0 0 58 60" fill="none" xmlns="http://www.w3.org/2000/svg">
<path d="M53.9093 45.2461C56.1956 41.1141 57.4999 36.3552 57.4999 31.2888C57.4999 15.432 44.7401 2.57763 29 2.57763C13.2599 2.57763 0.5 15.432 0.5 31.2888C0.5 36.3552 1.80436 41.1141 4.09062 45.2461H53.9093Z" fill="#FF4155"/>
<path d="M37.6198 36.9152C37.6203 36.9149 37.6206 36.9144 37.6206 36.9144C37.552 36.8949 37.4821 36.8771 37.4127 36.8586C37.3896 36.8525 37.3668 36.8458 37.3438 36.8397L37.3433 36.8401C37.1092 36.7781 36.8738 36.7182 36.6356 36.6628C35.4547 35.4731 35.1552 33.2176 35.1014 31.6395C34.4851 32.3627 33.8383 32.9676 33.2203 33.451C32.0161 34.3931 30.5303 34.9047 28.9999 34.9047C27.4695 34.9047 25.9836 34.3931 24.7795 33.451C24.1614 32.9676 23.5146 32.3626 22.8983 31.6395C22.8443 33.2176 22.545 35.4731 21.3639 36.6628C21.1224 36.7189 20.8837 36.7799 20.6463 36.8427C20.6463 36.8427 20.6461 36.8424 20.6459 36.8423C20.6239 36.8481 20.6021 36.8544 20.5801 36.8603C20.5099 36.879 20.4391 36.897 20.3691 36.9164C20.3691 36.9164 20.37 36.9172 20.3704 36.9176C19.2822 37.2178 18.232 37.5849 17.2056 38.0184V40.8151C19.1189 43.4496 21.6787 45.0921 23.1439 45.7125C23.8025 45.9913 24.5044 46.1326 25.2304 46.1326H27.2875L27.7906 46.3084H30.209L30.7121 46.1326H32.7692C33.495 46.1326 34.197 45.9912 34.8555 45.7125C36.3125 45.0955 38.8518 43.4682 40.7615 40.8596V38.0051C39.7426 37.5766 38.7 37.213 37.6198 36.9152Z" fill="#FFAA7B"/>
<path d="M24.7795 33.4513C24.1615 32.9678 23.5146 32.3628 22.8983 31.6397C22.8443 33.2177 22.545 35.4732 21.3641 36.6629C21.1225 36.7191 20.8839 36.78 20.6465 36.8429C20.6465 36.8429 20.6462 36.8427 20.646 36.8426C20.624 36.8484 20.6023 36.8546 20.5803 36.8606C20.51 36.8794 20.4393 36.8974 20.3693 36.9168C20.3693 36.9168 20.3702 36.9176 20.3706 36.9179C19.9459 37.0351 19.5286 37.1655 19.1146 37.3031C20.2676 40.0766 22.6878 44.8528 25.2484 43.5299C28.802 41.6939 28.9999 34.9049 28.9999 34.9049C27.4695 34.9049 25.9836 34.3932 24.7795 33.4513Z" fill="#FC9460"/>
<path d="M39.2232 42.549C37.6393 44.0236 35.945 44.9 34.8556 45.3613C34.1971 45.6401 33.4952 45.7814 32.7693 45.7814H30.7122L30.2091 45.9572C29.3434 45.9572 28.6564 45.9572 27.7907 45.9572L27.2876 45.7814H25.2305C24.5047 45.7814 23.8027 45.6399 23.1441 45.3613C22.9099 45.2621 22.6466 45.1425 22.3636 45.0032V53.7247C22.3636 53.7247 20.1449 55.9323 21.7789 59.0685C24.0853 59.6753 26.5048 60 28.9999 60C35.9219 60 42.2668 57.5133 47.2044 53.3791C47.2044 53.2358 47.2044 53.0937 47.2044 52.9547C47.2044 48.5889 42.0103 44.4538 39.2232 42.549Z" fill="#FFC839"/>
<path d="M22.5962 53.7247V45.1154C21.5338 44.6142 20.121 43.7985 18.7846 42.5563C16.0031 44.4561 10.8066 48.5891 10.8066 52.953V53.3887C14.0313 56.0859 17.8558 58.0802 22.0487 59.1391C20.3439 55.9656 22.5962 53.7247 22.5962 53.7247Z" fill="#FFB332"/>
<path d="M53.9093 45.2461C53.8844 45.1977 53.8601 45.1486 53.835 45.1008C52.9043 43.3371 51.3412 41.9971 49.4763 41.3186L41.586 38.4479C41.7313 38.7431 41.8302 39.1799 41.549 39.6609C40.8135 40.9199 39.9114 41.9425 38.9842 42.7661C41.5901 44.5158 46.8688 48.592 46.8688 52.9024V53.6544C49.7182 51.3411 52.1161 48.487 53.9093 45.2461Z" fill="#FFDD40"/>
<path d="M16.4508 39.6611C16.1696 39.18 16.2686 38.7432 16.4138 38.448L8.52357 41.3187C6.65875 41.9972 5.09569 43.3372 4.16497 45.1009C4.13973 45.1487 4.11542 45.1978 4.09064 45.2462C5.88379 48.487 8.28161 51.3413 11.1311 53.6545C11.1311 53.3975 11.1311 53.1461 11.1311 52.9025C11.1311 48.5922 16.4097 44.516 19.0157 42.7662C18.0884 41.9426 17.1864 40.92 16.4508 39.6611Z" fill="#FFC839"/>
<path d="M42.3938 34.363C41.5318 32.3366 38.7356 31.1522 35.0545 29.9106L34.802 31.9413C34.802 31.9413 37.1251 41.1766 30.2091 45.9572L33.573 45.9572C34.5152 45.9572 35.4471 45.7576 36.3055 45.3659C37.3845 44.8732 38.8977 44.0725 40.2464 42.9621C42.7671 40.8867 43.6763 37.3775 42.3938 34.363Z" fill="#FEE77F"/>
<path d="M23.4609 39.9937C22.1798 39.6616 18.8952 39.2284 18.0202 43.1758C19.2983 44.1757 20.6859 44.9054 21.6943 45.3658C22.5525 45.7577 23.4844 45.9572 24.4267 45.9572H27.7906C25.4094 44.3112 24.1236 42.1371 23.4609 39.9937Z" fill="#FEE77F"/>
<path d="M23.1979 31.9413L22.9453 29.9106C19.2642 31.1522 16.4681 32.3365 15.606 34.363C14.3235 37.3775 15.2327 40.8867 17.7536 42.962C17.9046 43.0863 18.0578 43.2061 18.2121 43.3226C19.0858 38.6106 23.5887 40.3833 23.5887 40.3833L23.5888 40.3825C22.1355 36.1679 23.1979 31.9413 23.1979 31.9413Z" fill="#FFDD40"/>
<path d="M22.5962 53.7247C22.0503 53.7247 21.6037 53.2748 21.6037 52.7249V44.512C21.6037 43.9621 22.0503 43.5122 22.5962 43.5122C23.1422 43.5122 23.5887 43.9621 23.5887 44.512V52.7249C23.5887 53.2748 23.1421 53.7247 22.5962 53.7247Z" fill="#DEEEFF"/>
<path d="M35.3714 53.7247C34.8254 53.7247 34.3789 53.2748 34.3789 52.7249V44.512C34.3789 43.9621 34.8254 43.5122 35.3714 43.5122C35.9173 43.5122 36.3638 43.9621 36.3638 44.512V52.7249C36.3638 53.2748 35.9173 53.7247 35.3714 53.7247Z" fill="#DEEEFF"/>
<path d="M47.1003 9.11083C45.0331 10.5341 43.4686 12.7134 44.0133 15.9897C45.4407 24.5741 38.8662 28.9536 49.1413 33.556C52.7945 35.1925 55.0954 37.1068 56.5282 38.7436C57.1615 36.3663 57.5 33.8674 57.5 31.2887C57.5 22.3562 53.4505 14.3767 47.1003 9.11083Z" fill="#FF7186"/>
<path d="M10.8997 9.11083C12.9669 10.5341 14.5314 12.7134 13.9867 15.9897C12.5593 24.5741 19.1338 28.9536 8.85868 33.556C5.20548 35.1925 2.90456 37.1068 1.47178 38.7436C0.838507 36.3663 0.5 33.8675 0.5 31.2888C0.5 22.3563 4.54952 14.3767 10.8997 9.11083Z" fill="#FF7186"/>
<path d="M40.1012 18.5252C40.8578 15.417 41.4757 10.7598 39.8399 6.88461C36.6766 -0.608828 28.0677 -0.146875 25.7863 0.117031C25.5468 0.144688 25.4267 0.419961 25.5629 0.620235C26.9304 2.63141 21.5728 0.809259 18.6608 6.96278C16.8152 10.8627 17.279 15.4543 17.9537 18.5253L40.1012 18.5252Z" fill="#945230"/>
<path d="M28.875 8.25629C28.875 8.25629 28.0175 6.26949 30.1891 4.62887C32.3579 2.99035 29.1249 0.0464788 29.1165 0.0388616C27.6619 -0.053951 26.4534 0.0398047 25.7863 0.117031C25.5468 0.144805 25.4267 0.419961 25.5629 0.620235C26.9304 2.63141 21.5728 0.809259 18.6608 6.96278C16.8152 10.8627 17.279 15.4543 17.9537 18.5253L23.0163 18.5253L24.6244 17.8817L28.875 8.25629Z" fill="#753616"/>
<path d="M40.546 18.1313C40.0687 17.6907 39.0016 17.9141 38.5905 18.1838C38.6806 18.7488 38.6857 19.3268 38.608 19.8975L38.1229 23.4567C38.1229 23.7436 38.1139 24.0251 38.0974 24.3016C39.2803 24.661 39.9842 23.5912 40.0832 22.857C40.1258 22.541 40.1955 22.2295 40.2921 21.9255C40.6067 20.9358 41.7418 19.2354 40.546 18.1313Z" fill="#FFAA7B"/>
<path d="M17.4541 18.1313C17.9314 17.6907 18.9984 17.9141 19.4095 18.1838C19.3195 18.7488 19.3143 19.3268 19.3922 19.8975L19.8772 23.4567C19.8772 23.7436 19.8862 24.0251 19.9027 24.3016C18.7198 24.661 18.0159 23.5912 17.9169 22.857C17.8744 22.541 17.8047 22.2295 17.708 21.9255C17.3934 20.9358 16.2582 19.2354 17.4541 18.1313Z" fill="#FC9460"/>
<path d="M37.9947 16.2325C37.4571 15.3831 37.6352 14.6892 37.6439 13.8767C37.6439 13.8767 38.0974 10.1364 33.5247 8.80836C32.201 8.42387 30.3329 8.19395 28.4187 8.26789C27.0867 9.21395 26.2095 10.6022 26.2095 12.5693C26.2095 13.4734 26.4029 14.1799 25.8521 15.0965C25.2583 16.085 24.9127 17.5108 25.1089 19.0272L25.6032 22.8463C25.6032 28.3367 28.3657 32.0686 30.7156 34.0045C31.0499 34.2799 31.4067 34.5181 31.7788 34.723C32.2898 34.4963 32.7744 34.2069 33.2202 33.8581C35.527 32.0535 38.2389 28.5747 38.2389 23.4568L38.724 19.8976C38.9154 18.4952 38.5836 17.1635 37.9947 16.2325Z" fill="#FFC7AB"/>
<path d="M30.7396 33.7809C28.4328 31.8804 25.7208 28.2169 25.7208 22.8268L25.2356 19.0776C25.0429 17.5891 25.3821 16.1893 25.9652 15.2189C26.5057 14.319 26.3159 13.6255 26.3159 12.7378C26.3159 10.6198 27.3498 9.1836 28.8749 8.25618C24.811 8.31278 20.3558 9.70051 20.3558 13.8767C20.3558 14.7195 20.5458 15.3781 20.0051 16.2327C19.4221 17.1541 19.0829 18.4833 19.2755 19.8968L19.7607 23.4568C19.7607 28.5749 22.4726 32.0536 24.7796 33.8581C25.9837 34.8001 27.4696 35.3117 29 35.3117C30.0528 35.3117 31.0845 35.0696 32.0179 34.6118C31.5668 34.3861 31.1376 34.1088 30.7396 33.7809Z" fill="#FFAA7B"/>
<path d="M35.5311 27.5792C35.2613 25.9588 34.1007 24.3362 32.5513 23.9822L30.183 23.2813C29.7714 23.1595 29.3592 23.3722 29.1934 23.7334C29.1632 23.7993 29.0717 23.7993 29.0413 23.7334C28.8754 23.3722 28.4633 23.1595 28.0516 23.2813L25.6833 23.9822C25.6246 23.9956 25.5667 24.0113 25.5091 24.0283H25.5312C25.2803 24.6229 24.8466 26.0996 26.081 27.2278C26.4797 27.0228 26.9061 26.8659 27.3538 26.7663L27.7767 26.6722C28.3932 26.5351 28.8701 25.9288 29.0449 25.2827C29.0649 25.2085 29.1696 25.2085 29.1897 25.2827C29.3646 25.9288 29.8413 26.5351 30.4579 26.6722L30.881 26.7663C32.0968 27.0367 33.1621 27.7221 33.9157 28.6801C33.7597 29.3788 33.2705 30.4405 31.7546 30.9801C30.7374 31.3421 29.6275 30.6977 29.4972 29.6311C29.4955 29.6172 29.4939 29.6034 29.4924 29.5894C29.471 29.3905 29.3057 29.2376 29.1045 29.2376C28.9033 29.2376 28.7379 29.3905 28.7165 29.5894C28.715 29.6034 28.7134 29.6172 28.7117 29.6311C28.6417 30.2045 28.2874 30.6538 27.8178 30.8925C27.6873 31.4137 27.5141 32.5376 28.0542 33.6288C28.4448 34.4181 29.1305 35.0288 30.0964 35.4522C30.5856 35.3528 31.065 35.1887 31.5197 34.9555C33.8899 33.7399 37.041 31.6279 38.049 26.1947C38.1318 25.7479 38.1739 25.2937 38.1739 24.8392C37.7901 25.7931 36.9926 26.9406 35.5311 27.5792Z" fill="#945230"/>
<path d="M26.4633 34.9542C27.6871 35.5824 29.0859 35.7245 30.3901 35.3843C27.203 34.1398 27.8618 31.3365 28.0352 30.7616C27.5983 31.073 27.0127 31.179 26.4543 30.9803C25.0547 30.4821 24.4528 29.5386 24.1939 28.8469C24.7251 28.1149 25.4326 27.5286 26.2501 27.1444C24.9062 25.9737 25.544 24.3872 25.7513 23.9621L25.6833 23.9823C24.1032 24.3432 22.9268 26.0233 22.6878 27.6752C21.0712 27.0612 20.2297 25.8429 19.8262 24.8393V24.8397C19.8262 25.2936 19.8681 25.7472 19.9509 26.1934C20.9569 31.6256 24.093 33.7373 26.4633 34.9542Z" fill="#753616"/>
</svg>
