<svg width="60" height="60" viewBox="0 0 60 60" fill="none" xmlns="http://www.w3.org/2000/svg">
<path fill-rule="evenodd" clip-rule="evenodd" d="M29.9995 0C46.5678 0 60 13.4282 60 29.9958C60 46.5633 46.5678 60 29.9995 60C13.4313 60 0 46.563 0 29.9958C0 13.4286 13.4322 0 29.9995 0ZM31.4554 24.1772V33.5688C31.4553 33.6275 31.4668 33.6856 31.4892 33.7398C31.5117 33.7939 31.5446 33.8431 31.5861 33.8845C31.6277 33.9259 31.677 33.9587 31.7313 33.9809C31.7855 34.0032 31.8436 34.0145 31.9023 34.0142H36.3463C36.4048 34.0142 36.4627 34.0026 36.5167 33.9803C36.5708 33.9579 36.6199 33.9251 36.6612 33.8837C36.7026 33.8424 36.7354 33.7933 36.7577 33.7393C36.7801 33.6852 36.7916 33.6273 36.7916 33.5688V24.1772C36.7917 24.0589 36.7449 23.9454 36.6614 23.8617C36.5779 23.7779 36.4646 23.7307 36.3463 23.7303H31.9029C31.8441 23.7301 31.7859 23.7415 31.7316 23.7639C31.6773 23.7863 31.628 23.8192 31.5865 23.8608C31.5449 23.9023 31.512 23.9516 31.4896 24.0059C31.4673 24.0602 31.4558 24.1184 31.456 24.1772H31.4554ZM24.1051 27.1918C24.0463 27.1916 23.9881 27.203 23.9338 27.2254C23.8795 27.2478 23.8301 27.2807 23.7886 27.3222C23.747 27.3637 23.7141 27.4131 23.6917 27.4674C23.6693 27.5217 23.6579 27.5799 23.6581 27.6387V33.5684C23.6581 33.627 23.6697 33.685 23.6922 33.7392C23.7147 33.7933 23.7476 33.8425 23.7891 33.8838C23.8307 33.9252 23.8799 33.958 23.9342 33.9803C23.9884 34.0025 24.0465 34.0139 24.1051 34.0137H28.549C28.6671 34.0137 28.7804 33.9668 28.8639 33.8833C28.9474 33.7997 28.9943 33.6865 28.9943 33.5684V27.6387C28.9945 27.5801 28.9831 27.522 28.9608 27.4678C28.9386 27.4136 28.9058 27.3643 28.8644 27.3228C28.823 27.2813 28.7739 27.2483 28.7198 27.2259C28.6656 27.2034 28.6076 27.1918 28.549 27.1918H24.1051ZM25.5308 18.0253C25.5367 18.0841 25.5571 18.1405 25.5903 18.1894C25.6235 18.2383 25.6684 18.2782 25.7208 18.3055V17.7451C25.6685 17.7725 25.6238 17.8124 25.5906 17.8613C25.5575 17.9102 25.5369 17.9665 25.5308 18.0253ZM26.8048 19.7245C26.7987 19.6655 26.7779 19.609 26.7444 19.56C26.7109 19.5111 26.6657 19.4713 26.613 19.4443V20.0013C26.6653 19.9746 26.7102 19.9353 26.7437 19.887C26.7772 19.8387 26.7982 19.7829 26.8048 19.7245ZM25.5308 19.7245C25.5317 19.6651 25.5208 19.6061 25.4988 19.5509C25.4767 19.4958 25.4439 19.4455 25.4022 19.4032C25.3605 19.3608 25.3109 19.3272 25.2561 19.3043C25.2013 19.2813 25.1425 19.2695 25.083 19.2695C25.0236 19.2695 24.9648 19.2813 24.91 19.3043C24.8552 19.3272 24.8055 19.3608 24.7639 19.4032C24.7222 19.4455 24.6894 19.4958 24.6673 19.5509C24.6452 19.6061 24.6344 19.6651 24.6353 19.7245C24.6353 20.3081 25.0955 20.8034 25.7242 20.9635C25.7388 21.0708 25.7918 21.1691 25.8734 21.2403C25.9549 21.3115 26.0595 21.3507 26.1678 21.3507C26.276 21.3507 26.3806 21.3115 26.4622 21.2403C26.5437 21.1691 26.5967 21.0708 26.6113 20.9635C27.24 20.8034 27.7002 20.3081 27.7002 19.7245C27.7002 19.1386 27.2432 18.6455 26.613 18.4838V17.7455C26.6655 17.7729 26.7104 17.8128 26.7439 17.8617C26.7773 17.9105 26.7983 17.9669 26.8048 18.0257C26.8067 18.1432 26.8547 18.2553 26.9385 18.3377C27.0222 18.4201 27.135 18.4663 27.2525 18.4663C27.37 18.4663 27.4828 18.4201 27.5666 18.3377C27.6503 18.2553 27.6983 18.1432 27.7002 18.0257C27.7002 17.4398 27.24 16.9468 26.6113 16.7851C26.5967 16.6778 26.5437 16.5795 26.4622 16.5083C26.3806 16.4371 26.276 16.3979 26.1678 16.3979C26.0595 16.3979 25.9549 16.4371 25.8734 16.5083C25.7918 16.5795 25.7388 16.6778 25.7242 16.7851C25.0955 16.9468 24.6353 17.4404 24.6353 18.0257C24.6353 18.6093 25.0924 19.1029 25.7208 19.2648V20.0018C25.6687 19.975 25.624 19.9357 25.5908 19.8874C25.5576 19.8391 25.537 19.7832 25.5308 19.725V19.7245ZM26.166 15.9524C25.588 15.9526 25.0231 16.1242 24.5426 16.4454C24.0621 16.7667 23.6876 17.2232 23.4666 17.7573C23.2456 18.2913 23.1878 18.879 23.3008 19.4458C23.4137 20.0127 23.6922 20.5333 24.101 20.9419C24.5098 21.3505 25.0306 21.6287 25.5975 21.7413C26.1644 21.8539 26.752 21.7959 27.2859 21.5745C27.8199 21.3532 28.2762 20.9785 28.5972 20.4978C28.9182 20.0171 29.0894 19.4521 29.0892 18.8741C29.088 18.0993 28.7796 17.3566 28.2316 16.8089C27.6836 16.2612 26.9408 15.9532 26.166 15.9524ZM26.166 22.6908C26.921 22.6909 27.6591 22.4672 28.2869 22.0479C28.9147 21.6286 29.4041 21.0325 29.6931 20.3351C29.9822 19.6376 30.0579 18.8701 29.9107 18.1296C29.7635 17.3891 29.4001 16.7089 28.8663 16.175C28.3325 15.6411 27.6524 15.2774 26.912 15.1301C26.1715 14.9827 25.404 15.0583 24.7065 15.3471C24.009 15.636 23.4128 16.1252 22.9933 16.753C22.5739 17.3807 22.35 18.1187 22.35 18.8737C22.351 19.8857 22.7533 20.8559 23.4687 21.5717C24.184 22.2874 25.1541 22.6903 26.166 22.6918V22.6908ZM20.0471 17.4079C19.9438 17.4264 19.8502 17.4806 19.7827 17.5611C19.7152 17.6415 19.6782 17.7432 19.6781 17.8482V19.899C19.6782 20.004 19.7153 20.1056 19.7827 20.1861C19.8502 20.2666 19.9438 20.3208 20.0471 20.3393L20.9664 20.501C21.0633 20.8112 21.188 21.112 21.3391 21.3998L20.8033 22.1652C20.7432 22.2512 20.7153 22.3557 20.7245 22.4603C20.7337 22.5649 20.7795 22.6629 20.8537 22.7372L22.3041 24.1863C22.3781 24.261 22.476 24.3072 22.5806 24.3166C22.6853 24.3261 22.7899 24.2982 22.876 24.238L23.6415 23.701C23.929 23.8516 24.2291 23.9766 24.5385 24.0745L24.7026 24.995C24.721 25.0984 24.7753 25.1919 24.8557 25.2593C24.9362 25.3267 25.0379 25.3636 25.1429 25.3636H27.1936C27.2986 25.3636 27.4002 25.3267 27.4807 25.2593C27.5612 25.1919 27.6154 25.0984 27.6339 24.995L27.7956 24.0745C28.1057 23.9769 28.4065 23.8519 28.6944 23.701L29.4598 24.238C29.5463 24.2983 29.6513 24.3261 29.7563 24.3167C29.8613 24.3072 29.9596 24.2611 30.034 24.1863L31.4822 22.7387C31.5559 22.6641 31.6012 22.5662 31.6104 22.4617C31.6195 22.3573 31.5919 22.2529 31.5322 22.1667L30.9953 21.4013C31.1461 21.1134 31.2711 20.8126 31.3687 20.5025L32.2876 20.3408C32.3912 20.3227 32.4852 20.2686 32.5529 20.1881C32.6206 20.1075 32.6577 20.0057 32.6578 19.9005V17.8497C32.6577 17.7445 32.6206 17.6427 32.5529 17.5621C32.4852 17.4816 32.3912 17.4275 32.2876 17.4094L31.3687 17.2477C31.2711 16.9377 31.1461 16.6369 30.9953 16.3489L31.5322 15.5834C31.5918 15.4969 31.6194 15.3923 31.6103 15.2876C31.6012 15.1829 31.5559 15.0847 31.4822 15.0098L30.033 13.5608C29.9583 13.4866 29.8599 13.4409 29.755 13.4318C29.6501 13.4226 29.5453 13.4506 29.4588 13.5107L28.6935 14.0477C28.4061 13.896 28.1052 13.7715 27.7947 13.6758L27.633 12.7553C27.6146 12.6518 27.5604 12.558 27.48 12.4904C27.3995 12.4227 27.2978 12.3855 27.1927 12.3851H25.1419C25.0368 12.3854 24.9351 12.4227 24.8546 12.4903C24.7742 12.558 24.72 12.6518 24.7017 12.7553L24.5376 13.6758C24.2277 13.7718 23.9274 13.8963 23.6405 14.0477L22.8751 13.5107C22.789 13.4507 22.6846 13.4228 22.5801 13.4319C22.4755 13.4411 22.3775 13.4867 22.3032 13.5608L20.8537 15.009C20.7795 15.0835 20.7338 15.1818 20.7246 15.2866C20.7154 15.3915 20.7432 15.4962 20.8033 15.5826L21.3391 16.3481C21.1878 16.6357 21.063 16.9366 20.9664 17.2469L20.0471 17.4086V17.4079ZM39.698 34.0135H44.1403C44.1989 34.0138 44.257 34.0025 44.3113 33.9803C44.3656 33.958 44.4149 33.9253 44.4565 33.8839C44.498 33.8425 44.531 33.7933 44.5534 33.7391C44.5758 33.6849 44.5873 33.6268 44.5872 33.5681V22.2212H48.1856C48.2668 22.2212 48.3463 22.1991 48.4159 22.1573C48.4854 22.1155 48.5422 22.0556 48.5802 21.9839C48.6183 21.9123 48.6361 21.8317 48.6318 21.7507C48.6275 21.6697 48.6012 21.5914 48.5558 21.5241L42.2909 12.2475C42.2499 12.1869 42.1946 12.1373 42.1299 12.103C42.0652 12.0687 41.9931 12.0507 41.9199 12.0507C41.8467 12.0507 41.7746 12.0687 41.7099 12.103C41.6453 12.1373 41.59 12.1869 41.5489 12.2475L35.2824 21.5241C35.2375 21.5915 35.2116 21.6697 35.2076 21.7505C35.2035 21.8313 35.2214 21.9117 35.2594 21.9832C35.2973 22.0547 35.3539 22.1145 35.4232 22.1564C35.4924 22.1983 35.5717 22.2207 35.6526 22.2212H39.2511V33.5688C39.2511 33.6274 39.2627 33.6855 39.2852 33.7396C39.3077 33.7937 39.3406 33.8429 39.3821 33.8843C39.4236 33.9256 39.4729 33.9584 39.5271 33.9807C39.5813 34.003 39.6394 34.0144 39.698 34.0142V34.0135ZM15.1554 39.533C15.2165 39.5329 15.2762 39.5147 15.3269 39.4808C15.3776 39.4468 15.4171 39.3985 15.4405 39.3421C15.4638 39.2857 15.4699 39.2236 15.4579 39.1637C15.446 39.1038 15.4166 39.0488 15.3734 39.0057C15.3302 38.9625 15.2752 38.9331 15.2154 38.9212C15.1555 38.9092 15.0934 38.9153 15.037 38.9386C14.9806 38.9619 14.9323 39.0015 14.8983 39.0522C14.8644 39.1029 14.8462 39.1626 14.8461 39.2236C14.846 39.2643 14.8539 39.3045 14.8695 39.3421C14.885 39.3797 14.9078 39.4138 14.9365 39.4426C14.9653 39.4713 14.9994 39.4941 15.037 39.5096C15.0745 39.5251 15.1148 39.5331 15.1554 39.533ZM15.1554 38.0206C14.9174 38.0205 14.6846 38.091 14.4867 38.2233C14.2887 38.3555 14.1344 38.5435 14.0433 38.7634C13.9521 38.9833 13.9283 39.2254 13.9747 39.4588C14.0211 39.6923 14.1358 39.9068 14.3041 40.0752C14.4725 40.2435 14.687 40.3581 14.9205 40.4045C15.154 40.4509 15.396 40.4271 15.6159 40.3359C15.8358 40.2448 16.0238 40.0904 16.156 39.8924C16.2882 39.6944 16.3587 39.4617 16.3586 39.2236C16.358 38.9047 16.231 38.5991 16.0055 38.3736C15.78 38.1481 15.4743 38.0212 15.1554 38.0206ZM21.9221 35.5699L17.1859 37.6567L20.574 44.2329L22.1761 43.5254C22.2603 43.4884 22.3537 43.478 22.444 43.4955L32.9529 45.5889C33.0325 45.6069 33.1151 45.6076 33.1951 45.591C33.275 45.5744 33.3505 45.5409 33.4164 45.4927L45.2008 37.3489C45.4142 37.2021 45.5625 36.9784 45.6147 36.7247C45.667 36.471 45.619 36.207 45.481 35.9878L45.4593 35.9527C45.3326 35.7486 45.1366 35.597 44.9072 35.5256C44.6778 35.4543 44.4304 35.468 44.2103 35.5642L34.7417 39.6387C34.557 39.7623 34.3495 39.8476 34.1313 39.8896C34.0983 39.8957 34.0648 39.8981 34.0313 39.897L27.6564 39.6707C27.5379 39.6663 27.426 39.615 27.3453 39.528C27.2646 39.4411 27.2217 39.3257 27.2261 39.2072C27.2306 39.0886 27.2819 38.9767 27.3688 38.896C27.4557 38.8153 27.5711 38.7725 27.6897 38.7769L33.963 38.9996L34.2947 38.8554C34.3343 38.8253 34.3706 38.7911 34.4031 38.7535C34.4777 38.6742 34.5347 38.58 34.5703 38.4772C34.6059 38.3744 34.6194 38.2652 34.6099 38.1567V38.1422C34.6002 37.9558 34.5261 37.7785 34.4001 37.6407C34.2742 37.5028 34.1043 37.413 33.9195 37.3866L22.2629 35.5275C22.1476 35.5059 22.0284 35.5205 21.9217 35.5692L21.9221 35.5699ZM20.0788 45.8348C20.1445 45.8009 20.1941 45.7423 20.2167 45.6718C20.2392 45.6014 20.2329 45.5249 20.199 45.4591L15.9375 37.189C15.9212 37.1561 15.8983 37.1268 15.8702 37.103C15.8422 37.0793 15.8096 37.0615 15.7744 37.0507C15.7464 37.0421 15.7172 37.0376 15.6878 37.0374C15.6441 37.0374 15.601 37.0477 15.562 37.0674L11.5185 39.1517C11.4531 39.1858 11.4039 39.2443 11.3814 39.3145C11.3589 39.3847 11.365 39.4609 11.3983 39.5267L15.6609 47.7977C15.6776 47.8302 15.7005 47.8592 15.7284 47.8828C15.7563 47.9065 15.7886 47.9244 15.8234 47.9356C15.8583 47.9467 15.895 47.9509 15.9314 47.9478C15.9679 47.9448 16.0034 47.9346 16.0359 47.9178L20.0788 45.8348Z" fill="#407FEE"/>
</svg>
