<svg width="20" height="20" viewBox="0 0 20 20" fill="none" xmlns="http://www.w3.org/2000/svg">
<path d="M6.86753 0.548215C4.80433 1.2496 3.02504 2.58086 1.79099 4.34644C0.556939 6.11203 -0.0668139 8.21888 0.0113489 10.3575C0.0895116 12.4962 0.86547 14.5539 2.22525 16.2284C3.58502 17.903 5.45695 19.1061 7.56606 19.6611C9.27596 20.0934 11.0674 20.1124 12.7865 19.7164C14.3438 19.3736 15.7835 18.6404 16.9648 17.5885C18.1942 16.4603 19.0866 15.0251 19.5459 13.4371C20.0453 11.7103 20.1341 9.89428 19.8057 8.12854H10.2037V12.0317H15.7645C15.6534 12.6543 15.4152 13.2484 15.0643 13.7787C14.7134 14.3089 14.2569 14.7643 13.7222 15.1176C13.0431 15.5578 12.2777 15.8539 11.4749 15.9871C10.6698 16.1338 9.84404 16.1338 9.03894 15.9871C8.22295 15.8218 7.45103 15.4917 6.77235 15.018C5.68204 14.2617 4.86337 13.1872 4.43316 11.9479C3.99567 10.6854 3.99567 9.31674 4.43316 8.05424C4.73939 7.16929 5.24564 6.36354 5.91411 5.69714C6.67909 4.92053 7.64758 4.36541 8.71332 4.09267C9.77906 3.81994 10.9009 3.84013 11.9557 4.15104C12.7797 4.39891 13.5332 4.83199 14.1561 5.41575C14.7831 4.80447 15.4091 4.19162 16.0339 3.57718C16.3566 3.24678 16.7083 2.93218 17.0261 2.59387C16.0752 1.72672 14.959 1.05197 13.7415 0.608288C11.5245 -0.180587 9.0986 -0.201787 6.86753 0.548215Z" fill="white"/>
<path d="M6.86753 0.548215C9.09841 -0.202297 11.5242 -0.181659 13.7415 0.606704C14.9592 1.0534 16.0749 1.7314 17.0244 2.60178C16.7018 2.94008 16.3614 3.25626 16.0323 3.58508C15.4064 4.19741 14.781 4.80764 14.1561 5.41575C13.5332 4.83199 12.7797 4.39891 11.9557 4.15104C10.9012 3.83904 9.77942 3.81767 8.7134 4.08929C7.64737 4.36091 6.67829 4.91502 5.91247 5.69082C5.24399 6.35721 4.73775 7.16296 4.43152 8.04791L1.08728 5.5106C2.28431 3.18443 4.35693 1.40509 6.86753 0.548215Z" fill="#E33629"/>
<path d="M0.200037 8.02414C0.379785 7.15117 0.678169 6.30582 1.08728 5.5106L4.43155 8.05418C3.99407 9.31668 3.99407 10.6854 4.43155 11.9479C3.31734 12.791 2.2026 13.6384 1.08732 14.4899C0.0631546 12.4922 -0.249197 10.216 0.200037 8.02414Z" fill="#F8BD00"/>
<path d="M10.2037 8.12702H19.8057C20.1341 9.89276 20.0453 11.7088 19.546 13.4356C19.0866 15.0236 18.1942 16.4588 16.9648 17.587C15.8855 16.7618 14.8014 15.9428 13.7222 15.1176C14.2572 14.7639 14.714 14.3081 15.0649 13.7773C15.4158 13.2465 15.6538 12.6517 15.7645 12.0286H10.2037C10.2021 10.7292 10.2037 9.42809 10.2037 8.12702Z" fill="#587DBD"/>
<path d="M1.0857 14.4901C2.20099 13.6469 3.31573 12.7996 4.42994 11.948C4.86101 13.1877 5.68084 14.2622 6.77235 15.018C7.45315 15.4895 8.22674 15.8169 9.04379 15.9792C9.84889 16.1259 10.6747 16.1259 11.4798 15.9792C12.2825 15.8461 13.048 15.5499 13.727 15.1098C14.8063 15.935 15.8904 16.7539 16.9696 17.5791C15.7886 18.6315 14.3488 19.3653 12.7913 19.7085C11.0723 20.1046 9.28081 20.0856 7.57091 19.6532C6.21854 19.2994 4.95533 18.6756 3.86047 17.821C2.70162 16.9194 1.75512 15.7832 1.0857 14.4901Z" fill="#319F43"/>
</svg>
