<svg width="17" height="20" viewBox="0 0 17 20" fill="none" xmlns="http://www.w3.org/2000/svg">
<path fill-rule="evenodd" clip-rule="evenodd" d="M7.762 19.7281C7.762 19.7281 0.5 13.7354 0.5 7.83872C0.5 5.75976 1.34285 3.76595 2.84315 2.29591C4.34344 0.825863 6.37827 0 8.5 0C10.6217 0 12.6566 0.825863 14.1569 2.29591C15.6571 3.76595 16.5 5.75976 16.5 7.83872C16.5 13.7354 9.238 19.7281 9.238 19.7281C8.834 20.0926 8.169 20.0887 7.762 19.7281ZM8.5 11.2682C8.95963 11.2682 9.41475 11.1795 9.83939 11.0071C10.264 10.8348 10.6499 10.5821 10.9749 10.2637C11.2999 9.94524 11.5577 9.56719 11.7336 9.15111C11.9095 8.73503 12 8.28908 12 7.83872C12 7.38836 11.9095 6.94241 11.7336 6.52633C11.5577 6.11025 11.2999 5.73219 10.9749 5.41374C10.6499 5.09529 10.264 4.84267 9.83939 4.67033C9.41475 4.49798 8.95963 4.40928 8.5 4.40928C7.57174 4.40928 6.6815 4.77059 6.02513 5.41374C5.36875 6.05688 5 6.92917 5 7.83872C5 8.74826 5.36875 9.62055 6.02513 10.2637C6.6815 10.9068 7.57174 11.2682 8.5 11.2682Z" fill="black"/>
</svg>
