<svg width="60" height="60" viewBox="0 0 60 60" fill="none" xmlns="http://www.w3.org/2000/svg">
<path d="M60 19.4531V21.2109L56.4844 24.7266H17.6953L14.1797 21.2109V19.4531C14.1797 16.535 16.535 14.1797 19.4531 14.1797H54.7266C57.6446 14.1797 60 16.535 60 19.4531Z" fill="#17ACE8"/>
<path d="M60 19.4531V21.2109L56.4844 24.7266H47.6953V14.1797H54.7266C57.6446 14.1797 60 16.535 60 19.4531Z" fill="#1689FC"/>
<path d="M60 21.2109V28.2422L56.4844 31.7578H17.6953L14.1797 28.2422V21.2109H60Z" fill="#B7E0F6"/>
<path d="M60 21.2109V28.2422L56.4844 31.7578H47.6953V21.2109H60Z" fill="#A4D9F5"/>
<path d="M60 28.2422V40.5469C60 43.4647 57.6446 45.8203 54.7266 45.8203H19.4531C16.535 45.8203 14.1797 43.4647 14.1797 40.5469V28.2422H60Z" fill="#17ACE8"/>
<path d="M60 28.2422V40.5469C60 43.4647 57.6446 45.8203 54.7266 45.8203H47.6953V28.2422H60Z" fill="#1689FC"/>
<path d="M52.9688 37.0312C52.9688 38.0155 52.1954 38.7891 51.2109 38.7891H44.1797C43.1952 38.7891 42.4219 38.0155 42.4219 37.0312C42.4219 36.0468 43.1952 35.2734 44.1797 35.2734H51.2109C52.1954 35.2734 52.9688 36.0468 52.9688 37.0312Z" fill="#08469C"/>
<path d="M52.9688 37.0312C52.9688 38.0155 52.1954 38.7891 51.2109 38.7891H47.6953V35.2734H51.2109C52.1954 35.2734 52.9688 36.0468 52.9688 37.0312Z" fill="#063E8B"/>
<path d="M38.9062 10.6641V49.4531L35.3906 52.9688H3.51562L0 49.4531V10.6641L3.51562 7.03125H35.3906L38.9062 10.6641Z" fill="#08469C"/>
<path d="M38.9062 10.6641V49.4531L35.3906 52.9688H19.4531V7.03125H35.3906L38.9062 10.6641Z" fill="#063E8B"/>
<path d="M35.3906 7.03125H3.51562V52.9688H35.3906V7.03125Z" fill="#CAE8F9"/>
<path d="M35.3906 7.03125H19.4531V52.9688H35.3906V7.03125Z" fill="#B7E0F6"/>
<path d="M38.9062 49.4531V54.7266C38.9062 57.6446 36.5509 60 33.6328 60H5.27344C2.35535 60 0 57.6446 0 54.7266V49.4531H38.9062Z" fill="#08469C"/>
<path d="M38.9062 5.27344V10.6641H0V5.27344C0 2.35535 2.35535 0 5.27344 0H33.6328C36.5509 0 38.9062 2.35535 38.9062 5.27344Z" fill="#08469C"/>
<path d="M38.9062 49.4531V54.7266C38.9062 57.6446 36.5509 60 33.6328 60H19.4531V49.4531H38.9062Z" fill="#063E8B"/>
<path d="M38.9062 5.27344V10.6641H19.4531V0H33.6328C36.5509 0 38.9062 2.35535 38.9062 5.27344Z" fill="#063E8B"/>
<path d="M24.7266 33.5156C24.7266 35.7305 23.3202 37.6992 21.2461 38.4725H21.211V40.5469C21.211 41.5314 20.4376 42.3047 19.4531 42.3047C18.4687 42.3047 17.6953 41.5314 17.6953 40.5469V38.4725C16.5351 38.0858 15.4453 37.3478 14.4962 36.1875C13.8632 35.4491 13.9688 34.3593 14.7072 33.7266C15.4453 33.0938 16.5703 33.1991 17.168 33.9375C17.9064 34.8164 18.7149 35.2734 19.4533 35.2734C19.6642 35.2734 19.8751 35.2383 20.0508 35.1679C20.7539 34.922 21.2111 34.254 21.2111 33.5156C21.2111 32.5311 20.4378 31.7578 19.4533 31.7578C16.5352 31.7578 14.1798 29.4025 14.1798 26.4844C14.1798 24.3751 15.4455 22.4413 17.4141 21.6328C17.4845 21.5977 17.5899 21.5977 17.6955 21.5624V19.4531C17.6955 18.4686 18.4688 17.6953 19.4533 17.6953C20.4378 17.6953 21.2111 18.4686 21.2111 19.4531V21.5624C22.1251 21.8789 23.004 22.3359 23.8126 23.1093C24.5158 23.7772 24.5158 24.9022 23.8478 25.6055C23.1798 26.3087 22.0548 26.3086 21.3516 25.6406C20.7539 25.0431 20.086 24.7266 19.4531 24.7266C19.2071 24.7266 18.9961 24.7617 18.7852 24.8671C18.1172 25.1484 17.6953 25.7812 17.6953 26.4844C17.6953 27.4689 18.4687 28.2422 19.4531 28.2422C22.3712 28.2422 24.7266 30.5975 24.7266 33.5156Z" fill="#17ACE8"/>
<path d="M24.7266 33.5156C24.7266 35.7305 23.3202 37.6992 21.2461 38.4725H21.211V40.5469C21.211 41.5314 20.4376 42.3047 19.4531 42.3047L19.4531 35.2734C19.6641 35.2734 19.875 35.2383 20.0507 35.1679C20.7538 34.922 21.2109 34.254 21.2109 33.5156C21.2109 32.5311 20.4376 31.7578 19.4531 31.7578L19.4531 28.2422C22.3712 28.2422 24.7266 30.5975 24.7266 33.5156Z" fill="#1689FC"/>
<path d="M21.3514 25.6406C20.7539 25.0431 20.086 24.7266 19.4531 24.7266L19.4531 17.6953C20.4376 17.6953 21.2109 18.4686 21.2109 19.4531V21.5624C22.125 21.8789 23.0039 22.3359 23.8125 23.1093C24.5156 23.7772 24.5156 24.9022 23.8477 25.6055C23.1797 26.3087 22.0547 26.3086 21.3514 25.6406Z" fill="#1689FC"/>
</svg>
