<svg width="250" height="187" viewBox="0 0 250 187" fill="none" xmlns="http://www.w3.org/2000/svg">
<path d="M70.7655 102.464C70.7711 102.692 70.7771 102.927 70.7915 103.154C71.0433 108.704 71.9752 114.203 73.723 119.48C74.2898 121.187 74.9346 122.874 75.6663 124.533C77.9614 129.692 81.383 134.473 85.6362 138.264C88.1737 140.533 91.0174 142.445 94.0934 143.88C103.534 148.293 112.1 144.62 122.009 144.304C129.046 144.085 136.146 144.344 143.066 145.762C149.985 147.18 156.629 149.784 162.485 153.771C169.213 158.356 172.592 164.929 178.239 170.301C180.028 172.004 182.691 173.685 186.267 174.828C188.085 175.56 189.994 176.107 191.959 176.407C193.932 176.716 195.969 176.779 198.069 176.543C207.871 175.461 216.874 169.339 223.124 161.722C229.796 153.58 234.387 144.274 236.931 134.496C238.566 128.243 239.358 121.811 239.337 115.355C239.281 101.876 235.659 88.3543 228.583 76.4392C208.175 42.0705 164.682 17.7828 124.536 27.9125C124.162 28.0091 123.798 28.1058 123.425 28.2112C123.199 28.2605 122.965 28.3274 122.739 28.3943C121.559 28.7209 120.38 29.0907 119.22 29.4865C116.179 30.5318 113.222 31.7936 110.394 33.2881C108.17 34.4705 106.027 35.7908 103.975 37.2482C101.606 38.9411 99.3259 40.7014 97.1698 42.5374C95.4583 43.9781 93.8179 45.4689 92.2578 47.0192C88.6936 50.5329 85.5205 54.3248 82.7753 58.4734C81.4448 60.4725 80.2122 62.5562 79.1047 64.7327C77.6125 67.6094 76.3163 70.6468 75.2259 73.8631C73.1093 80.075 71.6384 86.6293 71.0345 93.2495C70.752 96.3144 70.6545 99.4006 70.7655 102.464Z" fill="#E7E7F7"/>
<path d="M169.877 94.2888C169.877 94.2888 162.459 97.7559 156.293 91.2551C150.127 84.7542 156.197 65.6842 156.197 65.6842L162.073 60.0498C162.073 60.0498 169.009 59.8333 169.106 60.5915C169.203 61.3496 172.574 79.9862 172.574 79.9862L169.877 94.2888Z" fill="#2E2C41"/>
<path d="M148.875 39.2459C148.875 39.2459 134.428 34.6275 130.192 51.7477C127.289 63.4816 137.057 70.6775 135.772 79.4901C134.487 88.3027 130.564 84.0694 127.391 91.3633C124.257 98.5685 135.523 108.894 137.193 108.46C138.862 108.027 145.504 101.476 149.229 98.4421C152.954 95.4084 155.137 81.8283 155.137 81.8283L151.413 49.0341L148.875 39.2459Z" fill="#2E2C41"/>
<path d="M166.792 73.4277C166.792 73.4277 165.7 80.7611 166.483 85.0092C167.694 91.5793 170.598 100.964 170.598 100.964L153.424 110.941C153.424 110.941 147.146 100.975 147.189 100.825C147.231 100.674 146.256 86.9767 146.256 86.9767L166.792 73.4277Z" fill="#FDB096"/>
<path d="M138.123 43.8875C138.123 43.8875 129.873 51.7621 132.001 66.3945C134.13 81.0264 142.267 92.3198 148.94 91.3963C155.613 90.4731 164.842 79.6875 167.348 72.6672C169.853 65.647 170.745 52.3414 164.148 44.3846C157.551 36.4277 145.489 38.9025 138.123 43.8875Z" fill="#FDB096"/>
<path d="M145.205 82.0838C145.205 82.0838 149.018 85.8803 151.686 81.2355L145.205 82.0838Z" fill="white"/>
<path d="M139.677 65.0736C139.677 65.0736 136.246 62.6523 134.373 66.6179L139.677 65.0736Z" fill="#2E2C41"/>
<path d="M139.346 72.4927C140.055 72.4161 140.546 71.5775 140.443 70.6196C140.339 69.6617 139.681 68.9473 138.972 69.0239C138.262 69.1005 137.771 69.9391 137.875 70.897C137.978 71.8549 138.637 72.5693 139.346 72.4927Z" fill="#2E2C41"/>
<path d="M152.211 70.9851C152.921 70.9085 153.412 70.0699 153.308 69.112C153.205 68.1542 152.546 67.4398 151.837 67.5164C151.128 67.593 150.637 68.4316 150.74 69.3895C150.844 70.3473 151.502 71.0617 152.211 70.9851Z" fill="#2E2C41"/>
<path d="M145.352 73.3515L145.26 76.821L146.651 76.8164" stroke="#2E2C41" stroke-width="1.0637" stroke-miterlimit="10" stroke-linecap="round" stroke-linejoin="round"/>
<path d="M149.332 63.8444C149.332 63.8444 152.168 60.7466 154.843 64.2212L149.332 63.8444Z" fill="#2E2C41"/>
<path d="M126.856 99.0103C126.856 99.0103 120.113 103.078 117.116 123.845C114.119 144.612 111.228 154.888 111.228 154.888L85.1094 174.156L106.983 183.843C106.983 183.843 126.429 172.55 131.139 159.704C135.849 146.859 137.562 105.433 137.562 105.433L126.856 99.0103Z" fill="#EF4444"/>
<path d="M134.6 176.725C135.548 170.024 135.848 161.676 133.277 155.05C128.136 141.773 128.835 137.169 130.545 125.177C132.266 113.198 126.863 99.0103 126.863 99.0103L146.017 91.511C146.017 91.511 146.068 102.866 155.276 101.581C164.485 100.295 167.804 86.6441 167.804 86.6441C167.804 86.6441 186.958 86.5944 194.458 90.3375C194.458 90.3375 193.335 113.996 193.759 132.19C194.059 144.98 196.267 165.606 197.552 176.725L134.6 176.725Z" fill="#EF4444"/>
<path d="M133.278 155.048C128.14 141.775 128.836 137.172 130.548 125.183C130.961 122.294 130.96 119.278 130.721 116.364" stroke="#2E2C41" stroke-width="1.0637" stroke-miterlimit="10" stroke-linecap="round" stroke-linejoin="round"/>
<path d="M173.208 98.7204C180.107 85.8357 177.672 89.0316 181.324 88.5243C187.1 87.7219 185.051 82.6153 178.128 72.8498C174.046 67.09 172.884 58.0014 172.802 51.3923C172.65 39.0656 158.193 29.9348 148.874 39.2459C148.874 39.2459 144.347 40.0765 142.355 47.8057C142.355 47.8057 150.511 60.6746 162.682 62.6537C172.041 64.1756 166.917 71.4584 165.954 78.1762C164.991 84.894 170.735 103.339 173.208 98.7204Z" fill="#2E2C41"/>
<path d="M166.93 73.45C170.786 72.1274 173.128 62.7638 170.245 61.429C167.362 60.0943 166.266 63.4802 166.266 63.4802L166.93 73.45Z" fill="#FDB096"/>
<path d="M167.275 68.6254C167.275 68.6254 167.17 63.7524 168.54 63.4295C169.591 63.1819 170.047 64.9733 170.047 64.9733" stroke="#2E2C41" stroke-width="1.0637" stroke-miterlimit="10" stroke-linecap="round" stroke-linejoin="round"/>
<path d="M167.572 65.2591C167.572 65.2591 168.305 63.8295 169.284 64.8" stroke="#2E2C41" stroke-width="1.0637" stroke-miterlimit="10" stroke-linecap="round" stroke-linejoin="round"/>
<path d="M142.356 47.8057C142.356 47.8057 132.103 54.7363 132.424 68.5329C132.424 68.5329 128.806 57.9196 132.465 50.2615C137.547 39.6236 148.264 39.5706 148.264 39.5706C148.264 39.5706 145.815 39.9283 142.356 47.8057Z" fill="#2E2C41"/>
<path d="M159.673 177.821L160.025 178.815C160.356 179.749 159.993 180.787 159.153 181.312L135.227 186H131.51L129.264 183.677L155.852 178.425L159.673 177.821Z" fill="#2E2C41"/>
<path d="M132.893 183.121L159.674 177.821L117.525 176.365L132.893 183.121Z" fill="#2E2C41"/>
<path d="M132.637 182.762L159.674 177.821" stroke="white" stroke-width="0.6715" stroke-miterlimit="10"/>
<path d="M58.1037 184.564H133.151L118.385 139.299C118.096 138.413 117.27 137.813 116.338 137.813H45.8211C44.3572 137.813 43.3198 139.243 43.7737 140.635L58.1037 184.564Z" fill="#2E2C41"/>
<path d="M58.104 184.564L131.511 186L116.818 140.959C116.486 139.939 115.535 139.249 114.462 139.249H44.6289C42.9438 139.249 41.7499 140.894 42.2725 142.496L58.104 184.564Z" fill="#2E2C41"/>
<path d="M86.1454 167.758C88.3511 167.215 89.6045 164.603 88.945 161.924C88.2856 159.244 85.9629 157.512 83.7573 158.055C81.5517 158.598 80.2983 161.21 80.9577 163.89C81.6172 166.569 83.9398 168.301 86.1454 167.758Z" fill="#E7E7F7"/>
<path d="M131.511 186L116.818 140.959C116.486 139.939 115.535 139.249 114.462 139.249H44.6289" stroke="white" stroke-width="0.6715" stroke-miterlimit="10"/>
<path d="M131.011 174.223C131.269 171.249 135.031 166.832 135.031 166.832C135.031 166.832 131.085 167.571 130.556 169.176C130.028 170.785 131.011 174.223 131.011 174.223Z" fill="#FDB096"/>
<path d="M132.537 176.11C132.537 176.11 132.046 179.274 134.756 179.408C134.756 179.408 135.746 181.438 137.851 180.844C137.851 180.844 138.159 182.23 141.209 181.099C144.254 179.964 146.176 179.161 149.156 178.748C152.141 178.334 157.964 175.693 157.964 175.693L155.119 165.053C155.119 165.053 146.64 161.817 144.82 161.919C142.995 162.023 137.588 164.937 136.699 165.428C135.81 165.923 135.032 166.831 135.032 166.831C135.032 166.831 131.27 171.249 131.012 174.223C131.012 174.223 131.053 176.286 132.537 176.11Z" fill="#FDB096"/>
<path d="M157.963 175.693L166.035 172.344L163.672 165.092L159.75 162.889L155.614 163.373L153.089 163.427L150.457 164.286L155.399 171.807L157.963 175.693Z" fill="#FDB096"/>
<path d="M132.537 176.111C132.537 176.111 135.77 172.217 137.534 170.82C139.297 169.424 143.549 167.075 143.549 167.075" stroke="#2E2C41" stroke-width="1.0637" stroke-miterlimit="10" stroke-linecap="round" stroke-linejoin="round"/>
<path d="M134.758 179.408C134.758 179.408 138.142 176.079 139.902 174.907C141.661 173.735 145.205 171.959 145.205 171.959" stroke="#2E2C41" stroke-width="1.0637" stroke-miterlimit="10" stroke-linecap="round" stroke-linejoin="round"/>
<path d="M137.854 180.845C137.854 180.845 140.052 179.524 142.528 178.288C145.004 177.052 147.04 176.316 147.04 176.316" stroke="#2E2C41" stroke-width="1.0637" stroke-miterlimit="10" stroke-linecap="round" stroke-linejoin="round"/>
<path d="M194.455 90.3398C194.455 90.3398 205.79 94.8356 206.433 116.887C207.075 138.938 209.644 164.201 199.796 169.553C189.948 174.905 154.818 177.11 154.818 177.11C154.818 177.11 160.04 163.666 151.904 163.773L185.409 151.034C185.409 151.034 186.103 123.672 185.463 115.068C184.339 99.9738 191.243 90.6609 194.455 90.3398Z" fill="#EF4444"/>
<path d="M151.904 163.772L185.409 151.034C185.409 151.034 186.103 123.671 185.463 115.067" stroke="#2E2C41" stroke-width="1.0637" stroke-miterlimit="10" stroke-linecap="round" stroke-linejoin="round"/>
<path d="M185.41 151.034C185.41 151.034 193.01 150.07 196.222 152.961" stroke="#2E2C41" stroke-width="1.0637" stroke-miterlimit="10" stroke-linecap="round" stroke-linejoin="round"/>
<path d="M148.874 39.2459C148.874 39.2459 143.512 43.0015 142.355 47.8057" stroke="#2E2C41" stroke-width="1.0637" stroke-miterlimit="10" stroke-linecap="round" stroke-linejoin="round"/>
<path d="M1.97287 82.3538H81.4405C82.1146 82.3538 82.6614 82.9006 82.6614 83.5752V116.552C82.6614 117.227 82.1146 117.773 81.4405 117.773H78.0068V123.752L67.1417 117.773H1.97287C1.29876 117.773 0.751953 117.227 0.751953 116.552V83.5752C0.751953 82.9006 1.29876 82.3538 1.97287 82.3538Z" fill="#2E2C41"/>
<path d="M3.79123 79.4218H83.2588C83.9329 79.4218 84.4797 79.9686 84.4797 80.6432V113.62C84.4797 114.295 83.9329 114.841 83.2588 114.841H79.8251V120.82L68.96 114.841H3.79123C3.11712 114.841 2.57031 114.295 2.57031 113.62V80.6432C2.56985 79.9686 3.11712 79.4218 3.79123 79.4218Z" fill="white" stroke="#2E2C41" stroke-width="1.2343" stroke-miterlimit="10"/>
<path d="M119.264 47.7849H39.7971C39.123 47.7849 38.5762 48.3317 38.5762 49.0063V81.983C38.5762 82.6576 39.123 83.2044 39.7971 83.2044H43.2308V89.1836L54.0959 83.2044H119.265C119.939 83.2044 120.486 82.6576 120.486 81.983V49.0063C120.486 48.3317 119.939 47.7849 119.264 47.7849Z" fill="#2E2C41"/>
<path d="M121.194 44.964H41.7268C41.0527 44.964 40.5059 45.5108 40.5059 46.1854V79.1621C40.5059 79.8367 41.0527 80.3835 41.7268 80.3835H45.1605V86.3626L56.0256 80.3835H121.195C121.869 80.3835 122.416 79.8367 122.416 79.1621V46.1854C122.415 45.5108 121.868 44.964 121.194 44.964Z" fill="white" stroke="#2E2C41" stroke-width="1.2343" stroke-miterlimit="10"/>
<path d="M105.956 72.6362C111.181 72.6362 115.417 68.4001 115.417 63.1746C115.417 57.949 111.181 53.7129 105.956 53.7129C100.73 53.7129 96.4941 57.949 96.4941 63.1746C96.4941 68.4001 100.73 72.6362 105.956 72.6362Z" fill="#FF9898"/>
<path d="M105.953 62.8452C107.181 62.8452 108.177 61.8493 108.177 60.6208C108.177 59.3923 107.181 58.3964 105.953 58.3964C104.724 58.3964 103.729 59.3923 103.729 60.6208C103.729 61.8493 104.724 62.8452 105.953 62.8452Z" fill="white"/>
<path d="M102.436 67.9528H109.474V64.9516C109.474 64.4824 109.093 64.1019 108.624 64.1019H103.286C102.817 64.1019 102.436 64.4824 102.436 64.9516V67.9528H102.436Z" fill="white"/>
<path d="M85.9051 56.4567H47.4961" stroke="#EF4444" stroke-width="1.376" stroke-miterlimit="10"/>
<path d="M85.9051 63.1745H47.4961" stroke="#EF4444" stroke-width="1.376" stroke-miterlimit="10"/>
<path d="M70.9423 69.8923H47.8652" stroke="#EF4444" stroke-width="1.376" stroke-miterlimit="10"/>
<path d="M17.9167 107.884C23.1422 107.884 27.3783 103.648 27.3783 98.4226C27.3783 93.1971 23.1422 88.961 17.9167 88.961C12.6912 88.961 8.45508 93.1971 8.45508 98.4226C8.45508 103.648 12.6912 107.884 17.9167 107.884Z" fill="#EF4444"/>
<path d="M17.9158 98.0932C19.1443 98.0932 20.1402 97.0973 20.1402 95.8688C20.1402 94.6403 19.1443 93.6444 17.9158 93.6444C16.6873 93.6444 15.6914 94.6403 15.6914 95.8688C15.6914 97.0973 16.6873 98.0932 17.9158 98.0932Z" fill="white"/>
<path d="M21.4349 103.2H14.3965V100.199C14.3965 99.73 14.777 99.3495 15.2462 99.3495H20.5847C21.0539 99.3495 21.4344 99.73 21.4344 100.199L21.4349 103.2Z" fill="white"/>
<path d="M37.9688 91.7048H76.3778" stroke="#EF4444" stroke-width="1.376" stroke-miterlimit="10"/>
<path d="M37.9688 98.4226H76.3778" stroke="#EF4444" stroke-width="1.376" stroke-miterlimit="10"/>
<path d="M37.9688 105.14H61.0458" stroke="#EF4444" stroke-width="1.376" stroke-miterlimit="10"/>
<path d="M234.169 156.854C242.496 156.854 249.246 150.103 249.246 141.777C249.246 133.45 242.496 126.7 234.169 126.7C225.842 126.7 219.092 133.45 219.092 141.777C219.092 150.103 225.842 156.854 234.169 156.854Z" fill="#FF9898"/>
<path d="M227.143 134.522C227.15 134.516 227.158 134.511 227.168 134.505C227.457 134.297 227.723 134.067 227.974 133.842L228.069 133.76C228.218 133.629 228.357 133.507 228.515 133.382C229.234 132.798 230.045 132.872 230.633 133.575L232.633 135.927C232.922 136.244 233.064 136.62 233.033 136.992C233.003 137.361 232.807 137.708 232.466 137.998L231.002 139.239C230.956 139.28 230.908 139.327 230.902 139.387C230.902 139.399 230.899 139.425 230.921 139.485C230.925 139.495 230.93 139.503 230.935 139.512C231.003 139.651 231.066 139.802 231.127 139.959C231.184 140.101 231.248 140.262 231.326 140.409C231.992 141.681 232.902 142.863 234.112 144.016C234.115 144.021 234.118 144.024 234.121 144.029C234.784 144.64 235.343 145.052 235.928 145.353L235.933 145.355C236.063 145.409 236.095 145.412 236.197 145.327C236.199 145.324 236.202 145.322 236.205 145.32C236.536 145.005 236.868 144.721 237.263 144.394C237.345 144.321 237.429 144.25 237.514 144.179L237.632 144.082C238.35 143.474 239.142 143.538 239.751 144.255L240.738 145.416C240.798 145.486 240.861 145.555 240.919 145.628C240.977 145.693 241.034 145.756 241.091 145.821C241.342 146.11 241.551 146.353 241.755 146.608L241.758 146.612C242.036 146.94 242.166 147.306 242.136 147.674C242.107 148.033 241.921 148.378 241.599 148.669C241.594 148.675 241.59 148.678 241.585 148.684L240.126 149.923C239.659 150.317 239.111 150.521 238.497 150.524C237.663 150.525 236.827 150.307 235.789 149.818C234.157 149.058 232.668 147.993 231.1 146.461C229.219 144.605 227.792 142.442 226.856 140.024C226.51 139.121 226.117 137.919 226.14 136.624C226.142 136.553 226.148 136.475 226.154 136.405C226.22 135.616 226.543 135 227.143 134.522Z" fill="white"/>
<path d="M230.739 105.422C239.066 105.422 245.816 98.6718 245.816 90.345C245.816 82.0182 239.066 75.268 230.739 75.268C222.412 75.268 215.662 82.0182 215.662 90.345C215.662 98.6718 222.412 105.422 230.739 105.422Z" fill="#EF4444"/>
<path d="M237.816 95.6704H223.665C223.129 95.6704 222.695 95.2365 222.695 94.7009V85.9881C222.695 85.453 223.129 85.0186 223.665 85.0186H237.816C238.351 85.0186 238.785 85.4525 238.785 85.9881V94.7009C238.785 95.2365 238.351 95.6704 237.816 95.6704Z" fill="white"/>
<path d="M237.657 85.8405L230.74 90.8728L223.824 85.8405" stroke="#2E2C41" stroke-width="0.6035" stroke-miterlimit="10" stroke-linecap="round" stroke-linejoin="round"/>
<path d="M147.037 7.90119C147.037 7.90119 150.702 7.49886 149.973 1.87885C149.973 1.87885 152.385 1.37292 152.716 3.37294C153.046 5.37341 152.953 7.18899 152.953 7.18899L158.772 6.6222C160.008 6.50188 161.125 7.36692 161.309 8.59434C161.772 11.6875 162.206 17.0706 159.803 17.9263C156.398 19.1389 153.472 19.006 152.775 18.803C152.077 18.6 149.33 18.4499 148.055 18.574L147.037 7.90119Z" fill="#E7E7F7"/>
<path d="M147.757 18.8964L144.602 19.2039C144.299 19.2332 144.03 19.0121 144.001 18.7096L143.003 8.46241C142.973 8.15997 143.194 7.89098 143.497 7.86171L146.652 7.55416C146.955 7.52489 147.224 7.74603 147.253 8.04847L148.251 18.2957C148.281 18.5981 148.06 18.8671 147.757 18.8964Z" fill="#2E2C41"/>
<path d="M102.099 27.6594C106.072 29.7331 108.704 32.4297 109.995 35.7494C111.323 39.0884 110.999 42.6516 109.022 46.4389C107.2 49.9292 104.625 52.0575 101.296 52.8239C98.0228 53.5725 94.5017 52.9867 90.7321 51.0664L88.2734 55.0983L79.919 50.7378L85.0475 40.233L88.3893 41.9772C91.2483 43.4694 93.6046 44.2504 95.458 44.3201C97.3486 44.4092 98.7784 43.5255 99.7474 41.669C100.426 40.3694 100.606 39.1642 100.288 38.0534C99.9701 36.9425 99.18 36.0577 97.9175 35.3987C96.5808 34.7011 95.3377 34.5483 94.1881 34.9404C93.0579 35.2954 92.1536 36.1227 91.4753 37.4223L82.5082 32.742C83.6162 30.4383 85.1462 28.6384 87.0983 27.3422C89.0876 26.0655 91.3561 25.4305 93.9038 25.4374C96.508 25.4265 99.2396 26.1672 102.099 27.6594ZM76.6494 67.4572C74.9785 66.5851 73.8566 65.3853 73.2837 63.8579C72.7673 62.3127 72.887 60.8161 73.6428 59.368C74.418 57.8827 75.5871 56.9102 77.15 56.4503C78.75 56.0098 80.3855 56.2256 82.0564 57.0977C83.6901 57.9504 84.7652 59.1494 85.2816 60.6945C85.8351 62.2591 85.7243 63.784 84.9491 65.2692C84.1933 66.7173 83.0153 67.6616 81.4153 68.1021C79.8717 68.5249 78.2831 68.3099 76.6494 67.4572Z" fill="#E7E7F7"/>
<path d="M205.091 65.1016C213.417 65.1016 220.168 58.3514 220.168 50.0246C220.168 41.6978 213.417 34.9476 205.091 34.9476C196.764 34.9476 190.014 41.6978 190.014 50.0246C190.014 58.3514 196.764 65.1016 205.091 65.1016Z" fill="#FF9898"/>
<path d="M205.514 60.3429C199.808 60.3429 195.166 55.7004 195.166 49.9949C195.166 46.7828 196.621 43.8067 199.155 41.8299L200.289 43.2835C198.205 44.9086 197.009 47.3547 197.009 49.9949C197.009 54.6843 200.824 58.4994 205.514 58.4994C210.203 58.4994 214.019 54.6843 214.019 49.9949C214.019 45.3054 210.203 41.4903 205.514 41.4903V39.6468C211.22 39.6468 215.862 44.2894 215.862 49.9949C215.862 55.7004 211.22 60.3429 205.514 60.3429Z" fill="white"/>
<path d="M202.615 40.5388L205.746 38.2085V42.8687L202.615 40.5388Z" fill="white"/>
<path d="M200.691 52.1487C202.067 51.0128 203.531 49.8852 203.531 48.7939C203.531 48.3238 203.318 48.0218 202.856 48.0218C202.403 48.0218 202.138 48.3767 202.138 48.9895H200.674C200.718 47.4183 201.739 46.7442 202.919 46.7442C204.392 46.7442 205.048 47.6051 205.048 48.6964C205.048 50.1161 203.78 51.252 202.751 52.0423H205.147V53.2757H200.692L200.691 52.1487Z" fill="white"/>
<path d="M208.83 52.2109H205.848V50.9858L208.652 46.9746H210.347V50.8975H211.074V52.2114H210.347V53.3649H208.829L208.83 52.2109ZM208.936 50.8971V48.6434L207.446 50.8971H208.936Z" fill="white"/>
<path d="M168.637 74.0386C171.562 73.7089 173.559 70.1133 173.096 66.0076C172.633 61.9019 169.887 58.8409 166.961 59.1707C164.036 59.5004 162.039 63.096 162.502 67.2017C162.965 71.3074 165.711 74.3684 168.637 74.0386Z" fill="#EF4444"/>
<path d="M169.607 72.29C171.896 72.0321 173.457 69.2193 173.095 66.0075C172.733 62.7958 170.585 60.4012 168.296 60.6592C166.008 60.9171 164.446 63.7299 164.808 66.9416C165.17 70.1534 167.319 72.548 169.607 72.29Z" fill="white"/>
<path d="M168.872 65.9002C168.872 65.9002 155.424 39.428 143.672 38.7618C143.672 38.7618 148.033 36.5811 150.881 37.7318C153.728 38.8826 163.36 48.4339 170.75 63.7799" fill="#E7E7F7"/>
<path d="M169.337 67.0106C169.337 67.0106 164.895 79.53 153.506 83.8107" stroke="#2E2C41" stroke-width="1.343" stroke-miterlimit="10"/>
<path d="M170.709 69.0428C171.836 68.9157 172.606 67.5298 172.427 65.9472C172.249 64.3647 171.19 63.1848 170.063 63.3118C168.935 63.4389 168.166 64.8248 168.344 66.4074C168.523 67.99 169.581 69.1699 170.709 69.0428Z" fill="#E7E7F7"/>
<path d="M152.581 86.2658C154.082 85.821 155.052 84.6281 154.748 83.6015C154.444 82.5749 152.98 82.1033 151.479 82.5482C149.978 82.9931 149.008 84.186 149.313 85.2126C149.617 86.2392 151.08 86.7107 152.581 86.2658Z" fill="#EF4444"/>
</svg>
