<svg width="174" height="186" viewBox="0 0 174 186" fill="none" xmlns="http://www.w3.org/2000/svg">
<path d="M163.686 186H6.35813C6.35813 186 -0.301156 167.883 0.580391 156.822C1.46406 145.76 5.5544 141.351 14.3808 136.863C23.2053 132.373 41.5778 124.919 51.5257 119.668C61.4736 114.418 64.3625 115.461 64.3625 115.461C64.3625 115.461 77.1194 122.614 86.0237 122.604C94.9301 122.594 114.024 124.919 114.024 124.919L123.454 125.802C123.454 125.802 137.933 132.213 143.468 135.099C149.004 137.984 154.62 146.137 157.988 159.173C161.359 172.212 163.686 186 163.686 186Z" fill="#DA5542"/>
<path d="M56.4258 186H54.1603C53.5841 184.777 52.7497 183.04 51.7164 180.973C51.7164 180.973 36.8437 163.395 25.8521 155.058C33.8031 158.673 43.1996 168.25 47.5563 172.994C44.7823 167.908 41.508 162.373 38.2091 157.864C29.8378 146.424 21.6202 142.593 21.3661 142.476C21.6285 142.529 30.1167 144.387 40.936 158.987C47.4662 167.797 53.006 178.646 56.4258 186Z" fill="#B2352F"/>
<path d="M146.753 153.628C146.614 154.167 142.212 171.015 136.944 186H134.595C135.097 178.234 137.129 146.241 137.129 146.241C137.129 146.241 137.674 161.474 136.694 182.528L146.753 153.628Z" fill="#B2352F"/>
<path d="M108.917 186H107.427C108.054 183.663 108.999 180.113 109.895 176.595L74.5011 164.088C72.3586 172.3 69.6604 182.843 68.8546 186H67.6101C68.9141 180.631 75.4176 153.902 75.9958 152.895C76.6375 151.772 79.0446 151.131 81.7181 151.131C84.3937 151.131 80.6889 152.372 80.6889 152.372C80.6889 152.372 77.8144 152.573 77.3326 153.616C77.1686 153.97 76.1044 157.954 74.7718 163.053L110.158 175.559C111.404 170.614 112.483 165.982 112.366 165.185C112.099 163.368 105.36 160.216 105.36 160.216L104.171 158.368C104.171 158.368 113.383 162.352 113.649 164.704C113.823 166.163 110.51 179.646 108.917 186Z" fill="#B2352F"/>
<path d="M123.653 125.154C123.109 126.707 121.551 127.77 120.475 128.344C119.868 128.665 119.413 128.833 119.376 128.846L119.374 128.848C117.149 134.809 113.557 138.992 108.194 140.87L105.36 160.216L80.6889 152.372L86.3458 133.616L86.0239 132.092C85.6918 132.17 85.3637 132.242 85.0357 132.312C70.3926 135.399 59.4889 130.626 51.5257 119.668C54.9353 110.891 54.8557 96.703 54.8557 96.703C54.8557 96.703 53.7732 91.4139 52.6496 89.6297C51.526 87.8454 48.8791 82.5562 48.8791 82.5562L47.1138 80.5119C44.7478 77.1053 44.5858 71.9739 44.5858 71.9739C44.5858 71.9739 42.2997 67.1252 49.4797 62.4281C56.6618 57.7289 55.5772 63.4789 55.2575 53.0584C54.9356 42.6378 59.5898 43.5187 67.1306 38.7498C74.6715 33.981 94.5285 33.4197 98.3789 35.0216C102.231 36.6255 104.677 47.0052 104.677 51.2147C105.079 53.6197 105.52 55.8238 105.038 58.9068C104.556 61.9917 105.52 65.8019 106.283 69.5301C106.906 72.5885 106.238 83.9739 105.975 87.9705C105.918 88.8472 105.881 89.3696 105.881 89.3696C106.072 88.9947 106.266 88.6464 106.467 88.3229C109.424 83.5274 113.239 84.3386 112.3 89.3696C111.382 94.2818 107.285 103.236 107.285 103.236C112.741 104.639 114.826 106.562 114.386 108.847C120.122 109.57 119.907 113.029 119.907 113.029C126.861 114.846 124.645 122.323 123.653 125.154Z" fill="#EAB08A"/>
<path d="M75.1735 65.1614C75.1735 65.1614 74.7924 68.9288 78.5431 69.6302C81.9262 70.2629 83.2766 68.3476 83.6175 66.4439C83.9585 64.5401 82.9355 63.1774 81.8124 62.5361C80.6891 61.895 75.5746 64.2596 75.1735 65.1614Z" fill="#F9FDFE"/>
<path d="M95.0501 63.939C95.0501 63.939 95.9928 67.8066 99.0014 67.7866C102.01 67.7666 103.554 64.8007 102.17 61.915C100.786 59.0293 97.0759 61.0734 95.0501 63.939Z" fill="#F9FDFE"/>
<path d="M71.2223 61.4541C71.2223 61.4541 73.6693 58.9292 75.8153 58.2478C77.9614 57.5664 87.0874 56.1637 88.331 56.3441C89.5746 56.5244 89.4542 61.1335 87.5287 61.3539C85.6031 61.5743 71.2223 61.4541 71.2223 61.4541Z" fill="#553C38"/>
<path d="M73.2881 66.4439C73.2881 66.4439 76.4371 64.3798 79.245 63.3979C82.0529 62.416 83.9785 63.6784 84.6204 64.5C84.3797 62.8768 82.5345 61.6343 79.2852 62.3357C76.0359 63.0371 73.7495 65.5823 73.2881 66.4439Z" fill="#553C38"/>
<path d="M81.0803 68.4478C82.4816 68.4478 83.6175 67.2097 83.6175 65.6824C83.6175 64.1551 82.4816 62.9169 81.0803 62.9169C79.679 62.9169 78.543 64.1551 78.543 65.6824C78.543 67.2097 79.679 68.4478 81.0803 68.4478Z" fill="#553C38"/>
<path d="M99.9361 66.5259C101.214 66.5259 102.251 65.2877 102.251 63.7604C102.251 62.2331 101.214 60.9949 99.9361 60.9949C98.6578 60.9949 97.6215 62.2331 97.6215 63.7604C97.6215 65.2877 98.6578 66.5259 99.9361 66.5259Z" fill="#553C38"/>
<path d="M95.0501 63.939C95.0501 63.939 96.8552 61.414 99.4627 61.2938C102.07 61.1736 103.454 63.418 103.454 63.418C103.454 63.418 103.213 60.9532 100.245 60.4722C97.2764 59.9913 95.6117 62.3157 95.0501 63.939Z" fill="#553C38"/>
<path d="M95.4378 56.1971C95.0807 56.446 94.2878 60.13 94.4215 60.408C94.5553 60.6859 97.1493 60.0715 100.385 59.5638C103.621 59.0561 104.744 58.9492 105.52 58.1477C106.295 57.3461 105.974 54.6743 104.958 54.5139C103.942 54.3535 96.5877 55.3955 95.4378 56.1971Z" fill="#553C38"/>
<path d="M92.0415 80.8121C96.5945 83.1366 98.1388 81.6939 99.5829 79.8502C101.027 78.0066 101.368 77.3453 98.6001 73.177C95.8322 69.0089 92.944 62.7967 92.944 62.7967C92.944 62.7967 92.0615 63.8387 92.8237 65.5621C93.5858 67.2856 97.7576 75.602 97.497 76.7241C97.2363 77.8462 92.0415 80.8121 92.0415 80.8121Z" fill="#E87C60"/>
<path d="M88.9528 90.2507C90.437 89.4091 92.4627 88.6275 95.2306 88.4271C97.9985 88.2268 99.8236 88.8279 100.405 88.5875C100.987 88.3469 99.739 87.2248 96.492 87.1847C93.2449 87.1446 89.755 88.2668 87.7694 89.93C87.2675 90.3504 87.4684 91.0923 88.9528 90.2507Z" fill="#E87C60"/>
<path d="M93.4856 92.4551C92.7981 92.8778 92.4227 94.3187 94.1675 94.2987C95.9125 94.2787 97.5973 93.9981 98.4598 93.6574C99.3222 93.3168 99.252 92.0095 97.6374 91.6735C96.1933 91.3729 94.2678 91.9741 93.4856 92.4551Z" fill="#E87C60"/>
<path d="M54.3075 81.5536C55.8586 83.0233 56.34 82.088 56.2865 81.5536C56.233 81.0193 52.9804 79.1406 55.4575 76.1832C55.4575 76.1832 54.147 72.5494 51.5798 71.1867C49.0125 69.824 48.1031 72.496 48.1031 72.496C48.1031 72.496 51.6866 70.492 53.7191 75.4618C52.2482 77.1183 52.7563 80.0841 54.3075 81.5536Z" fill="#E87C60"/>
<path d="M106.467 88.3229C105.854 89.7568 105.151 91.3462 104.396 92.9462C101.944 98.1513 97.2962 105.841 97.2962 105.841L92.9414 114.377C92.9414 114.377 92.964 113.96 92.9784 113.247C93.005 111.931 93.0008 109.617 92.7713 107.091C92.7343 106.692 92.6933 106.288 92.6441 105.882C92.1213 101.513 89.7553 95.5417 87.2273 96.2627C84.7014 96.9837 85.3821 98.5878 85.7429 105.079C85.7675 105.522 85.7901 106.03 85.8106 106.591C85.8537 107.783 85.8905 109.221 85.9193 110.797C86.073 119.376 86.0239 132.092 86.0239 132.092C85.6918 132.17 85.3637 132.242 85.0357 132.312C85.0645 129.302 85.1032 122.528 84.9823 117.704C84.9228 115.387 84.812 112.845 84.6952 110.358C81.6752 109.273 78.3251 108.033 75.4751 106.884C68.2131 103.959 65.806 100.671 64.1227 97.7459C62.4373 94.8207 60.793 90.2916 60.793 90.2916C60.793 90.2916 57.0226 89.9331 54.1747 89.0297C51.3247 88.1264 55.2572 87.4852 55.2572 87.4852C55.2572 87.4852 58.185 88.8885 61.2338 88.0874C61.2338 88.0874 63.8007 96.8242 65.9269 98.6679C67.9301 100.405 77.798 104.238 84.5024 106.219C84.3794 103.457 84.2892 100.989 84.3138 99.268C84.3691 95.2611 88.031 94.4193 90.356 97.0249C92.4206 99.3335 93.3576 104.955 93.6343 106.96C93.6979 107.417 93.7266 107.685 93.7266 107.685L95.5309 107.726C95.5309 107.726 95.8384 107.165 96.3469 106.241C97.4111 104.299 99.3526 100.763 101.147 97.5063C103.053 94.0423 105.024 89.9759 105.975 87.9705C105.918 88.8472 105.881 89.3696 105.881 89.3696C106.072 88.9947 106.266 88.6464 106.467 88.3229Z" fill="#E87C60"/>
<path d="M122.328 123.276C121.738 124.949 121.043 126.83 120.475 128.344C119.868 128.665 119.413 128.833 119.376 128.846L123.452 117.985C123.452 117.985 123.571 119.748 122.328 123.276Z" fill="#E87C60"/>
<path d="M54.8557 96.703L55.2572 87.4852C55.2572 87.4852 50.965 85.2415 48.8791 82.5562C48.8791 82.5562 50.8443 94.178 54.8557 96.703Z" fill="#553C38"/>
<path d="M47.1138 80.5119C47.1138 80.5119 45.1882 77.2252 45.4288 73.3375C45.6695 69.4499 47.5147 67.2455 50.764 67.1253C54.0133 67.0051 56.5806 70.5321 57.9445 73.7784C59.3084 77.0248 59.9101 78.3073 61.5147 78.187C63.1192 78.0668 63.36 76.4636 62.5175 73.2573C61.6751 70.051 61.635 67.2054 62.4774 64.5601C63.3198 61.9149 65.165 57.8269 64.6034 52.777C64.0419 47.727 62.7582 45.0018 62.7582 45.0018C72.389 46.6183 79.8226 45.3213 85.0616 41.1142C90.3702 40.866 95.4402 40.2936 100.179 39.2705L104.677 51.2147C105.516 47.188 105.312 43.2036 103.875 39.2705C111.136 34.3008 110.173 21.2791 103.554 11.9368C103.554 11.9368 102.912 18.2692 90.3566 18.7502C77.8008 19.2311 66.6491 16.0248 59.1478 25.1227C59.1478 25.1227 47.7538 22.6779 45.408 34.3809C45.408 34.3809 36.5235 36.5452 36.2828 46.4446C36.0421 56.3441 40.0133 64.4399 42.2197 70.1312C44.426 75.8223 45.9906 78.8686 47.1138 80.5119Z" fill="#553C38"/>
<path d="M173.5 28.4025C173.5 12.7163 160.773 0 145.072 0C129.372 0 116.645 12.7163 116.645 28.4025C116.645 39.5802 123.108 49.2481 132.504 53.8832C129.054 54.981 123.381 56.3481 117.199 56.0405C117.199 56.0405 131.68 58.7021 146.24 56.805C146.331 56.7932 146.42 56.7812 146.509 56.769C161.542 56.0215 173.5 43.6075 173.5 28.4025Z" fill="#E08634"/>
<path d="M141.913 32.0931C142.262 31.0639 142.686 30.1856 143.186 29.459C143.686 28.7323 144.345 27.8847 145.163 26.9156C145.815 26.1589 146.323 25.5192 146.686 24.9968C147.05 24.4744 147.357 23.8994 147.607 23.271C147.857 22.6429 147.982 21.9578 147.982 21.216V21.1933C147.982 20.1639 147.728 19.3652 147.22 18.7977C146.712 18.2299 145.996 17.9461 145.072 17.9461C144.163 17.9461 143.455 18.2603 142.947 18.8885C142.439 19.5167 142.178 20.3984 142.163 21.5338V21.5565H135.708V21.5338C135.784 19.5356 136.201 17.8289 136.958 16.4133C137.716 14.9979 138.78 13.9193 140.152 13.1773C141.523 12.4358 143.155 12.0647 145.05 12.0647C147.019 12.0647 148.709 12.3979 150.118 13.0639C151.527 13.7302 152.599 14.6953 153.334 15.9591C154.069 17.2235 154.437 18.7487 154.437 20.5349V20.5576C154.437 21.7234 154.273 22.7756 153.948 23.714C153.622 24.6529 153.22 25.474 152.743 26.1779C152.266 26.8819 151.633 27.6958 150.845 28.6191C150.103 29.5125 149.523 30.2618 149.106 30.8672C148.69 31.4727 148.337 32.173 148.05 32.9676C147.762 33.7625 147.618 34.6367 147.618 35.5904H141.39C141.39 34.2884 141.564 33.1229 141.913 32.0931ZM141.413 39.2008H147.641V45.4228H141.413V39.2008Z" fill="#FDFDFD"/>
</svg>
