<svg width="186" height="186" viewBox="0 0 186 186" fill="none" xmlns="http://www.w3.org/2000/svg">
<path d="M163.719 159.837C159.917 163.839 156.319 166.42 153.476 168.459C120.06 192.429 80.5209 185.442 72.1177 183.735C59.7087 181.216 35.7225 176.345 18.3808 155.958C-7.85562 125.112 -3.77021 76.5169 16.5805 44.4382C20.303 38.5705 39.9662 6.00321 79.9315 0.780439C104.118 -2.38034 132.312 3.99455 152.729 21.0954C195.587 56.9917 192.535 129.509 163.719 159.837Z" fill="url(#paint0_linear_19_4640)"/>
<path d="M133.645 105.868C133.645 105.868 133.101 83.0036 143.636 76.8839C154.17 70.7643 174.199 66.9383 174.95 34.1064C175.389 14.8852 175.865 6.48139 176.184 2.81694C176.308 1.38746 175.038 0.233712 173.627 0.499302C163.651 2.37824 131.24 10.1121 124.445 32.2275C116.39 58.4456 133.645 105.868 133.645 105.868Z" fill="#91B3FA"/>
<path d="M165.912 9.63412C154.96 19.3987 142.297 36.6799 135.547 53.9612C134.681 56.8092 132.146 62.8659 131.046 73.627C130.063 82.602 130.551 92.0859 131.743 98.3637C131.819 98.7606 132.202 99.0213 132.599 98.9459C133.281 98.8165 133.19 98.0824 133.184 98.1056C131.823 87.3798 132.388 74.0297 135.507 61.984C139.492 47.1933 148.38 32.8532 157.573 20.6909L158.519 19.4932C165.641 10.3489 167.141 10.2816 166.475 9.64412C166.318 9.49351 166.072 9.49216 165.912 9.63412Z" fill="#BDD0FB"/>
<path d="M120.481 147.808C119.056 148.507 133.974 129.753 138.647 100.297C140.849 86.4174 140.877 69.027 148.786 62.3254C155.368 56.7478 177.767 60.2691 185.096 61.6073C186.012 61.7745 186.32 62.931 185.607 63.5296C182.092 66.4804 174.574 73.4407 172.615 80.4553C170.033 89.7011 161.241 95.582 153.369 97.1736C145.497 98.7651 141.119 100.31 137.284 112.895C133.449 125.48 124.531 145.823 120.481 147.808Z" fill="#BDD0FB"/>
<path d="M174.788 65.5139C165.438 65.9054 155.401 70.1696 150.308 78.1683L149.827 78.9315C148.717 80.7212 142.424 93.4439 138.929 103.99C138.885 104.122 138.957 104.264 139.088 104.307C139.311 104.381 139.423 104.135 139.402 104.157C141.837 98.1992 145.334 90.6455 148.12 84.9968C151.107 78.8328 153.197 74.6585 160.01 70.66C167.594 66.3539 174.839 65.9106 174.817 65.9151C174.928 65.9038 175.008 65.805 174.997 65.6945C174.986 65.5882 174.894 65.5097 174.788 65.5139Z" fill="url(#paint1_linear_19_4640)"/>
<path d="M35.8545 44.3815C35.8545 38.4758 40.6433 33.6883 46.5507 33.6883H137.511C142.529 33.6883 146.667 37.6198 146.923 42.6302L153.637 174.47C153.836 178.391 150.749 181.698 146.823 181.77L42.5706 183.664C38.8813 183.731 35.8545 180.759 35.8545 177.07V44.3815Z" fill="url(#paint2_linear_19_4640)"/>
<path d="M57.8074 181.422H57.8041L46.1389 181.272C42.2383 181.221 39.0649 178.007 39.0649 174.108V156.5C39.0649 156.363 39.1764 156.251 39.314 156.251C39.4515 156.251 39.563 156.363 39.563 156.5V174.108C39.563 177.736 42.5157 180.727 46.1453 180.774L57.8104 180.925C57.9479 180.926 58.058 181.039 58.0563 181.177C58.0544 181.313 57.9433 181.422 57.8074 181.422Z" fill="#91B3FA"/>
<path d="M39.314 151.295C39.1764 151.295 39.0649 151.184 39.0649 151.046V148.195C39.0649 148.057 39.1764 147.946 39.314 147.946C39.4515 147.946 39.563 148.057 39.563 148.195V151.046C39.563 151.184 39.4515 151.295 39.314 151.295Z" fill="url(#paint3_linear_19_4640)"/>
<path d="M43.3066 35.7175C43.2954 33.828 44.9576 32.3656 46.8305 32.6195C59.2519 34.3036 101.966 39.5119 137.282 36.8016C138.892 36.678 140.29 37.8979 140.376 39.5105L147.416 171.938C147.513 173.754 146.126 175.307 144.31 175.414C129.457 176.293 68.2871 179.69 46.4688 177.405C45.1409 177.266 44.1329 176.148 44.125 174.814L43.3066 35.7175Z" fill="url(#paint4_linear_19_4640)"/>
<path d="M44.7697 39.036C44.759 37.2177 46.3585 35.8104 48.1609 36.0547C60.1146 37.6753 101.22 42.6876 135.206 40.0793C136.756 39.9604 138.101 41.1344 138.184 42.6862L144.959 170.127C145.052 171.875 143.717 173.369 141.97 173.472C127.676 174.318 68.8095 177.587 47.8128 175.389C46.5349 175.255 45.5648 174.179 45.5573 172.895L44.7697 39.036Z" fill="url(#paint5_linear_19_4640)"/>
<path d="M55.8355 48.8616L57.1051 76.1836C57.1473 77.0924 57.8816 77.8149 58.7912 77.8405C63.8526 77.9832 79.6243 78.3678 88.5296 77.9037C89.537 77.8511 90.3339 77.0365 90.3673 76.0286C90.5371 70.9047 90.9087 55.9912 89.7408 49.7568C89.5521 48.7498 88.6863 48.0119 87.6621 47.9761L57.7454 46.9301C56.6666 46.8925 55.7854 47.7836 55.8355 48.8616Z" fill="white"/>
<path d="M130.731 51.24C131.291 51.24 131.736 50.8275 131.722 50.3234C131.707 49.8194 131.237 49.3987 130.678 49.3888L97.7744 48.8026C97.2152 48.7926 96.9096 49.216 97.0954 49.7435L97.2848 50.2811C97.4706 50.8085 98.0803 51.2401 98.6397 51.2401H130.731V51.24Z" fill="white"/>
<path d="M97.7745 53.896C97.2153 53.886 96.9097 54.3094 97.0955 54.8368L97.2849 55.3744C97.4707 55.9018 98.0804 56.3334 98.6398 56.3334H130.731C131.291 56.3334 131.736 55.9209 131.722 55.4168C131.707 54.9127 131.237 54.4921 130.678 54.4822L97.7745 53.896Z" fill="white"/>
<path d="M97.7745 59.0635C97.2153 59.0535 96.9097 59.4769 97.0955 60.0044L97.2849 60.5419C97.4707 61.0694 98.0804 61.5009 98.6398 61.5009H130.731C131.291 61.5009 131.736 61.0884 131.722 60.5844C131.707 60.0802 131.237 59.6596 130.678 59.6497L97.7745 59.0635Z" fill="white"/>
<path d="M133.918 86.4214C134.477 86.4214 134.908 86.0089 134.874 85.5048C134.841 85.0007 134.356 84.5846 133.797 84.5802L56.8437 83.9738C56.2844 83.9694 56.1118 84.3237 56.4603 84.7612L57.149 85.626C57.4974 86.0635 58.2402 86.4214 58.7995 86.4214H133.918Z" fill="white"/>
<path d="M56.8437 89.0674C56.2844 89.063 56.1118 89.4172 56.4603 89.8547L57.149 90.7195C57.4974 91.157 58.2402 91.5149 58.7995 91.5149H133.918C134.477 91.5149 134.908 91.1024 134.874 90.5984C134.841 90.0942 134.356 89.6782 133.797 89.6738L56.8437 89.0674Z" fill="white"/>
<path d="M56.5455 97.572C58.3934 97.4305 61.8539 97.3649 63.7588 97.3382C64.566 97.3269 65.2738 97.8735 65.4631 98.6581C65.8307 100.182 66.3379 102.827 66.2741 105.631C66.2549 106.47 65.5671 107.14 64.7272 107.131L57.6977 107.056C56.8332 107.046 56.1156 106.386 56.0351 105.525L55.4171 98.9139C55.3532 98.2301 55.8605 97.6245 56.5455 97.572Z" fill="url(#paint6_linear_19_4640)"/>
<path d="M69.4962 100.285C68.9373 100.261 68.548 100.695 68.6311 101.248L68.8159 102.477C68.899 103.03 69.4245 103.483 69.9839 103.483H87.1537C87.7131 103.483 88.165 103.025 88.1581 102.466L88.1533 102.08C88.1463 101.521 87.6833 101.045 87.1245 101.021L69.4962 100.285Z" fill="white"/>
<path d="M94.8413 97.572C96.6892 97.4305 100.15 97.3649 102.055 97.3382C102.862 97.3269 103.57 97.8735 103.759 98.6581C104.127 100.182 104.634 102.827 104.57 105.631C104.551 106.47 103.863 107.14 103.023 107.131L95.9935 107.056C95.1291 107.046 94.4114 106.386 94.3309 105.525L93.7129 98.9139C93.649 98.2301 94.1563 97.6245 94.8413 97.572Z" fill="url(#paint7_linear_19_4640)"/>
<path d="M107.792 100.285C107.233 100.261 106.844 100.695 106.927 101.248L107.112 102.477C107.195 103.03 107.72 103.483 108.28 103.483H125.449C126.009 103.483 126.461 103.025 126.454 102.466L126.449 102.08C126.442 101.521 125.979 101.045 125.42 101.021L107.792 100.285Z" fill="white"/>
<path d="M54.3911 120.189C54.632 120.901 55.462 121.395 56.4068 121.389L133.406 120.877C134.278 120.871 134.974 120.312 134.955 119.633C134.937 118.973 134.247 118.445 133.4 118.442L56.3986 118.169C55.0393 118.164 54.0444 119.165 54.3911 120.189Z" fill="white"/>
<path d="M54.3911 134.088C54.632 134.8 55.462 135.293 56.4068 135.287L133.406 134.776C134.278 134.77 134.974 134.21 134.955 133.531C134.937 132.872 134.247 132.344 133.4 132.341L56.3986 132.067C55.0393 132.062 54.0444 133.064 54.3911 134.088Z" fill="white"/>
<path d="M54.3911 147.986C54.632 148.698 55.462 149.192 56.4068 149.186L133.406 148.674C134.278 148.668 134.974 148.109 134.955 147.43C134.937 146.77 134.247 146.242 133.4 146.239L56.3986 145.965C55.0393 145.961 54.0444 146.962 54.3911 147.986Z" fill="white"/>
<path d="M54.3911 161.885C54.632 162.597 55.462 163.09 56.4068 163.084L133.406 162.573C134.278 162.567 134.974 162.007 134.955 161.328C134.937 160.669 134.247 160.141 133.4 160.138L56.3986 159.864C55.0393 159.859 54.0444 160.861 54.3911 161.885Z" fill="white"/>
<path d="M97.6724 15.7125C94.3868 13.4274 91.5299 13.4727 89.5188 14.0659C87.6842 14.6071 86.4952 16.3778 86.6697 18.2822L87.537 27.7462L97.8576 28.6619C97.8576 28.6619 104.116 20.194 97.6724 15.7125ZM93.1338 23.3477C91.7125 23.3477 90.5604 22.1959 90.5604 20.775C90.5604 19.3541 91.7126 18.2022 93.1338 18.2022C94.5551 18.2022 95.7073 19.3541 95.7073 20.775C95.7073 22.1959 94.5551 23.3477 93.1338 23.3477Z" fill="url(#paint8_linear_19_4640)"/>
<path d="M88.5679 23.7651C88.4406 23.7651 88.332 23.6681 88.3203 23.5387L88.1821 22.0315C88.1695 21.8946 88.2704 21.7735 88.4073 21.7608C88.547 21.7477 88.6656 21.8491 88.678 21.9862L88.8161 23.4935C88.8288 23.6304 88.7278 23.7514 88.5909 23.7641C88.5832 23.7649 88.5755 23.7651 88.5679 23.7651ZM88.2973 20.8114C88.1699 20.8114 88.0613 20.7144 88.0496 20.585L87.9446 19.4408C87.7783 17.6268 88.9201 15.9376 90.6594 15.4244C91.8912 15.0609 93.1604 15.0089 94.4314 15.2695C94.566 15.297 94.6529 15.4288 94.6253 15.5634C94.5977 15.6979 94.467 15.7839 94.3313 15.7572C93.1408 15.5136 91.953 15.562 90.8003 15.9019C89.2884 16.348 88.2958 17.8173 88.4405 19.3955L88.5454 20.5397C88.5581 20.6766 88.4571 20.7978 88.3202 20.8104C88.3125 20.8112 88.3048 20.8114 88.2973 20.8114Z" fill="#91B3FA"/>
<path d="M73.4512 33.8623V29.1041C73.4512 27.4616 74.8129 26.1461 76.4549 26.2022L109.27 27.3262C110.726 27.3761 111.905 28.5253 111.993 29.9794L112.267 34.5514L73.4512 33.8623Z" fill="url(#paint9_linear_19_4640)"/>
<path d="M85.6871 27.9952H84.2759C84.1383 27.9952 84.0268 27.8838 84.0268 27.7462C84.0268 27.6086 84.1383 27.4972 84.2759 27.4972H85.6871C85.8246 27.4972 85.9361 27.6086 85.9361 27.7462C85.9361 27.8838 85.8246 27.9952 85.6871 27.9952Z" fill="#91B3FA"/>
<path d="M75.2274 32.3682C75.0898 32.3682 74.9783 32.2569 74.9783 32.1193V30.1944C74.9783 28.7071 76.1886 27.4972 77.6763 27.4972H82.8646C83.0021 27.4972 83.1136 27.6086 83.1136 27.7462C83.1136 27.8838 83.0021 27.9952 82.8646 27.9952H77.6763C76.4633 27.9952 75.4764 28.9818 75.4764 30.1944V32.1193C75.4764 32.2569 75.3649 32.3682 75.2274 32.3682Z" fill="#91B3FA"/>
<path d="M60.0805 35.0639C60.1597 33.4162 61.5191 32.121 63.1691 32.1209L120.552 32.1193C122.615 32.1193 124.379 33.6037 124.731 35.6362L124.78 35.9168C125.165 38.1431 123.451 40.1793 121.191 40.1793H62.3193C60.9668 40.1793 59.8889 39.0487 59.9538 37.6981L60.0805 35.0639Z" fill="url(#paint10_linear_19_4640)"/>
<path d="M84.9886 165.024H2.49452V184.245H84.9886V165.024Z" fill="url(#paint11_linear_19_4640)"/>
<path d="M86.0924 183.015H1.30006C1.01127 183.015 0.777184 182.781 0.777184 182.492V175.634H86.4418V182.666C86.4418 182.858 86.2853 183.015 86.0924 183.015Z" fill="url(#paint12_linear_19_4640)"/>
<path d="M85.9235 174.635H1.42413C1.06691 174.635 0.777316 174.345 0.777316 173.988V167.254H86.4419V174.116C86.4419 174.403 86.2097 174.635 85.9235 174.635Z" fill="url(#paint13_linear_19_4640)"/>
<path d="M86.4418 167.254H0.777184V165.02C0.777184 164.725 1.01634 164.486 1.31135 164.486H85.9009C86.1996 164.486 86.4418 164.728 86.4418 165.027V167.254Z" fill="url(#paint14_linear_19_4640)"/>
<path d="M161.734 173.635C164.51 174.984 165.489 178.692 163.92 181.915C162.352 185.139 158.831 186.659 156.055 185.309C153.279 183.96 152.301 180.253 153.869 177.029C155.437 173.805 158.958 172.285 161.734 173.635Z" fill="url(#paint15_linear_19_4640)"/>
<path d="M157.242 175.056L154.399 180.9C154.297 181.11 154.044 181.197 153.834 181.095L150.277 179.365C150.067 179.263 149.979 179.01 150.081 178.8L152.924 172.957C153.026 172.747 153.279 172.659 153.489 172.761L157.046 174.491C157.256 174.593 157.344 174.846 157.242 175.056Z" fill="url(#paint16_linear_19_4640)"/>
<path d="M153.598 172.236C153.087 174.853 151.926 177.19 150.159 179.268C149.204 180.391 147.673 180.894 146.15 180.588C131.587 177.665 101.068 158.807 71.4289 142.333C69.4647 141.241 68.1071 140.003 69.0328 138.1L71.0768 133.897C71.9967 132.006 74.1982 133.071 76.264 133.919C107.616 146.796 140.868 158.021 152.283 168.407C153.379 169.404 153.867 170.855 153.598 172.236Z" fill="url(#paint17_linear_19_4640)"/>
<path d="M75.8306 129.602L68.891 143.869C68.7931 144.07 68.5503 144.154 68.3488 144.056L64.6881 142.277C64.4866 142.179 64.4027 141.936 64.5007 141.735L71.4402 127.468C71.5382 127.267 71.781 127.183 71.9825 127.281L75.6431 129.06C75.8446 129.158 75.9286 129.401 75.8306 129.602Z" fill="url(#paint18_linear_19_4640)"/>
<path d="M44.9848 115.36L38.0452 129.627C37.9473 129.828 37.7045 129.912 37.503 129.814L33.8423 128.035C33.6408 127.937 33.5569 127.694 33.6549 127.493L40.5944 113.226C40.6924 113.025 40.9352 112.941 41.1367 113.039L44.7973 114.818C44.9988 114.916 45.0827 115.159 44.9848 115.36Z" fill="url(#paint19_linear_19_4640)"/>
<path d="M78.8755 115.67L56.948 160.75L26.3988 145.898L48.3262 100.818L78.8755 115.67Z" fill="url(#paint20_linear_19_4640)"/>
<path d="M58.1044 158.372L55.3468 164.041L24.7975 149.19L27.5551 143.521L58.1044 158.372Z" fill="url(#paint21_linear_19_4640)"/>
<path d="M56.5922 161.481L55.2217 164.299C54.8027 165.16 53.8212 165.592 52.9026 165.32C43.3797 162.492 34.163 158.086 25.2952 151.882C24.5187 151.339 24.2522 150.311 24.6667 149.459L26.0429 146.63L56.5922 161.481Z" fill="url(#paint22_linear_19_4640)"/>
<path d="M59.6768 157.232L58.5341 159.581C58.432 159.791 58.1792 159.878 57.9693 159.776L25.9849 144.227C25.775 144.125 25.6876 143.872 25.7897 143.662L26.9323 141.313C27.0343 141.103 27.2873 141.016 27.4972 141.118L59.4815 156.667C59.6915 156.769 59.7788 157.022 59.6768 157.232Z" fill="url(#paint23_linear_19_4640)"/>
<path d="M59.4941 157.608L58.717 159.205C58.6246 159.395 58.3955 159.475 58.2053 159.382L26.1494 143.798C25.9593 143.706 25.8801 143.477 25.9725 143.287L26.7496 141.689C26.8421 141.499 27.0711 141.42 27.2613 141.512L59.3172 157.096C59.5074 157.189 59.5866 157.418 59.4941 157.608Z" fill="url(#paint24_linear_19_4640)"/>
<path d="M79.0533 115.304L81.8109 109.635L51.2616 94.7831L48.5041 100.452L79.0533 115.304Z" fill="url(#paint25_linear_19_4640)"/>
<path d="M80.5656 112.195L81.9361 109.377C82.3551 108.516 82.089 107.477 81.3073 106.923C73.2022 101.181 64.0444 96.6539 53.6874 93.5118C52.7805 93.2367 51.807 93.6619 51.3925 94.514L50.0163 97.3433L80.5656 112.195Z" fill="url(#paint26_linear_19_4640)"/>
<path d="M79.1273 117.244L80.2699 114.895C80.372 114.685 80.2846 114.433 80.0747 114.331L48.0903 98.7815C47.8805 98.6794 47.6276 98.7668 47.5255 98.9766L46.3829 101.326C46.2808 101.536 46.3682 101.788 46.5781 101.89L78.5624 117.44C78.7724 117.542 79.0252 117.454 79.1273 117.244Z" fill="url(#paint27_linear_19_4640)"/>
<path d="M79.31 116.869L80.0871 115.271C80.1795 115.081 80.1004 114.852 79.9102 114.76L47.8543 99.1756C47.6642 99.0832 47.4351 99.1623 47.3427 99.3524L46.5656 100.95C46.4731 101.14 46.5523 101.369 46.7424 101.462L78.7983 117.046C78.9885 117.138 79.2176 117.059 79.31 116.869Z" fill="url(#paint28_linear_19_4640)"/>
<defs>
<linearGradient id="paint0_linear_19_4640" x1="210.185" y1="240.897" x2="44.8458" y2="34.5969" gradientUnits="userSpaceOnUse">
<stop stop-color="#DAE3FE"/>
<stop offset="1" stop-color="#E9EFFD"/>
</linearGradient>
<linearGradient id="paint1_linear_19_4640" x1="-0.000166591" y1="92.9999" x2="186" y2="92.9999" gradientUnits="userSpaceOnUse">
<stop stop-color="#DAE3FE"/>
<stop offset="1" stop-color="#E9EFFD"/>
</linearGradient>
<linearGradient id="paint2_linear_19_4640" x1="92.9393" y1="175.016" x2="84.7914" y2="-132.148" gradientUnits="userSpaceOnUse">
<stop stop-color="#09005D"/>
<stop offset="1" stop-color="#1A0F91"/>
</linearGradient>
<linearGradient id="paint3_linear_19_4640" x1="-5706.48" y1="-454.713" x2="-3126.44" y2="10571.2" gradientUnits="userSpaceOnUse">
<stop stop-color="#A737D5"/>
<stop offset="1" stop-color="#EF497A"/>
</linearGradient>
<linearGradient id="paint4_linear_19_4640" x1="348.978" y1="-58.6723" x2="262.594" y2="40.2621" gradientUnits="userSpaceOnUse">
<stop stop-color="#E1473D"/>
<stop offset="1" stop-color="#E9605A"/>
</linearGradient>
<linearGradient id="paint5_linear_19_4640" x1="181.515" y1="44.3887" x2="327.316" y2="-106.388" gradientUnits="userSpaceOnUse">
<stop stop-color="#FEBBBA"/>
<stop offset="1" stop-color="#FF928E"/>
</linearGradient>
<linearGradient id="paint6_linear_19_4640" x1="-166.861" y1="-136.831" x2="1449.98" y2="1028.13" gradientUnits="userSpaceOnUse">
<stop stop-color="#A737D5"/>
<stop offset="1" stop-color="#EF497A"/>
</linearGradient>
<linearGradient id="paint7_linear_19_4640" x1="164.089" y1="37.9676" x2="2041.68" y2="-1159.27" gradientUnits="userSpaceOnUse">
<stop stop-color="#FF928E"/>
<stop offset="1" stop-color="#FE7062"/>
</linearGradient>
<linearGradient id="paint8_linear_19_4640" x1="282.599" y1="-144.183" x2="-227.269" y2="575.293" gradientUnits="userSpaceOnUse">
<stop stop-color="#09005D"/>
<stop offset="1" stop-color="#1A0F91"/>
</linearGradient>
<linearGradient id="paint9_linear_19_4640" x1="186.686" y1="-458.248" x2="-320.119" y2="-314.776" gradientUnits="userSpaceOnUse">
<stop stop-color="#09005D"/>
<stop offset="1" stop-color="#1A0F91"/>
</linearGradient>
<linearGradient id="paint10_linear_19_4640" x1="135.27" y1="-533.708" x2="-208.854" y2="-455.192" gradientUnits="userSpaceOnUse">
<stop stop-color="#FF928E"/>
<stop offset="1" stop-color="#FE7062"/>
</linearGradient>
<linearGradient id="paint11_linear_19_4640" x1="133.242" y1="-150.558" x2="68.3572" y2="-129.228" gradientUnits="userSpaceOnUse">
<stop stop-color="#09005D"/>
<stop offset="1" stop-color="#1A0F91"/>
</linearGradient>
<linearGradient id="paint12_linear_19_4640" x1="196.477" y1="-1554.1" x2="-255.902" y2="-1500.71" gradientUnits="userSpaceOnUse">
<stop stop-color="#4F52FF"/>
<stop offset="1" stop-color="#4042E2"/>
</linearGradient>
<linearGradient id="paint13_linear_19_4640" x1="93.9712" y1="-147.534" x2="548.147" y2="-960.825" gradientUnits="userSpaceOnUse">
<stop stop-color="#4F52FF"/>
<stop offset="1" stop-color="#4042E2"/>
</linearGradient>
<linearGradient id="paint14_linear_19_4640" x1="235.387" y1="-4355.3" x2="152.866" y2="-4352.6" gradientUnits="userSpaceOnUse">
<stop stop-color="#09005D"/>
<stop offset="1" stop-color="#1A0F91"/>
</linearGradient>
<linearGradient id="paint15_linear_19_4640" x1="704.46" y1="230.584" x2="979.776" y2="305.084" gradientUnits="userSpaceOnUse">
<stop stop-color="#4F52FF"/>
<stop offset="1" stop-color="#4042E2"/>
</linearGradient>
<linearGradient id="paint16_linear_19_4640" x1="-854.415" y1="-417.443" x2="-272.023" y2="6.38606" gradientUnits="userSpaceOnUse">
<stop stop-color="#4F52FF"/>
<stop offset="1" stop-color="#4042E2"/>
</linearGradient>
<linearGradient id="paint17_linear_19_4640" x1="263.869" y1="224.631" x2="-40.9867" y2="150.746" gradientUnits="userSpaceOnUse">
<stop stop-color="#4F52FF"/>
<stop offset="1" stop-color="#4042E2"/>
</linearGradient>
<linearGradient id="paint18_linear_19_4640" x1="-193.915" y1="-46.0373" x2="26.1768" y2="186.83" gradientUnits="userSpaceOnUse">
<stop stop-color="#09005D"/>
<stop offset="1" stop-color="#1A0F91"/>
</linearGradient>
<linearGradient id="paint19_linear_19_4640" x1="1113.98" y1="376.905" x2="264.428" y2="-138.883" gradientUnits="userSpaceOnUse">
<stop stop-color="#4F52FF"/>
<stop offset="1" stop-color="#4042E2"/>
</linearGradient>
<linearGradient id="paint20_linear_19_4640" x1="39.1048" y1="69.6882" x2="134.852" y2="123.734" gradientUnits="userSpaceOnUse">
<stop stop-color="#4F52FF"/>
<stop offset="1" stop-color="#4042E2"/>
</linearGradient>
<linearGradient id="paint21_linear_19_4640" x1="-37.0991" y1="244.995" x2="82.2143" y2="192.053" gradientUnits="userSpaceOnUse">
<stop stop-color="#09005D"/>
<stop offset="1" stop-color="#1A0F91"/>
</linearGradient>
<linearGradient id="paint22_linear_19_4640" x1="19.5808" y1="429.743" x2="155.517" y2="214.828" gradientUnits="userSpaceOnUse">
<stop stop-color="#4F52FF"/>
<stop offset="1" stop-color="#4042E2"/>
</linearGradient>
<linearGradient id="paint23_linear_19_4640" x1="-29.4434" y1="-471.758" x2="110.569" y2="-275.071" gradientUnits="userSpaceOnUse">
<stop stop-color="#09005D"/>
<stop offset="1" stop-color="#1A0F91"/>
</linearGradient>
<linearGradient id="paint24_linear_19_4640" x1="5.47816" y1="558.821" x2="230.492" y2="216.926" gradientUnits="userSpaceOnUse">
<stop stop-color="#4F52FF"/>
<stop offset="1" stop-color="#4042E2"/>
</linearGradient>
<linearGradient id="paint25_linear_19_4640" x1="4116.17" y1="-1105.08" x2="3941.81" y2="-1085.36" gradientUnits="userSpaceOnUse">
<stop stop-color="#09005D"/>
<stop offset="1" stop-color="#1A0F91"/>
</linearGradient>
<linearGradient id="paint26_linear_19_4640" x1="245.969" y1="-328.014" x2="94.2279" y2="-184.078" gradientUnits="userSpaceOnUse">
<stop stop-color="#4F52FF"/>
<stop offset="1" stop-color="#4042E2"/>
</linearGradient>
<linearGradient id="paint27_linear_19_4640" x1="63.3808" y1="-314.155" x2="121.663" y2="-70.1468" gradientUnits="userSpaceOnUse">
<stop stop-color="#09005D"/>
<stop offset="1" stop-color="#1A0F91"/>
</linearGradient>
<linearGradient id="paint28_linear_19_4640" x1="95.0207" y1="63.252" x2="74.386" y2="92.4731" gradientUnits="userSpaceOnUse">
<stop stop-color="#4F52FF"/>
<stop offset="1" stop-color="#4042E2"/>
</linearGradient>
</defs>
</svg>
