<svg width="703" height="476" viewBox="0 0 703 476" fill="none" xmlns="http://www.w3.org/2000/svg">
<path d="M104.317 213.867L66.25 192.305C69.1341 171.407 76.7897 137.196 99.9092 102.263C159.302 12.4959 265.133 2.09281 273.141 1.43976C284.83 0.477355 382.63 -5.89282 456.314 67.7538C503.046 114.465 515.098 168.416 518.662 189.601C505.977 197.689 493.28 205.778 480.594 213.867C479.668 202.249 472.435 127.423 405.093 78.0881C395.069 70.7441 343.332 34.3905 270.937 42.4106C214.193 48.7005 177.58 78.6037 166.114 88.7777C111.95 136.806 105.443 199.442 104.317 213.867Z" fill="#BB0600"/>
<path d="M109.839 269.4L66.25 255.376C79.2635 367.255 177.24 452.726 292.45 452.726C407.66 452.726 505.637 367.255 518.65 255.376C504.124 260.051 489.598 264.725 475.061 269.4C455.482 350.952 382.407 409.647 298.511 412.282C210.324 415.055 130.532 355.248 109.828 269.4H109.839Z" fill="#101FFF"/>
<path d="M484.476 349.439L510.104 365.502C510.104 365.502 506.247 381.405 514.794 389.23L522.977 395.795C529.836 401.295 537.14 406.244 544.819 410.598L625.151 456.094L654.12 471.733L654.66 471.985C669.994 479.329 688.518 474.059 697.428 459.829L697.78 459.279C708.073 442.827 702.669 421.333 685.751 411.411C644.952 387.5 604.153 363.589 563.342 339.678C558.243 336.688 545.464 331.372 532.896 335.656C528.171 337.272 524.783 339.85 522.754 341.66C514.325 336.722 505.896 331.784 497.466 326.834" fill="#101FFF"/>
<path d="M194.04 125.773V324.154C194.04 337.409 208.753 345.67 220.477 338.991C279.483 305.341 338.49 271.691 397.484 238.042C408.891 231.534 408.891 215.437 397.484 208.94C339.357 175.783 281.219 142.638 223.092 109.481C210.219 102.137 194.04 111.211 194.04 125.784V125.773Z" fill="#C10001"/>
<path d="M341.901 281.602C354.551 275.61 367.975 268.621 381.903 260.44C392.513 254.208 402.35 247.906 411.424 241.708C439.971 236.712 462.434 228.864 477.91 222.437C507.864 209.994 534.137 198.652 541.219 175.13C544.056 165.69 542.919 157.269 542.461 154.507C539.671 137.826 528.053 126.953 514.734 114.476C509.869 109.928 502.483 103.569 492.471 96.9925C551.594 113.731 587.915 151.173 584.116 180.79C581.103 204.266 552.708 224.224 542.414 231.454C528.428 241.284 516.317 245.741 495.695 253.165C487.805 256.006 464.638 264.061 426.172 271.348C404.823 275.392 376.229 279.665 341.901 281.613V281.602Z" fill="#FB0012"/>
<path d="M184.11 242.647V276.618C145.117 271.474 115.35 263.293 95.56 256.808C85.0437 253.36 70.1896 248.032 52.9438 238.614C38.5938 230.778 28.4409 225.106 18.6164 213.878C11.5469 205.801 0.0223447 192.637 0.350613 174.317C0.620261 159.434 8.56903 148.664 13.2234 142.374C15.3923 139.43 22.5087 130.276 42.193 118.52C53.4128 111.818 70.811 103.019 94.329 96.9925C90.765 99.3068 85.6651 102.79 79.8501 107.396C58.3954 124.398 41.4779 137.803 40.1296 156.936C38.8752 174.787 51.7597 189.165 55.8513 193.737C62.5339 201.195 69.0993 204.827 81.5031 211.53C96.5683 219.676 111.223 225.507 125.772 230.136C140.029 234.662 159.783 239.783 184.11 242.67V242.647Z" fill="#8C0300"/>
</svg>
