<svg width="20" height="20" viewBox="0 0 20 20" fill="none" xmlns="http://www.w3.org/2000/svg">
<path d="M10 0C15.52 0 20 4.48 20 10C20 15.52 15.52 20 10 20C4.48 20 0 15.52 0 10C0 4.48 4.48 0 10 0ZM10 5C7.24 5 5 7.24 5 10C5 12.76 7.24 15 10 15C10.8636 15 11.7124 14.7764 12.4639 14.3509C13.2153 13.9254 13.8438 13.3125 14.288 12.572L12.573 11.544C12.3031 11.9936 11.9201 12.3646 11.4621 12.6201C11.0041 12.8755 10.4871 13.0064 9.96274 12.9998C9.43837 12.9931 8.92491 12.8491 8.47355 12.5821C8.02218 12.3152 7.64868 11.9345 7.39029 11.4782C7.13189 11.0219 6.99763 10.5058 7.00089 9.98137C7.00414 9.45697 7.1448 8.94258 7.40885 8.4895C7.67289 8.03641 8.05108 7.66045 8.50573 7.3991C8.96038 7.13775 9.47559 7.00014 10 7C11.093 7 12.05 7.584 12.573 8.457L14.288 7.427C13.8437 6.68664 13.2152 6.07396 12.4637 5.64864C11.7123 5.22332 10.8635 4.99985 10 5Z" fill="black"/>
</svg>
