<svg width="45" height="32" viewBox="0 0 45 32" fill="none" xmlns="http://www.w3.org/2000/svg">
<path d="M18.1 22.6429L29.518 16L18.1 9.35714V22.6429ZM43.532 5.305C43.818 6.34571 44.016 7.74071 44.148 9.51214C44.302 11.2836 44.368 12.8114 44.368 14.14L44.5 16C44.5 20.8493 44.148 24.4143 43.532 26.695C42.982 28.6879 41.706 29.9721 39.726 30.5257C38.692 30.8136 36.8 31.0129 33.896 31.1457C31.036 31.3007 28.418 31.3671 25.998 31.3671L22.5 31.5C13.282 31.5 7.54 31.1457 5.274 30.5257C3.294 29.9721 2.018 28.6879 1.468 26.695C1.182 25.6543 0.984 24.2593 0.852 22.4879C0.698 20.7164 0.632 19.1886 0.632 17.86L0.5 16C0.5 11.1507 0.852 7.58571 1.468 5.305C2.018 3.31214 3.294 2.02786 5.274 1.47429C6.308 1.18643 8.2 0.987143 11.104 0.854285C13.964 0.699285 16.582 0.632857 19.002 0.632857L22.5 0.5C31.718 0.5 37.46 0.854286 39.726 1.47429C41.706 2.02786 42.982 3.31214 43.532 5.305Z" fill="black"/>
</svg>
