<svg width="18" height="23" viewBox="0 0 18 23" fill="none" xmlns="http://www.w3.org/2000/svg">
<path d="M5.645 19.9437C5.86103 20.6824 6.30417 21.3302 6.90858 21.7907C7.513 22.2513 8.24645 22.5 9 22.5C9.75355 22.5 10.487 22.2513 11.0914 21.7907C11.6958 21.3302 12.139 20.6824 12.355 19.9437H5.645ZM0 18.9203H18V15.8503L16 12.7802V7.66345C16 6.72273 15.8189 5.79123 15.4672 4.92212C15.1154 4.05301 14.5998 3.26331 13.9497 2.59813C13.2997 1.93294 12.5281 1.40528 11.6788 1.04529C10.8295 0.685288 9.91925 0.5 9 0.5C8.08075 0.5 7.17049 0.685288 6.32122 1.04529C5.47194 1.40528 4.70026 1.93294 4.05025 2.59813C3.40024 3.26331 2.88463 4.05301 2.53284 4.92212C2.18106 5.79123 2 6.72273 2 7.66345V12.7802L0 15.8503V18.9203Z" fill="white"/>
</svg>
