<svg width="26" height="24" viewBox="0 0 26 24" fill="none" xmlns="http://www.w3.org/2000/svg">
<path d="M1.5873 4.54691C1.36155 4.65435 1.15911 4.80537 0.991518 4.99134C0.823927 5.17731 0.694474 5.39459 0.61055 5.63077C0.526625 5.86695 0.489872 6.11741 0.502389 6.36785C0.514907 6.61829 0.57645 6.8638 0.683504 7.09036C0.790559 7.31693 0.941028 7.52011 1.12632 7.68832C1.31161 7.85652 1.5281 7.98645 1.76342 8.07068C1.99875 8.15491 2.2483 8.19179 2.49782 8.17923C2.74735 8.16667 2.99197 8.1049 3.21771 7.99746C3.67361 7.78046 4.02496 7.39058 4.19445 6.91359C4.36395 6.4366 4.33771 5.91157 4.1215 5.454C3.90529 4.99643 3.51683 4.6438 3.04158 4.47369C2.56632 4.30358 2.0432 4.32991 1.5873 4.54691ZM1.7699 3.34036C2.21362 3.24446 2.67328 3.25125 3.114 3.36019C3.55472 3.46914 3.96493 3.67739 4.31352 3.96914C4.6621 4.2609 4.93991 4.6285 5.12587 5.04407C5.31182 5.45963 5.40104 5.91224 5.38675 6.36756C5.37247 6.82288 5.25505 7.26896 5.04341 7.67196C4.83178 8.07495 4.53147 8.42428 4.16529 8.69345C3.7991 8.96262 3.37665 9.14455 2.92997 9.22545C2.48329 9.30635 2.02413 9.28409 1.5873 9.16036V19.3636C1.5873 20.5933 2.07399 21.7726 2.94032 22.642C3.80664 23.5115 4.98163 24 6.2068 24H20.8805C22.1057 24 23.2807 23.5115 24.147 22.642C25.0133 21.7726 25.5 20.5933 25.5 19.3636V4.63636C25.5 3.40672 25.0133 2.22745 24.147 1.35796C23.2807 0.488473 22.1057 2.57914e-07 20.8805 2.57914e-07H6.2068C5.20662 -0.00033446 4.23336 0.325133 3.43327 0.927491C2.63317 1.52985 2.04948 2.37655 1.7699 3.34036ZM8.92415 8.72727H18.1631C18.3794 8.72727 18.5867 8.81347 18.7396 8.96691C18.8925 9.12035 18.9784 9.32846 18.9784 9.54545C18.9784 9.76245 18.8925 9.97056 18.7396 10.124C18.5867 10.2774 18.3794 10.3636 18.1631 10.3636H8.92415C8.70794 10.3636 8.50059 10.2774 8.34771 10.124C8.19483 9.97056 8.10894 9.76245 8.10894 9.54545C8.10894 9.32846 8.19483 9.12035 8.34771 8.96691C8.50059 8.81347 8.70794 8.72727 8.92415 8.72727ZM8.10894 13.9091C8.10894 13.6921 8.19483 13.484 8.34771 13.3306C8.50059 13.1771 8.70794 13.0909 8.92415 13.0909H15.1741C15.3903 13.0909 15.5976 13.1771 15.7505 13.3306C15.9034 13.484 15.9893 13.6921 15.9893 13.9091C15.9893 14.1261 15.9034 14.3342 15.7505 14.4876C15.5976 14.6411 15.3903 14.7273 15.1741 14.7273H8.92415C8.70794 14.7273 8.50059 14.6411 8.34771 14.4876C8.19483 14.3342 8.10894 14.1261 8.10894 13.9091Z" fill="#EF4444"/>
</svg>
