<svg width="30" height="24" viewBox="0 0 30 24" fill="none" xmlns="http://www.w3.org/2000/svg">
<mask id="mask0_285_5349" style="mask-type:luminance" maskUnits="userSpaceOnUse" x="-1" y="0" width="32" height="24">
<path d="M18.0001 0H12.0001C6.34363 0 3.51463 -1.78814e-07 1.75813 1.758C0.492131 3.0225 0.138131 4.8435 0.0391309 7.875H29.9611C29.8621 4.8435 29.5081 3.0225 28.2421 1.758C26.4856 -1.78814e-07 23.6566 0 18.0001 0ZM12.0001 24H18.0001C23.6566 24 26.4856 24 28.2421 22.242C29.9986 20.484 30.0001 17.6565 30.0001 12C30.0001 11.338 29.9991 10.713 29.9971 10.125H0.00313098C0.000130977 10.713 -0.000869162 11.338 0.000130837 12C0.000130837 17.6565 0.000130653 20.4855 1.75813 22.242C3.51613 23.9985 6.34363 24 12.0001 24Z" fill="white"/>
<path fill-rule="evenodd" clip-rule="evenodd" d="M4.87512 18C4.87512 17.7016 4.99365 17.4155 5.20463 17.2045C5.41561 16.9935 5.70175 16.875 6.00012 16.875H12.0001C12.2985 16.875 12.5846 16.9935 12.7956 17.2045C13.0066 17.4155 13.1251 17.7016 13.1251 18C13.1251 18.2984 13.0066 18.5845 12.7956 18.7955C12.5846 19.0065 12.2985 19.125 12.0001 19.125H6.00012C5.70175 19.125 5.41561 19.0065 5.20463 18.7955C4.99365 18.5845 4.87512 18.2984 4.87512 18ZM14.6251 18C14.6251 17.7016 14.7436 17.4155 14.9546 17.2045C15.1656 16.9935 15.4518 16.875 15.7501 16.875H18.0001C18.2985 16.875 18.5846 16.9935 18.7956 17.2045C19.0066 17.4155 19.1251 17.7016 19.1251 18C19.1251 18.2984 19.0066 18.5845 18.7956 18.7955C18.5846 19.0065 18.2985 19.125 18.0001 19.125H15.7501C15.4518 19.125 15.1656 19.0065 14.9546 18.7955C14.7436 18.5845 14.6251 18.2984 14.6251 18Z" fill="black"/>
</mask>
<g mask="url(#mask0_285_5349)">
<path d="M-2.99988 -6H33.0001V30H-2.99988V-6Z" fill="#EF4444"/>
</g>
</svg>
