<svg width="29" height="24" viewBox="0 0 29 24" fill="none" xmlns="http://www.w3.org/2000/svg">
<path d="M28.5 22.9091C28.5 23.1984 28.3865 23.4759 28.1846 23.6805C27.9826 23.8851 27.7087 24 27.4231 24H1.57692C1.29131 24 1.01739 23.8851 0.815423 23.6805C0.613461 23.4759 0.5 23.1984 0.5 22.9091C0.5 22.6198 0.613461 22.3423 0.815423 22.1377C1.01739 21.9331 1.29131 21.8182 1.57692 21.8182H27.4231C27.7087 21.8182 27.9826 21.9331 28.1846 22.1377C28.3865 22.3423 28.5 22.6198 28.5 22.9091ZM28.5 2.18182V17.4545C28.5 18.0332 28.2731 18.5882 27.8692 18.9973C27.4652 19.4065 26.9174 19.6364 26.3462 19.6364H2.65385C2.08261 19.6364 1.53477 19.4065 1.13085 18.9973C0.726922 18.5882 0.5 18.0332 0.5 17.4545V2.18182C0.5 1.60316 0.726922 1.04821 1.13085 0.63904C1.53477 0.229869 2.08261 0 2.65385 0H26.3462C26.9174 0 27.4652 0.229869 27.8692 0.63904C28.2731 1.04821 28.5 1.60316 28.5 2.18182ZM19.3462 9.81818C19.3461 9.6429 19.3044 9.47021 19.2245 9.31473C19.1446 9.15925 19.0288 9.02557 18.8871 8.925L13.5025 5.10682C13.3411 4.99232 13.1519 4.92485 12.9553 4.91175C12.7587 4.89865 12.5624 4.94043 12.3876 5.03253C12.2128 5.12464 12.0663 5.26354 11.9641 5.43413C11.8618 5.60471 11.8077 5.80044 11.8077 6V13.6364C11.8077 13.8359 11.8618 14.0317 11.9641 14.2022C12.0663 14.3728 12.2128 14.5117 12.3876 14.6038C12.5624 14.6959 12.7587 14.7377 12.9553 14.7246C13.1519 14.7115 13.3411 14.644 13.5025 14.5295L18.8871 10.7114C19.0288 10.6108 19.1446 10.4771 19.2245 10.3216C19.3044 10.1662 19.3461 9.99347 19.3462 9.81818Z" fill="#EF4444"/>
</svg>
