<svg width="27" height="20" viewBox="0 0 27 20" fill="none" xmlns="http://www.w3.org/2000/svg">
<path d="M13.5001 13.6364C15.4883 13.6364 17.1002 12.0083 17.1002 10C17.1002 7.99169 15.4883 6.36364 13.5001 6.36364C11.5118 6.36364 9.89995 7.99169 9.89995 10C9.89995 12.0083 11.5118 13.6364 13.5001 13.6364Z" fill="#888888"/>
<path d="M26.9464 9.69091C25.8878 6.92514 24.0501 4.53329 21.6603 2.81099C19.2706 1.08869 16.4336 0.11143 13.5 0C10.5664 0.11143 7.72939 1.08869 5.33965 2.81099C2.94992 4.53329 1.11219 6.92514 0.0536186 9.69091C-0.0178729 9.89064 -0.0178729 10.1094 0.0536186 10.3091C1.11219 13.0749 2.94992 15.4667 5.33965 17.189C7.72939 18.9113 10.5664 19.8886 13.5 20C16.4336 19.8886 19.2706 18.9113 21.6603 17.189C24.0501 15.4667 25.8878 13.0749 26.9464 10.3091C27.0179 10.1094 27.0179 9.89064 26.9464 9.69091ZM13.5 15.9091C12.3429 15.9091 11.2119 15.5625 10.2498 14.9132C9.28777 14.2639 8.53794 13.3411 8.09515 12.2613C7.65237 11.1816 7.53651 9.99345 7.76224 8.84719C7.98797 7.70094 8.54515 6.64804 9.36331 5.82164C10.1815 4.99524 11.2239 4.43245 12.3587 4.20445C13.4935 3.97645 14.6698 4.09347 15.7388 4.54071C16.8077 4.98796 17.7214 5.74534 18.3642 6.71709C19.0071 7.68883 19.3502 8.83129 19.3502 10C19.3478 11.5665 18.7307 13.0681 17.6341 14.1757C16.5375 15.2834 15.0508 15.9067 13.5 15.9091Z" fill="#888888"/>
</svg>
