<svg width="21" height="20" viewBox="0 0 21 20" fill="none" xmlns="http://www.w3.org/2000/svg">
<path d="M18.9 0H17.85V13.6842H18.9C19.457 13.6842 19.9911 13.4624 20.3849 13.0676C20.7787 12.6728 21 12.1373 21 11.5789V2.10526C21 1.54691 20.7787 1.01143 20.3849 0.616617C19.9911 0.221804 19.457 0 18.9 0ZM2.1 13.6842H9.45L8.2719 17.2295C8.16678 17.5459 8.13814 17.8828 8.18835 18.2125C8.23855 18.5421 8.36617 18.8551 8.56067 19.1257C8.75518 19.3962 9.01102 19.6166 9.30711 19.7686C9.60321 19.9206 9.93109 19.9999 10.2637 20H10.5L15.75 14.2758V0H4.2L0.06615 9.10421L0 9.41263V11.5789C0 12.1373 0.221249 12.6728 0.615076 13.0676C1.0089 13.4624 1.54305 13.6842 2.1 13.6842Z" fill="#888888"/>
</svg>
