<svg width="22" height="20" viewBox="0 0 22 20" fill="none" xmlns="http://www.w3.org/2000/svg">
<path d="M11.0018 1.65583C12.2587 0.549788 13.8984 -0.0409452 15.5842 0.00492699C17.27 0.0507992 18.874 0.729796 20.0668 1.9025C21.2583 3.07436 21.949 4.65017 21.9973 6.30688C22.0456 7.96359 21.4477 9.57571 20.3264 10.8128L10.9996 20L1.67505 10.8128C0.552381 9.57507 -0.045998 7.96157 0.00276204 6.30352C0.0515221 4.64548 0.743722 3.0687 1.93725 1.8969C3.13078 0.725106 4.73508 0.0472049 6.42077 0.00237367C8.10647 -0.0424575 9.74566 0.549183 11.0018 1.65583ZM18.5094 3.43118C17.7146 2.65068 16.6464 2.19874 15.5238 2.16797C14.4011 2.13719 13.309 2.52991 12.4712 3.26565L11.0029 4.56173L9.53351 3.26673C8.69946 2.53311 7.61258 2.13964 6.49403 2.16639C5.37548 2.19314 4.30932 2.6381 3.51249 3.41072C2.71567 4.18335 2.24806 5.22559 2.20482 6.32535C2.16158 7.42511 2.54596 8.49975 3.27974 9.33061L11.0007 16.9372L18.7217 9.33169C19.4524 8.5045 19.8368 7.43544 19.7974 6.34029C19.758 5.24515 19.2977 4.20549 18.5094 3.43118Z" fill="black"/>
</svg>
