 <svg
      width="48"
      height="48"
      viewBox="0 0 48 48"
      fill="none"
      xmlns="http://www.w3.org/2000/svg"
    >
      <rect width="48" height="48" rx="24" fill="#EF4444" />
      <g clip-path="url(#clip0_190_4076)">
        <path
          d="M17.3337 17.3333H19.8337L21.5003 15.6666H26.5003L28.167 17.3333H30.667C31.109 17.3333 31.5329 17.5089 31.8455 17.8214C32.1581 18.134 32.3337 18.5579 32.3337 19V29C32.3337 29.442 32.1581 29.8659 31.8455 30.1785C31.5329 30.491 31.109 30.6666 30.667 30.6666H17.3337C16.8916 30.6666 16.4677 30.491 16.1551 30.1785C15.8426 29.8659 15.667 29.442 15.667 29V19C15.667 18.5579 15.8426 18.134 16.1551 17.8214C16.4677 17.5089 16.8916 17.3333 17.3337 17.3333ZM24.0003 19.8333C22.8953 19.8333 21.8354 20.2723 21.054 21.0537C20.2726 21.8351 19.8337 22.8949 19.8337 24C19.8337 25.105 20.2726 26.1648 21.054 26.9462C21.8354 27.7276 22.8953 28.1666 24.0003 28.1666C25.1054 28.1666 26.1652 27.7276 26.9466 26.9462C27.728 26.1648 28.167 25.105 28.167 24C28.167 22.8949 27.728 21.8351 26.9466 21.0537C26.1652 20.2723 25.1054 19.8333 24.0003 19.8333ZM24.0003 21.5C24.6634 21.5 25.2993 21.7634 25.7681 22.2322C26.2369 22.701 26.5003 23.3369 26.5003 24C26.5003 24.663 26.2369 25.2989 25.7681 25.7677C25.2993 26.2366 24.6634 26.5 24.0003 26.5C23.3373 26.5 22.7014 26.2366 22.2326 25.7677C21.7637 25.2989 21.5003 24.663 21.5003 24C21.5003 23.3369 21.7637 22.701 22.2326 22.2322C22.7014 21.7634 23.3373 21.5 24.0003 21.5Z"
          fill="white"
        />
      </g>
      <rect x="32" y="32" width="16" height="16" rx="8" fill="#F6F6F6" />
      <path
        d="M41.005 40.11V43.155H39.7V40.11H37V38.925H39.7V36H41.005V38.925H43.69V40.11H41.005Z"
        fill="black"
      />
      <defs>
        <clipPath id="clip0_190_4076">
          <rect
            width="20"
            height="20"
            fill="white"
            transform="translate(14 14)"
          />
        </clipPath>
      </defs>
    </svg>