<svg width="19" height="21" viewBox="0 0 19 21" fill="none" xmlns="http://www.w3.org/2000/svg">
<path d="M5.33398 12.5C5.05065 12.5 4.81332 12.404 4.62198 12.212C4.43065 12.02 4.33465 11.7827 4.33398 11.5C4.33332 11.2173 4.42932 10.98 4.62198 10.788C4.81465 10.596 5.05198 10.5 5.33398 10.5C5.61598 10.5 5.85365 10.596 6.04698 10.788C6.24032 10.98 6.33598 11.2173 6.33398 11.5C6.33198 11.7827 6.23598 12.0203 6.04598 12.213C5.85598 12.4057 5.61865 12.5013 5.33398 12.5ZM9.33398 12.5C9.05065 12.5 8.81332 12.404 8.62198 12.212C8.43065 12.02 8.33465 11.7827 8.33398 11.5C8.33332 11.2173 8.42932 10.98 8.62198 10.788C8.81465 10.596 9.05198 10.5 9.33398 10.5C9.61598 10.5 9.85365 10.596 10.047 10.788C10.2403 10.98 10.336 11.2173 10.334 11.5C10.332 11.7827 10.236 12.0203 10.046 12.213C9.85598 12.4057 9.61865 12.5013 9.33398 12.5ZM13.334 12.5C13.0507 12.5 12.8133 12.404 12.622 12.212C12.4307 12.02 12.3347 11.7827 12.334 11.5C12.3333 11.2173 12.4293 10.98 12.622 10.788C12.8147 10.596 13.052 10.5 13.334 10.5C13.616 10.5 13.8537 10.596 14.047 10.788C14.2403 10.98 14.336 11.2173 14.334 11.5C14.332 11.7827 14.236 12.0203 14.046 12.213C13.856 12.4057 13.6187 12.5013 13.334 12.5ZM2.33398 20.5C1.78398 20.5 1.31332 20.3043 0.921984 19.913C0.530651 19.5217 0.334651 19.0507 0.333984 18.5V4.5C0.333984 3.95 0.529984 3.47933 0.921984 3.088C1.31398 2.69667 1.78465 2.50067 2.33398 2.5H3.33398V0.5H5.33398V2.5H13.334V0.5H15.334V2.5H16.334C16.884 2.5 17.355 2.696 17.747 3.088C18.139 3.48 18.3347 3.95067 18.334 4.5V18.5C18.334 19.05 18.1383 19.521 17.747 19.913C17.3557 20.305 16.8847 20.5007 16.334 20.5H2.33398ZM2.33398 18.5H16.334V8.5H2.33398V18.5Z" fill="#878787" fill-opacity="0.8"/>
</svg>
