<svg width="18" height="16" viewBox="0 0 18 16" fill="none" xmlns="http://www.w3.org/2000/svg">
<path d="M2.33268 2.33332H4.83268L6.49935 0.666656H11.4993L13.166 2.33332H15.666C16.108 2.33332 16.532 2.50892 16.8445 2.82148C17.1571 3.13404 17.3327 3.55796 17.3327 3.99999V14C17.3327 14.442 17.1571 14.8659 16.8445 15.1785C16.532 15.4911 16.108 15.6667 15.666 15.6667H2.33268C1.89065 15.6667 1.46673 15.4911 1.15417 15.1785C0.84161 14.8659 0.666016 14.442 0.666016 14V3.99999C0.666016 3.55796 0.84161 3.13404 1.15417 2.82148C1.46673 2.50892 1.89065 2.33332 2.33268 2.33332ZM8.99935 4.83332C7.89428 4.83332 6.83447 5.27231 6.05307 6.05371C5.27167 6.83511 4.83268 7.89492 4.83268 8.99999C4.83268 10.1051 5.27167 11.1649 6.05307 11.9463C6.83447 12.7277 7.89428 13.1667 8.99935 13.1667C10.1044 13.1667 11.1642 12.7277 11.9456 11.9463C12.727 11.1649 13.166 10.1051 13.166 8.99999C13.166 7.89492 12.727 6.83511 11.9456 6.05371C11.1642 5.27231 10.1044 4.83332 8.99935 4.83332ZM8.99935 6.49999C9.66239 6.49999 10.2983 6.76338 10.7671 7.23222C11.236 7.70106 11.4993 8.33695 11.4993 8.99999C11.4993 9.66303 11.236 10.2989 10.7671 10.7678C10.2983 11.2366 9.66239 11.5 8.99935 11.5C8.33631 11.5 7.70042 11.2366 7.23158 10.7678C6.76274 10.2989 6.49935 9.66303 6.49935 8.99999C6.49935 8.33695 6.76274 7.70106 7.23158 7.23222C7.70042 6.76338 8.33631 6.49999 8.99935 6.49999Z" fill="white"/>
</svg>
