<svg width="21" height="20" viewBox="0 0 21 20" fill="none" xmlns="http://www.w3.org/2000/svg">
<path d="M14.526 12C14.606 11.34 14.666 10.68 14.666 10C14.666 9.32 14.606 8.66 14.526 8H17.906C18.066 8.64 18.166 9.31 18.166 10C18.166 10.69 18.066 11.36 17.906 12M12.756 17.56C13.356 16.45 13.816 15.25 14.136 14H17.086C16.1172 15.6683 14.5801 16.932 12.756 17.56ZM12.506 12H7.82602C7.72602 11.34 7.66602 10.68 7.66602 10C7.66602 9.32 7.72602 8.65 7.82602 8H12.506C12.596 8.65 12.666 9.32 12.666 10C12.666 10.68 12.596 11.34 12.506 12ZM10.166 17.96C9.33602 16.76 8.66602 15.43 8.25602 14H12.076C11.666 15.43 10.996 16.76 10.166 17.96ZM6.16602 6H3.24602C4.20466 4.32703 5.74067 3.06124 7.56602 2.44C6.96602 3.55 6.51602 4.75 6.16602 6ZM3.24602 14H6.16602C6.51602 15.25 6.96602 16.45 7.56602 17.56C5.74428 16.9323 4.2103 15.6682 3.24602 14ZM2.42602 12C2.26602 11.36 2.16602 10.69 2.16602 10C2.16602 9.31 2.26602 8.64 2.42602 8H5.80602C5.72602 8.66 5.66602 9.32 5.66602 10C5.66602 10.68 5.72602 11.34 5.80602 12M10.166 2.03C10.996 3.23 11.666 4.57 12.076 6H8.25602C8.66602 4.57 9.33602 3.23 10.166 2.03ZM17.086 6H14.136C13.8226 4.76161 13.3591 3.56611 12.756 2.44C14.596 3.07 16.126 4.34 17.086 6ZM10.166 0C4.63602 0 0.166016 4.5 0.166016 10C0.166016 12.6522 1.21958 15.1957 3.09495 17.0711C4.02353 17.9997 5.12593 18.7362 6.33918 19.2388C7.55244 19.7413 8.8528 20 10.166 20C12.8182 20 15.3617 18.9464 17.2371 17.0711C19.1124 15.1957 20.166 12.6522 20.166 10C20.166 8.68678 19.9074 7.38642 19.4048 6.17317C18.9023 4.95991 18.1657 3.85752 17.2371 2.92893C16.3085 2.00035 15.2061 1.26375 13.9929 0.761205C12.7796 0.258658 11.4792 0 10.166 0Z" fill="black"/>
</svg>
