<svg width="15" height="20" viewBox="0 0 15 20" fill="none" xmlns="http://www.w3.org/2000/svg">
<path d="M1.875 20C1.35937 20 0.918125 19.8137 0.55125 19.441C0.184375 19.0683 0.000625 18.6197 0 18.0952V8.57143C0 8.04762 0.18375 7.59937 0.55125 7.22667C0.91875 6.85397 1.36 6.6673 1.875 6.66667H2.8125V4.7619C2.8125 3.44444 3.26969 2.32159 4.18406 1.39333C5.09844 0.46508 6.20375 0.000635571 7.5 6.50089e-07C8.79625 -0.00063427 9.90187 0.46381 10.8169 1.39333C11.7319 2.32286 12.1887 3.44571 12.1875 4.7619V6.66667H13.125C13.6406 6.66667 14.0822 6.85333 14.4497 7.22667C14.8172 7.6 15.0006 8.04825 15 8.57143V18.0952C15 18.619 14.8166 19.0676 14.4497 19.441C14.0828 19.8143 13.6412 20.0006 13.125 20H1.875ZM7.5 15.2381C8.01562 15.2381 8.45719 15.0517 8.82469 14.679C9.19219 14.3063 9.37562 13.8578 9.375 13.3333C9.37437 12.8089 9.19094 12.3606 8.82469 11.9886C8.45844 11.6165 8.01687 11.4298 7.5 11.4286C6.98312 11.4273 6.54187 11.614 6.17625 11.9886C5.81062 12.3632 5.62687 12.8114 5.625 13.3333C5.62312 13.8552 5.80687 14.3038 6.17625 14.679C6.54562 15.0543 6.98687 15.2406 7.5 15.2381ZM4.6875 6.66667H10.3125V4.7619C10.3125 3.96825 10.0391 3.29365 9.49219 2.7381C8.94531 2.18254 8.28125 1.90476 7.5 1.90476C6.71875 1.90476 6.05469 2.18254 5.50781 2.7381C4.96094 3.29365 4.6875 3.96825 4.6875 4.7619V6.66667Z" fill="black"/>
</svg>
