<svg width="16" height="18" viewBox="0 0 16 18" fill="none" xmlns="http://www.w3.org/2000/svg">
<path d="M1.60802 0.669493L15.176 8.30249C15.2996 8.37212 15.4025 8.47337 15.474 8.59585C15.5456 8.71832 15.5833 8.85763 15.5833 8.99949C15.5833 9.14135 15.5456 9.28066 15.474 9.40314C15.4025 9.52562 15.2996 9.62686 15.176 9.69649L1.60802 17.3295C1.48623 17.3979 1.34865 17.4333 1.20896 17.4321C1.06926 17.4309 0.932321 17.3931 0.811767 17.3225C0.691213 17.2519 0.591247 17.1509 0.521815 17.0297C0.452383 16.9085 0.415907 16.7712 0.416016 16.6315V1.36749C0.416082 1.22788 0.452685 1.09071 0.522188 0.96962C0.591692 0.848533 0.691674 0.747743 0.812199 0.677269C0.932724 0.606794 1.06959 0.569089 1.2092 0.5679C1.34882 0.566711 1.48631 0.601081 1.60802 0.669493Z" fill="black"/>
</svg>
