<svg width="26" height="27" viewBox="0 0 26 27" fill="none" xmlns="http://www.w3.org/2000/svg">
<path d="M20.2975 6.45552L24.3194 2.49982C24.4902 2.33188 24.7726 2.35948 24.9072 2.55726L25.835 3.92124C25.9627 4.10912 25.898 4.36554 25.6961 4.47132L20.7463 7.06303C20.6627 7.10683 20.5658 7.11842 20.4741 7.09559C20.3824 7.07276 20.3025 7.01712 20.2496 6.93934C20.1995 6.8658 20.1769 6.7772 20.1857 6.68886C20.1944 6.60051 20.234 6.51798 20.2975 6.45552ZM20.9626 9.85252C20.9777 9.92569 21.0194 9.99076 21.0798 10.0352C21.1403 10.0797 21.2151 10.1004 21.29 10.0935L25.7232 9.68251C25.7659 9.67854 25.8073 9.66569 25.8446 9.64479C25.882 9.62389 25.9144 9.59542 25.94 9.56122C25.9655 9.52702 25.9835 9.48786 25.9928 9.4463C26.002 9.40474 26.0024 9.3617 25.9938 9.31999L25.7293 8.03684C25.691 7.85082 25.4918 7.74521 25.3148 7.81716L21.146 9.51122C21.0802 9.53798 21.0258 9.58673 20.9924 9.64904C20.9589 9.71136 20.9483 9.78333 20.9626 9.85252ZM17.6525 5.18109C17.7153 5.22222 17.7911 5.23889 17.8655 5.22792C17.9399 5.21695 18.0076 5.1791 18.0556 5.12164L20.8977 1.7182C20.9251 1.68542 20.9452 1.64729 20.9567 1.60629C20.9682 1.56528 20.9709 1.52232 20.9646 1.48021C20.9583 1.4381 20.9432 1.39778 20.9201 1.36187C20.8971 1.32597 20.8667 1.29528 20.8309 1.27182L19.7302 0.550237C19.5707 0.445635 19.3546 0.510832 19.2807 0.686003L17.5392 4.81102C17.5117 4.87616 17.508 4.94877 17.5287 5.01634C17.5494 5.0839 17.5932 5.14218 17.6525 5.18109Z" fill="#FFD469"/>
<path d="M11.0132 25.8043L10.157 26.3015C9.46105 26.7057 8.56693 26.473 8.15993 25.7819L5.88981 21.9272C5.48281 21.2361 5.71705 20.3482 6.41303 19.944L7.26923 19.4468C7.96521 19.0427 8.85933 19.2753 9.26633 19.9664L11.5364 23.8211C11.9435 24.5122 11.7092 25.4001 11.0132 25.8043Z" fill="white"/>
<path d="M5.76514 22.0214L14.0611 17.5363L8.38994 8.71881L0.890847 14.2512C0.842489 14.2818 -1.18439 16.1234 1.04155 19.5843C3.26748 23.0453 5.76514 22.0214 5.76514 22.0214Z" fill="#09B9FF"/>
<path d="M18.7319 8.38254C21.2133 12.2406 22.7167 16.4201 21.6785 17.0784C20.6404 17.7368 17.454 14.6248 14.9726 10.7667C12.4912 6.90864 10.9879 2.72922 12.026 2.07082C13.0641 1.41241 16.2505 4.52448 18.7319 8.38254Z" fill="#828282"/>
<path d="M17.5636 13.736C18.4236 13.1906 18.1772 11.2815 17.0133 9.47188C15.8493 7.6623 14.2086 6.63753 13.3486 7.18298C12.4886 7.72844 12.735 9.63757 13.899 11.4471C15.0629 13.2567 16.7036 14.2815 17.5636 13.736Z" fill="#575555"/>
<path d="M21.6333 17.1072C20.7265 17.6823 17.6465 14.5027 15.1652 10.6447C12.6838 6.78659 11.074 2.67465 11.9807 2.09958C12.033 2.06645 12.0915 2.04459 12.1555 2.03252C11.7278 2.02279 11.3087 2.24433 11.0606 2.71528C9.96774 4.79074 7.17853 9.39548 7.17853 9.39548C7.17853 9.39548 5.79445 11.2461 8.22753 15.029C10.6606 18.8118 13.0096 18.3384 13.0096 18.3384C13.0096 18.3384 18.3458 17.7971 20.6904 17.6859C21.2455 17.6596 21.6321 17.3536 21.7927 16.9407C21.7501 17.0104 21.6973 17.0666 21.6333 17.1072Z" fill="white"/>
<path d="M2.14979 16.6754C2.02297 16.6756 1.89816 16.644 1.78692 16.5835C1.67568 16.5231 1.58161 16.4357 1.51342 16.3295C1.28919 15.9809 1.39201 15.5178 1.74311 15.2951L4.84442 13.3283C5.19546 13.1057 5.66185 13.2077 5.88608 13.5564C6.11031 13.905 6.00749 14.3681 5.65639 14.5907L2.55508 16.5576C2.43415 16.6346 2.29347 16.6755 2.14979 16.6754Z" fill="white"/>
</svg>
