<svg width="21" height="21" viewBox="0 0 21 21" fill="none" xmlns="http://www.w3.org/2000/svg">
<path d="M10.334 0.5C15.857 0.5 20.334 4.977 20.334 10.5C20.334 16.023 15.857 20.5 10.334 20.5C4.81098 20.5 0.333984 16.023 0.333984 10.5C0.333984 4.977 4.81098 0.5 10.334 0.5ZM10.334 2.5C8.21225 2.5 6.17742 3.34285 4.67713 4.84315C3.17684 6.34344 2.33398 8.37827 2.33398 10.5C2.33398 12.6217 3.17684 14.6566 4.67713 16.1569C6.17742 17.6571 8.21225 18.5 10.334 18.5C12.4557 18.5 14.4905 17.6571 15.9908 16.1569C17.4911 14.6566 18.334 12.6217 18.334 10.5C18.334 8.37827 17.4911 6.34344 15.9908 4.84315C14.4905 3.34285 12.4557 2.5 10.334 2.5ZM10.334 4.5C10.5789 4.50003 10.8153 4.58996 10.9984 4.75272C11.1814 4.91547 11.2983 5.13975 11.327 5.383L11.334 5.5V10.086L14.041 12.793C14.2203 12.973 14.3245 13.2144 14.3322 13.4684C14.34 13.7223 14.2508 13.9697 14.0827 14.1603C13.9147 14.3508 13.6804 14.4703 13.4275 14.4944C13.1746 14.5185 12.922 14.4454 12.721 14.29L12.627 14.207L9.62698 11.207C9.47156 11.0514 9.37175 10.849 9.34298 10.631L9.33398 10.5V5.5C9.33398 5.23478 9.43934 4.98043 9.62688 4.79289C9.81441 4.60536 10.0688 4.5 10.334 4.5Z" fill="#888888" fill-opacity="0.8"/>
</svg>
