<svg width="16" height="17" viewBox="0 0 16 17" fill="none" xmlns="http://www.w3.org/2000/svg">
<path fill-rule="evenodd" clip-rule="evenodd" d="M0 3.16667C0 2.45942 0.280952 1.78115 0.781049 1.28105C1.28115 0.780952 1.95942 0.5 2.66667 0.5H13.3333C14.0406 0.5 14.7189 0.780952 15.219 1.28105C15.719 1.78115 16 2.45942 16 3.16667V13.8333C16 14.5406 15.719 15.2189 15.219 15.719C14.7189 16.219 14.0406 16.5 13.3333 16.5H2.66667C1.95942 16.5 1.28115 16.219 0.781049 15.719C0.280952 15.2189 0 14.5406 0 13.8333V3.16667ZM8.88889 4.94444C8.88889 4.7087 8.79524 4.4826 8.62854 4.31591C8.46184 4.14921 8.23575 4.05556 8 4.05556C7.76425 4.05556 7.53816 4.14921 7.37146 4.31591C7.20476 4.4826 7.11111 4.7087 7.11111 4.94444V12.0556C7.11111 12.2913 7.20476 12.5174 7.37146 12.6841C7.53816 12.8508 7.76425 12.9444 8 12.9444C8.23575 12.9444 8.46184 12.8508 8.62854 12.6841C8.79524 12.5174 8.88889 12.2913 8.88889 12.0556V4.94444ZM5.33333 7.61111C5.33333 7.37536 5.23968 7.14927 5.07298 6.98257C4.90628 6.81587 4.68019 6.72222 4.44444 6.72222C4.2087 6.72222 3.9826 6.81587 3.81591 6.98257C3.64921 7.14927 3.55556 7.37536 3.55556 7.61111V12.0556C3.55556 12.2913 3.64921 12.5174 3.81591 12.6841C3.9826 12.8508 4.2087 12.9444 4.44444 12.9444C4.68019 12.9444 4.90628 12.8508 5.07298 12.6841C5.23968 12.5174 5.33333 12.2913 5.33333 12.0556V7.61111ZM12.4444 10.2778C12.4444 10.042 12.3508 9.81594 12.1841 9.64924C12.0174 9.48254 11.7913 9.38889 11.5556 9.38889C11.3198 9.38889 11.0937 9.48254 10.927 9.64924C10.7603 9.81594 10.6667 10.042 10.6667 10.2778V12.0556C10.6667 12.2913 10.7603 12.5174 10.927 12.6841C11.0937 12.8508 11.3198 12.9444 11.5556 12.9444C11.7913 12.9444 12.0174 12.8508 12.1841 12.6841C12.3508 12.5174 12.4444 12.2913 12.4444 12.0556V10.2778Z" fill="#535353"/>
</svg>
