<svg width="24" height="17" viewBox="0 0 24 17" fill="none" xmlns="http://www.w3.org/2000/svg">
<path d="M12 5.3C11.132 5.3 10.2996 5.63714 9.68583 6.23726C9.07208 6.83737 8.72727 7.65131 8.72727 8.5C8.72727 9.34869 9.07208 10.1626 9.68583 10.7627C10.2996 11.3629 11.132 11.7 12 11.7C12.868 11.7 13.7004 11.3629 14.3142 10.7627C14.9279 10.1626 15.2727 9.34869 15.2727 8.5C15.2727 7.65131 14.9279 6.83737 14.3142 6.23726C13.7004 5.63714 12.868 5.3 12 5.3ZM12 13.8333C10.5534 13.8333 9.16598 13.2714 8.14305 12.2712C7.12013 11.271 6.54545 9.91449 6.54545 8.5C6.54545 7.08551 7.12013 5.72896 8.14305 4.72876C9.16598 3.72857 10.5534 3.16667 12 3.16667C13.4466 3.16667 14.834 3.72857 15.8569 4.72876C16.8799 5.72896 17.4545 7.08551 17.4545 8.5C17.4545 9.91449 16.8799 11.271 15.8569 12.2712C14.834 13.2714 13.4466 13.8333 12 13.8333ZM12 0.5C6.54545 0.5 1.88727 3.81733 0 8.5C1.88727 13.1827 6.54545 16.5 12 16.5C17.4545 16.5 22.1127 13.1827 24 8.5C22.1127 3.81733 17.4545 0.5 12 0.5Z" fill="#535353"/>
</svg>
