<svg width="52" height="51" viewBox="0 0 52 51" fill="none" xmlns="http://www.w3.org/2000/svg">
<path d="M11.6422 30.3543C11.6833 30.3133 11.7243 30.3133 11.8065 30.2722C12.176 30.1079 12.5046 29.9026 12.792 29.6562C12.9152 29.533 13.0384 29.4509 13.1205 29.3688C13.5723 28.9581 13.9829 28.5064 14.3525 28.0547L16.0772 26.0835C17.0217 25.0569 17.186 24.0714 17.2681 22.7162C17.3913 21.2379 17.186 19.8416 16.7754 18.4454C16.4468 17.2545 15.913 15.6941 16.8164 14.6674C17.2271 14.2157 17.9252 13.8872 18.6233 13.8872C19.6089 13.8461 20.5123 14.2157 21.2515 14.7906C22.0317 15.4066 22.6066 16.3511 22.7709 17.4188C23.0583 19.1435 23.3047 20.8683 23.5922 22.593C23.7154 23.2911 23.7975 24.0303 23.9207 24.7284C24.126 26.2067 25.0705 26.7406 25.8918 26.9049C25.974 26.9459 26.0972 26.9459 26.1793 26.9459C26.5899 26.987 27.0006 27.028 27.4113 27.0691C28.52 27.028 32.5855 27.028 33.6942 27.028C34.9262 27.028 36.1581 26.9459 37.349 27.3155C37.4722 27.3566 37.5544 27.3976 37.6365 27.4387L37.8418 27.5208C37.8829 27.5208 37.8829 27.5619 37.924 27.5619L38.0061 27.603C38.0472 27.603 38.0471 27.644 38.1293 27.6851L38.2935 27.8083C40.1004 29.2045 39.6487 31.2578 39.3612 33.1878C38.9506 35.8981 38.4989 38.6084 38.0882 41.3187C38.0472 41.524 38.0061 41.7294 38.0061 41.9758C37.7597 43.9058 37.5133 46.0001 36.2813 47.5606C32.914 51.7493 24.3724 50.3941 19.7731 49.8603C17.8841 49.6549 16.0362 49.3264 13.9829 48.9979L13.5312 48.9158C13.1616 48.8336 12.6278 48.7515 12.2171 48.7104C11.6833 48.6283 11.3137 48.1766 11.3137 47.6427C11.3137 45.6306 11.3137 42.6328 11.3137 41.1134V38.9369V36.7605V31.0114C11.2315 30.7239 11.3958 30.4775 11.6422 30.3543Z" fill="#3B4551"/>
<path d="M1.90899 28.0137H7.69919C8.60262 28.0137 9.3418 28.7528 9.3418 29.6563V47.7249C9.3418 48.6284 8.60262 49.3675 7.69919 49.3675H1.90899C1.00555 49.3675 0.266378 48.6284 0.266378 47.7249V29.6563C0.266378 28.7528 1.00555 28.0137 1.90899 28.0137Z" fill="#2B78C2"/>
<path d="M31.3124 15.3656C30.1215 13.5998 29.7519 11.793 30.0805 9.82183C30.3679 8.50774 30.8196 7.44005 31.5999 6.61874C31.9695 6.20809 32.3801 5.87957 32.8318 5.59212C33.7353 5.05827 34.7619 4.77081 35.9528 4.77081H36.1992C38.0471 4.81188 39.6076 5.55105 40.6753 6.9062C41.086 6.45448 41.5787 6.00277 42.1536 5.67425C43.2624 4.97614 44.5765 4.72975 46.0548 4.81188C46.137 4.81188 46.2191 4.81188 46.2602 4.85294C47.7796 5.05827 49.0115 5.79744 49.956 6.9062C50.2846 7.31685 50.531 7.76857 50.7363 8.22029C51.2291 9.20585 51.4344 10.2735 51.3933 11.3823C51.3523 12.8606 50.9005 14.2158 50.0382 15.4888C49.0937 16.9672 47.9028 18.0759 46.8351 18.9794C46.6298 19.1436 46.4655 19.3079 46.2602 19.4721C44.864 20.622 43.3035 21.6897 41.3323 22.7573C41.127 22.8805 40.9217 22.9216 40.7164 22.9216C40.47 22.9216 40.3057 22.8805 40.1004 22.7573C38.1703 21.6897 36.4866 20.5398 34.9672 19.2668C33.3246 17.9527 32.2159 16.7208 31.3124 15.3656Z" fill="#2B78C2"/>
<path d="M3.46992 8.46664C2.56648 7.15255 2.27903 5.7974 2.52542 4.31906C2.73075 3.33349 3.05927 2.55326 3.67525 1.89621C3.9627 1.60876 4.25016 1.3213 4.57868 1.11598C5.23573 0.705326 6.01597 0.5 6.9194 0.5H7.08366C8.47988 0.541065 9.62971 1.07491 10.4099 2.10154C10.6974 1.77302 11.067 1.4445 11.5187 1.15704C12.3811 0.664261 13.3256 0.458935 14.4343 0.541065C14.4754 0.541065 14.5575 0.541065 14.5986 0.58213C15.7484 0.746391 16.6519 1.28024 17.35 2.10154C17.5964 2.43006 17.7606 2.71752 17.9249 3.0871C18.2945 3.82628 18.4587 4.64758 18.4177 5.42782C18.3766 6.53658 18.0481 7.52214 17.391 8.5077C16.6929 9.61646 15.7895 10.4378 14.9682 11.1359C14.845 11.2591 14.6807 11.3823 14.5575 11.5055C13.5309 12.3678 12.34 13.1481 10.9027 13.9694C10.7385 14.0515 10.6153 14.0926 10.451 14.0926C10.2867 14.0926 10.1636 14.0515 9.99929 13.9694C8.56201 13.1481 7.28899 12.3268 6.18023 11.3412C4.98933 10.3967 4.16803 9.49327 3.46992 8.46664Z" fill="#2B78C2"/>
</svg>
