<svg width="51" height="51" viewBox="0 0 51 51" fill="none" xmlns="http://www.w3.org/2000/svg">
<path d="M41.1901 14.6211H9.80986C7.27187 14.6211 5.20703 16.6859 5.20703 19.2239V41.19C5.20703 41.999 5.86289 42.6549 6.67187 42.6549H44.3281C45.1371 42.6549 45.7929 41.999 45.7929 41.19V19.2239C45.7929 16.6859 43.7281 14.6211 41.1901 14.6211Z" fill="#292845"/>
<path d="M45.793 41.1901V19.2239C45.793 16.6859 43.7281 14.6211 41.1901 14.6211H25.5V42.6549H44.3281C45.1371 42.655 45.793 41.9991 45.793 41.1901Z" fill="#292845"/>
<path d="M8.13672 42.655V19.2239C8.13672 18.3014 8.8873 17.5508 9.80986 17.5508H41.1901C42.1127 17.5508 42.8633 18.3014 42.8633 19.2239V42.6549H8.13672V42.655Z" fill="#F7FAFC"/>
<path d="M42.8633 19.2239C42.8633 18.3014 42.1127 17.5508 41.1901 17.5508H25.5V42.6549H42.8633V19.2239Z" fill="#EDF1F8"/>
<path d="M45.8964 30.1028H16.0853C13.5713 30.1028 11.4824 28.0722 11.4824 25.5V5.10283C11.4824 2.58906 13.513 0.5 16.0853 0.5H45.8965C48.4104 0.5 50.4993 2.53086 50.4993 5.10283V25.5C50.4993 28.0141 48.4684 30.1028 45.8964 30.1028Z" fill="#FA598E"/>
<path d="M38.052 36.3789H34.9141C34.1051 36.3789 33.4492 35.723 33.4492 34.9141C33.4492 34.1051 34.1051 33.4492 34.9141 33.4492H38.052C38.861 33.4492 39.5169 34.1051 39.5169 34.9141C39.5169 35.723 38.861 36.3789 38.052 36.3789Z" fill="#EDF1F8"/>
<path d="M38.052 33.4492H34.9141C34.1051 33.4492 33.4492 34.1051 33.4492 34.9141C33.4492 35.723 34.1051 36.3789 34.9141 36.3789H38.052C38.861 36.3789 39.5169 35.723 39.5169 34.9141C39.5169 34.1051 38.861 33.4492 38.052 33.4492Z" fill="#0069FF"/>
<path d="M45.897 50.5H5.10293C2.58887 50.5 0.5 48.4691 0.5 45.8972V41.1901C0.5 40.3811 1.15586 39.7253 1.96484 39.7253H20.793C21.1815 39.7253 21.5541 39.8797 21.8287 40.1544L22.9686 41.2943H28.0313L29.1713 40.1544C29.4459 39.8797 29.8185 39.7253 30.207 39.7253H49.0351C49.8441 39.7253 50.5 40.3811 50.5 41.1901V45.8972C50.5 48.4111 48.4691 50.5 45.897 50.5Z" fill="#413A55"/>
<path d="M50.5 45.8972V41.1901C50.5 40.3811 49.8441 39.7253 49.0351 39.7253H30.207C29.8185 39.7253 29.4459 39.8797 29.1713 40.1544L28.0313 41.2943H25.5V50.5H45.8971C48.4691 50.5 50.5 48.4111 50.5 45.8972Z" fill="#292845"/>
<path d="M28.6374 36.3789H12.9473C12.1383 36.3789 11.4824 35.723 11.4824 34.9141C11.4824 34.1051 12.1383 33.4492 12.9473 33.4492H28.6374C29.4464 33.4492 30.1022 34.1051 30.1022 34.9141C30.1022 35.723 29.4464 36.3789 28.6374 36.3789Z" fill="#0099FF"/>
<path d="M30.1029 34.9141C30.1029 34.1051 29.4471 33.4492 28.6381 33.4492H25.5V36.3789H28.6381C29.4471 36.3789 30.1029 35.723 30.1029 34.9141Z" fill="#0069FF"/>
<path d="M50.5007 25.5V5.10283C50.5007 2.53086 48.4118 0.5 45.8977 0.5H30.9922V30.1028H45.8977C48.4698 30.1028 50.5007 28.0141 50.5007 25.5Z" fill="#F81972"/>
<path d="M37.2204 14.0361L27.8063 8.54463C27.3532 8.28027 26.7936 8.27841 26.3388 8.53964C25.884 8.80087 25.6035 9.28535 25.6035 9.80986V20.793C25.6035 21.3175 25.884 21.802 26.3388 22.0632C27.1038 22.5025 27.7932 22.0659 27.8063 22.0582L37.2204 16.5667C37.6704 16.3042 37.9472 15.8224 37.9472 15.3014C37.9472 14.7804 37.6705 14.2986 37.2204 14.0361Z" fill="#F7FAFC"/>
<path d="M37.9485 15.3014C37.9485 14.7804 37.6718 14.2986 37.2218 14.0361L30.9922 10.4022V20.2006L37.2218 16.5667C37.6718 16.3042 37.9485 15.8224 37.9485 15.3014Z" fill="#EDF1F8"/>
</svg>
