<svg width="53" height="51" viewBox="0 0 53 51" fill="none" xmlns="http://www.w3.org/2000/svg">
<path d="M48.4877 0.5H3.84487C1.87242 0.5 0.273438 2.09898 0.273438 4.07143V38C0.273438 39.9724 1.87242 41.5714 3.84487 41.5714H48.4877C50.4602 41.5714 52.0592 39.9724 52.0592 38V4.07143C52.0592 2.09898 50.4602 0.5 48.4877 0.5Z" fill="#ECF0F1"/>
<path d="M45.9966 38.7679C44.6662 40.0625 42.8894 41.7054 40.8626 43.3482C36.4519 46.9286 30.8716 50.5 26.1662 50.5C21.4608 50.5 15.8805 46.9286 11.4698 43.3482C9.44298 41.7054 7.6662 40.0625 6.33584 38.7679C5.64661 38.097 5.25781 37.1761 5.25781 36.2143C5.25781 35.2525 5.64661 34.3316 6.33584 33.6607C7.6662 32.3661 9.44298 30.7232 11.4698 29.0804C15.8805 25.5 21.4608 21.9286 26.1662 21.9286C30.8716 21.9286 36.4519 25.5 40.8626 29.0804C42.8894 30.7232 44.6662 32.3661 45.9966 33.6607C46.6858 34.3316 47.0746 35.2525 47.0746 36.2143C47.0746 37.1761 46.6858 38.097 45.9966 38.7679Z" fill="#FB7B76"/>
<path d="M43.9518 39.4018C43.1036 40.5447 42.05 41.9197 40.8625 43.3482C36.4518 46.9286 30.8714 50.5 26.1661 50.5C21.4607 50.5 15.8804 46.9286 11.4697 43.3482C10.2822 41.9197 9.22859 40.5447 8.38038 39.4018C7.09456 37.4713 7.09456 34.9573 8.38038 33.0268C9.22859 31.8839 10.2822 30.5089 11.4697 29.0804C15.8804 25.5 21.4607 21.9286 26.1661 21.9286C30.8714 21.9286 36.4518 25.5 40.8625 29.0804C42.05 30.5089 43.1036 31.8839 43.9518 33.0268C45.2376 34.9573 45.2376 37.4713 43.9518 39.4018Z" fill="white"/>
<path d="M40.4523 36.2143C40.4527 40.6734 38.3766 44.8784 34.8362 47.5893L34.8184 47.6072C34.8095 47.6072 34.8095 47.6072 34.8005 47.6161C34.7916 47.625 34.7827 47.625 34.7737 47.6339C31.872 49.3125 28.872 50.5 26.1666 50.5C23.4612 50.5 20.4612 49.3125 17.5595 47.6339C17.5505 47.625 17.5416 47.6161 17.5327 47.6161C17.5237 47.6161 17.5237 47.6072 17.5148 47.6072L17.497 47.5893C13.9569 44.8781 11.8809 40.6733 11.8809 36.2143C11.8809 31.7553 13.9569 27.5505 17.497 24.8393L17.5148 24.8214C17.5237 24.8214 17.5237 24.8214 17.5327 24.8125C17.5416 24.8036 17.5505 24.8036 17.5595 24.7947C20.4612 23.1161 23.4612 21.9286 26.1666 21.9286C28.872 21.9286 31.872 23.1161 34.7737 24.7947C34.7827 24.8036 34.7916 24.8125 34.8005 24.8125C34.8095 24.8125 34.8095 24.8214 34.8184 24.8214L34.8362 24.8393C38.3766 27.5502 40.4527 31.7552 40.4523 36.2143Z" fill="#3B97D3"/>
<path d="M52.0592 4.07143V7.64286H0.273438V4.07143C0.273438 2.09898 1.87242 0.5 3.84487 0.5H48.4877C50.4602 0.5 52.0592 2.09898 52.0592 4.07143Z" fill="#3B97D3"/>
<path d="M28.8438 4.9643H23.4866C22.9935 4.9643 22.5938 4.56456 22.5938 4.07145C22.5938 3.57833 22.9935 3.17859 23.4866 3.17859H28.8438C29.3369 3.17859 29.7366 3.57833 29.7366 4.07145C29.7366 4.56456 29.3369 4.9643 28.8438 4.9643Z" fill="#2980BA"/>
<path d="M48.4877 4.9643H38.6663C38.1732 4.9643 37.7734 4.56456 37.7734 4.07145C37.7734 3.57833 38.1732 3.17859 38.6663 3.17859H48.4877C48.9808 3.17859 49.3806 3.57833 49.3806 4.07145C49.3806 4.56456 48.9808 4.9643 48.4877 4.9643Z" fill="#2980BA"/>
<path d="M3.84403 4.9643C4.33714 4.9643 4.73689 4.56456 4.73689 4.07145C4.73689 3.57833 4.33714 3.17859 3.84403 3.17859C3.35092 3.17859 2.95117 3.57833 2.95117 4.07145C2.95117 4.56456 3.35092 4.9643 3.84403 4.9643Z" fill="#FF5364"/>
<path d="M7.41629 4.9643C7.90941 4.9643 8.30915 4.56456 8.30915 4.07145C8.30915 3.57833 7.90941 3.17859 7.41629 3.17859C6.92318 3.17859 6.52344 3.57833 6.52344 4.07145C6.52344 4.56456 6.92318 4.9643 7.41629 4.9643Z" fill="#F0C419"/>
<path d="M10.9866 4.9643C11.4797 4.9643 11.8795 4.56456 11.8795 4.07145C11.8795 3.57833 11.4797 3.17859 10.9866 3.17859C10.4935 3.17859 10.0938 3.57833 10.0938 4.07145C10.0938 4.56456 10.4935 4.9643 10.9866 4.9643Z" fill="#65DDB9"/>
<path d="M21.3452 29.7947C22.7322 28.7429 24.4259 28.1752 26.1666 28.1786C30.6046 28.1786 34.2023 31.7763 34.2023 36.2143C34.2023 40.6523 30.6046 44.25 26.1666 44.25C21.7286 44.25 18.1309 40.6523 18.1309 36.2143C18.1273 34.8963 18.4526 33.5981 19.0773 32.4375L21.3452 29.7947Z" fill="#2980BA"/>
<path d="M26.1655 40.6786C28.631 40.6786 30.6297 38.6798 30.6297 36.2143C30.6297 33.7487 28.631 31.75 26.1655 31.75C23.6999 31.75 21.7012 33.7487 21.7012 36.2143C21.7012 38.6798 23.6999 40.6786 26.1655 40.6786Z" fill="#285680"/>
<path d="M12.7748 13H9.2034C8.71029 13 8.31055 12.6003 8.31055 12.1072C8.31055 11.614 8.71029 11.2143 9.2034 11.2143H12.7748C13.2679 11.2143 13.6677 11.614 13.6677 12.1072C13.6677 12.6003 13.2679 13 12.7748 13Z" fill="#35495E"/>
<path d="M43.1323 13H39.5608C39.0677 13 38.668 12.6003 38.668 12.1072C38.668 11.614 39.0677 11.2143 39.5608 11.2143H43.1323C43.6254 11.2143 44.0251 11.614 44.0251 12.1072C44.0251 12.6003 43.6254 13 43.1323 13Z" fill="#35495E"/>
<path d="M35.9888 13H16.346C15.8529 13 15.4531 12.6003 15.4531 12.1072C15.4531 11.614 15.8529 11.2143 16.346 11.2143H35.9888C36.4819 11.2143 36.8817 11.614 36.8817 12.1072C36.8817 12.6003 36.4819 13 35.9888 13Z" fill="#35495E"/>
<path d="M33.3114 16.5714H19.0257C18.5326 16.5714 18.1328 16.1717 18.1328 15.6786C18.1328 15.1855 18.5326 14.7857 19.0257 14.7857H33.3114C33.8045 14.7857 34.2042 15.1855 34.2042 15.6786C34.2042 16.1717 33.8045 16.5714 33.3114 16.5714Z" fill="#35495E"/>
<path d="M19.9171 34.4286C21.8896 34.4286 23.4886 32.8296 23.4886 30.8571C23.4886 28.8847 21.8896 27.2857 19.9171 27.2857C17.9447 27.2857 16.3457 28.8847 16.3457 30.8571C16.3457 32.8296 17.9447 34.4286 19.9171 34.4286Z" fill="#ECF0F1"/>
</svg>
